Anton.ufo
<glyph name="exclam" format="1">
  <advance width="508"/>
  <unicode hex="0021"/>
  <outline>
    <contour>
      <point x="75" y="1593" type="line"/>
      <point x="433" y="1593" type="line"/>
      <point x="363" y="439" type="line"/>
      <point x="145" y="439" type="line"/>
    </contour>
    <contour>
      <point x="75" y="1" type="line"/>
      <point x="75" y="299" type="line"/>
      <point x="433" y="299" type="line"/>
      <point x="433" y="1" type="line"/>
    </contour>
  </outline>
</glyph>
<glyph name="quotedbl" format="1">
  <advance width="863"/>
  <unicode hex="0022"/>
  <outline>
    <contour>
      <point x="307" y="957" type="line"/>
      <point x="131" y="957" type="line"/>
      <point x="31" y="1593" type="line"/>
      <point x="383" y="1593" type="line"/>
    </contour>
    <contour>
      <point x="747" y="957" type="line"/>
      <point x="571" y="957" type="line"/>
      <point x="471" y="1593" type="line"/>
      <point x="823" y="1593" type="line"/>
    </contour>
  </outline>
</glyph>
<glyph name="numbersign" format="1">
  <advance width="1150"/>
  <unicode hex="0023"/>
  <outline>
    <contour>
      <point x="115" y="886" type="line"/>
      <point x="115" y="1118" type="line"/>
      <point x="270" y="1118" type="line"/>
      <point x="363" y="1593" type="line"/>
      <point x="647" y="1593" type="line"/>
      <point x="554" y="1118" type="line"/>
      <point x="720" y="1118" type="line"/>
      <point x="813" y="1593" type="line"/>
      <point x="1097" y="1593" type="line"/>
      <point x="1004" y="1118" type="line"/>
      <point x="1097" y="1118" type="line"/>
      <point x="1097" y="886" type="line"/>
      <point x="959" y="886" type="line"/>
      <point x="931" y="741" type="line"/>
      <point x="1039" y="741" type="line"/>
      <point x="1039" y="509" type="line"/>
      <point x="885" y="509" type="line"/>
      <point x="786" y="0" type="line"/>
      <point x="503" y="0" type="line"/>
      <point x="602" y="509" type="line"/>
      <point x="435" y="509" type="line"/>
      <point x="336" y="0" type="line"/>
      <point x="53" y="0" type="line"/>
      <point x="152" y="509" type="line"/>
      <point x="57" y="509" type="line"/>
      <point x="57" y="741" type="line"/>
      <point x="197" y="741" type="line"/>
      <point x="225" y="886" type="line"/>
    </contour>
    <contour>
      <point x="509" y="886" type="line"/>
      <point x="481" y="741" type="line"/>
      <point x="647" y="741" type="line"/>
      <point x="675" y="886" type="line"/>
    </contour>
  </outline>
</glyph>
<glyph name="dollar" format="1">
  <advance width="982"/>
  <unicode hex="0024"/>
  <outline>
    <contour>
      <point x="402" y="-113" type="line"/>
      <point x="402" y="36" type="line"/>
      <point x="214" y="58"/>
      <point x="52" y="279"/>
      <point x="52" y="488" type="qcurve"/>
      <point x="52" y="543" type="line"/>
      <point x="400" y="543" type="line"/>
      <point x="400" y="501" type="line"/>
      <point x="400" y="347"/>
      <point x="494" y="347" type="qcurve"/>
      <point x="533" y="347"/>
      <point x="578" y="407"/>
      <point x="578" y="456" type="qcurve"/>
      <point x="578" y="491"/>
      <point x="516" y="560" type="qcurve"/>
      <point x="228" y="849" type="line"/>
      <point x="70" y="1007"/>
      <point x="70" y="1192" type="qcurve"/>
      <point x="70" y="1327"/>
      <point x="249" y="1531"/>
      <point x="402" y="1558" type="qcurve"/>
      <point x="402" y="1679" type="line"/>
      <point x="575" y="1679" type="line"/>
      <point x="575" y="1561" type="line"/>
      <point x="741" y="1540"/>
      <point x="924" y="1307"/>
      <point x="924" y="1105" type="qcurve"/>
      <point x="567" y="1105" type="line"/>
      <point x="565" y="1190" type="line"/>
      <point x="563" y="1218"/>
      <point x="514" y="1259"/>
      <point x="483" y="1259" type="qcurve"/>
      <point x="448" y="1259"/>
      <point x="399" y="1216"/>
      <point x="399" y="1182" type="qcurve"/>
      <point x="399" y="1132"/>
      <point x="498" y="1034" type="qcurve"/>
      <point x="778" y="758" type="line"/>
      <point x="852" y="685"/>
      <point x="929" y="504"/>
      <point x="929" y="413" type="qcurve"/>
      <point x="929" y="319"/>
      <point x="851" y="159"/>
      <point x="688" y="47"/>
      <point x="575" y="34" type="qcurve"/>
      <point x="575" y="-113" type="line"/>
    </contour>
  </outline>
</glyph>
<glyph name="ampersand" format="1">
  <advance width="1010"/>
  <unicode hex="0026"/>
  <outline>
    <contour>
      <point x="351" y="-21" type="curve" smooth="yes"/>
      <point x="132.008" y="-21"/>
      <point x="30" y="158.435"/>
      <point x="30" y="386" type="curve" smooth="yes"/>
      <point x="30" y="660.609"/>
      <point x="109.09" y="804.25"/>
      <point x="268" y="921" type="curve"/>
      <point x="222.829" y="1010.29"/>
      <point x="168" y="1143.28"/>
      <point x="168" y="1262" type="curve" smooth="yes"/>
      <point x="168" y="1464.06"/>
      <point x="316.702" y="1582"/>
      <point x="516" y="1582" type="curve" smooth="yes"/>
      <point x="712.465" y="1582"/>
      <point x="861" y="1471.94"/>
      <point x="861" y="1273" type="curve" smooth="yes"/>
      <point x="861" y="1133"/>
      <point x="782.667" y="1000.33"/>
      <point x="626" y="875" type="curve"/>
      <point x="689" y="726" type="line"/>
      <point x="728.333" y="827.333"/>
      <point x="785.667" y="905.667"/>
      <point x="861" y="961" type="curve"/>
      <point x="1000" y="744" type="line"/>
      <point x="922" y="682"/>
      <point x="856.333" y="578"/>
      <point x="803" y="432" type="curve"/>
      <point x="982" y="0" type="line"/>
      <point x="642" y="0" type="line"/>
      <point x="605" y="97" type="line"/>
      <point x="552.671" y="31.8795"/>
      <point x="461.015" y="-21"/>
    </contour>
    <contour>
      <point x="336" y="413" type="line" smooth="yes"/>
      <point x="336" y="341.098"/>
      <point x="335.685" y="235"/>
      <point x="407" y="235" type="curve" smooth="yes"/>
      <point x="464.46" y="235"/>
      <point x="496.766" y="289.064"/>
      <point x="508" y="334" type="curve"/>
      <point x="386" y="625" type="line"/>
      <point x="374" y="606" type="line"/>
      <point x="349.685" y="572.334"/>
      <point x="336" y="488.461"/>
      <point x="336" y="423" type="curve" smooth="yes"/>
    </contour>
    <contour>
      <point x="546" y="1336" type="curve" smooth="yes"/>
      <point x="512.29" y="1336"/>
      <point x="492" y="1306.8"/>
      <point x="492" y="1273" type="curve" smooth="yes"/>
      <point x="492" y="1237"/>
      <point x="506.333" y="1182.67"/>
      <point x="535" y="1110" type="curve"/>
      <point x="552" y="1128" type="line" smooth="yes"/>
      <point x="577.153" y="1154.55"/>
      <point x="605" y="1219.02"/>
      <point x="605" y="1273" type="curve" smooth="yes"/>
      <point x="605" y="1315"/>
      <point x="585.333" y="1336"/>
    </contour>
  </outline>
</glyph>
<glyph name="quotesingle" format="1">
  <advance width="424"/>
  <unicode hex="0027"/>
  <outline>
    <contour>
      <point x="308" y="957" type="line"/>
      <point x="132" y="957" type="line"/>
      <point x="32" y="1593" type="line"/>
      <point x="384" y="1593" type="line"/>
    </contour>
  </outline>
</glyph>
<glyph name="parenleft" format="1">
  <advance width="619"/>
  <unicode hex="0028"/>
  <outline>
    <contour>
      <point x="436" y="450" type="line" smooth="yes"/>
      <point x="436" y="349.63"/>
      <point x="495.942" y="289.082"/>
      <point x="575" y="268" type="curve"/>
      <point x="575" y="-17" type="line"/>
      <point x="259.493" y="-3.6687"/>
      <point x="64" y="226.528"/>
      <point x="64" y="562" type="curve" smooth="yes"/>
      <point x="64" y="1151" type="line" smooth="yes"/>
      <point x="64" y="1514.14"/>
      <point x="230.202" y="1719.31"/>
      <point x="575" y="1729" type="curve"/>
      <point x="575" y="1462" type="line"/>
      <point x="473.786" y="1444.4"/>
      <point x="436" y="1382.72"/>
      <point x="436" y="1264.5" type="curve" smooth="yes"/>
    </contour>
  </outline>
</glyph>
<glyph name="parenright" format="1">
  <advance width="620"/>
  <unicode hex="0029"/>
  <outline>
    <contour>
      <point x="45" y="268" type="line"/>
      <point x="105" y="284"/>
      <point x="184" y="375"/>
      <point x="184" y="450" type="qcurve"/>
      <point x="184" y="1233" type="line"/>
      <point x="184" y="1258"/>
      <point x="184" y="1271"/>
      <point x="182" y="1319"/>
      <point x="178" y="1337"/>
      <point x="169" y="1378"/>
      <point x="155" y="1397"/>
      <point x="134" y="1427"/>
      <point x="107" y="1443"/>
      <point x="68" y="1458"/>
      <point x="45" y="1462" type="qcurve"/>
      <point x="45" y="1729" type="line"/>
      <point x="294" y="1722"/>
      <point x="556" y="1434"/>
      <point x="556" y="1151" type="qcurve"/>
      <point x="556" y="562" type="line"/>
      <point x="556" y="444"/>
      <point x="492" y="248"/>
      <point x="390" y="119"/>
      <point x="254" y="28"/>
      <point x="116" y="-14"/>
      <point x="45" y="-17" type="qcurve"/>
    </contour>
  </outline>
</glyph>
<glyph name="asterisk" format="1">
  <advance width="946"/>
  <unicode hex="002A"/>
  <outline>
    <contour>
      <point x="162" y="1480" type="line"/>
      <point x="400" y="1301" type="line"/>
      <point x="357" y="1593" type="line"/>
      <point x="589" y="1593" type="line"/>
      <point x="554" y="1307" type="line"/>
      <point x="784" y="1480" type="line"/>
      <point x="900" y="1280" type="line"/>
      <point x="625" y="1171" type="line"/>
      <point x="900" y="1054" type="line"/>
      <point x="784" y="854" type="line"/>
      <point x="553" y="1036" type="line"/>
      <point x="589" y="741" type="line"/>
      <point x="357" y="741" type="line"/>
      <point x="401" y="1043" type="line"/>
      <point x="162" y="854" type="line"/>
      <point x="46" y="1054" type="line"/>
      <point x="320" y="1171" type="line"/>
      <point x="46" y="1280" type="line"/>
    </contour>
  </outline>
</glyph>
<glyph name="plus" format="1">
  <advance width="752"/>
  <unicode hex="002B"/>
  <outline>
    <contour>
      <point x="52" y="509" type="line"/>
      <point x="52" y="741" type="line"/>
      <point x="260" y="741" type="line"/>
      <point x="260" y="949" type="line"/>
      <point x="492" y="949" type="line"/>
      <point x="492" y="741" type="line"/>
      <point x="700" y="741" type="line"/>
      <point x="700" y="509" type="line"/>
      <point x="492" y="509" type="line"/>
      <point x="492" y="301" type="line"/>
      <point x="260" y="301" type="line"/>
      <point x="260" y="509" type="line"/>
    </contour>
  </outline>
</glyph>
<glyph name="comma" format="1">
  <advance width="493"/>
  <unicode hex="002C"/>
  <outline>
    <contour>
      <point x="58" y="1" type="line"/>
      <point x="58" y="299" type="line"/>
      <point x="432" y="299" type="line"/>
      <point x="432" y="10" type="line"/>
      <point x="330" y="-235" type="line"/>
      <point x="119" y="-235" type="line"/>
      <point x="185" y="1" type="line"/>
    </contour>
  </outline>
</glyph>
<glyph name="hyphen" format="1">
  <advance width="646"/>
  <unicode hex="002D"/>
  <outline>
    <contour>
      <point x="65" y="509" type="line"/>
      <point x="65" y="741" type="line"/>
      <point x="581" y="741" type="line"/>
      <point x="581" y="509" type="line"/>
    </contour>
  </outline>
</glyph>
<glyph name="period" format="1">
  <advance width="475"/>
  <unicode hex="002E"/>
  <outline>
    <contour>
      <point x="59" y="1" type="line"/>
      <point x="59" y="299" type="line"/>
      <point x="417" y="299" type="line"/>
      <point x="417" y="1" type="line"/>
    </contour>
  </outline>
</glyph>
<glyph name="slash" format="1">
  <advance width="830"/>
  <unicode hex="002F"/>
  <outline>
    <contour>
      <point x="439" y="1767" type="line"/>
      <point x="803" y="1767" type="line"/>
      <point x="392" y="0" type="line"/>
      <point x="29" y="0" type="line"/>
    </contour>
  </outline>
</glyph>
<glyph name="zero" format="1">
  <advance width="1074"/>
  <unicode hex="0030"/>
  <outline>
    <contour>
      <point x="537" y="-19" type="curve" smooth="yes"/>
      <point x="239" y="-19"/>
      <point x="71" y="183"/>
      <point x="71" y="496" type="curve" smooth="yes"/>
      <point x="71" y="1142" type="line" smooth="yes"/>
      <point x="71" y="1473"/>
      <point x="223" y="1655"/>
      <point x="537" y="1655" type="curve" smooth="yes"/>
      <point x="851" y="1655"/>
      <point x="1003" y="1473"/>
      <point x="1003" y="1142" type="curve" smooth="yes"/>
      <point x="1003" y="496" type="line" smooth="yes"/>
      <point x="1003" y="183"/>
      <point x="835" y="-19"/>
    </contour>
    <contour>
      <point x="537" y="340" type="curve" smooth="yes"/>
      <point x="591" y="340"/>
      <point x="624" y="398"/>
      <point x="624" y="460" type="curve" smooth="yes"/>
      <point x="624" y="1186" type="line" smooth="yes"/>
      <point x="624" y="1268"/>
      <point x="617" y="1341"/>
      <point x="537" y="1341" type="curve" smooth="yes"/>
      <point x="457" y="1341"/>
      <point x="450" y="1268"/>
      <point x="450" y="1186" type="curve" smooth="yes"/>
      <point x="450" y="460" type="line" smooth="yes"/>
      <point x="450" y="398"/>
      <point x="483" y="340"/>
    </contour>
  </outline>
</glyph>
<glyph name="one" format="1">
  <advance width="710"/>
  <unicode hex="0031"/>
  <outline>
    <contour>
      <point x="330" y="1592" type="qcurve"/>
      <point x="613" y="1592" type="line"/>
      <point x="613" y="0" type="line"/>
      <point x="240" y="0" type="line"/>
      <point x="240" y="1160" type="line"/>
      <point x="228" y="1154"/>
      <point x="187" y="1136"/>
      <point x="72" y="1106"/>
      <point x="22" y="1106" type="qcurve"/>
      <point x="22" y="1107" type="line"/>
      <point x="22" y="1108" type="line"/>
      <point x="22" y="1109" type="line"/>
      <point x="22" y="1110" type="line"/>
      <point x="22" y="1111" type="line"/>
      <point x="22" y="1112" type="line"/>
      <point x="22" y="1113" type="line"/>
      <point x="22" y="1114" type="line"/>
      <point x="22" y="1115" type="line"/>
      <point x="22" y="1116" type="line"/>
      <point x="22" y="1117" type="line"/>
      <point x="22" y="1118" type="line"/>
      <point x="22" y="1119" type="line"/>
      <point x="22" y="1120" type="line"/>
      <point x="22" y="1121" type="line"/>
      <point x="22" y="1122" type="line"/>
      <point x="22" y="1123" type="line"/>
      <point x="22" y="1124" type="line"/>
      <point x="22" y="1125" type="line"/>
      <point x="22" y="1126" type="line"/>
      <point x="22" y="1127" type="line"/>
      <point x="22" y="1128" type="line"/>
      <point x="22" y="1129" type="line"/>
      <point x="22" y="1130" type="line"/>
      <point x="22" y="1131" type="line"/>
      <point x="22" y="1132" type="line"/>
      <point x="22" y="1133" type="line"/>
      <point x="22" y="1134" type="line"/>
      <point x="22" y="1135" type="line"/>
      <point x="22" y="1136" type="line"/>
      <point x="22" y="1137" type="line"/>
      <point x="22" y="1138" type="line"/>
      <point x="22" y="1139" type="line"/>
      <point x="22" y="1140" type="line"/>
      <point x="22" y="1141" type="line"/>
      <point x="22" y="1142" type="line"/>
      <point x="22" y="1143" type="line"/>
      <point x="22" y="1144" type="line"/>
      <point x="22" y="1145" type="line"/>
      <point x="22" y="1146" type="line"/>
      <point x="22" y="1147" type="line"/>
      <point x="22" y="1148" type="line"/>
      <point x="22" y="1149" type="line"/>
      <point x="22" y="1150" type="line"/>
      <point x="22" y="1151" type="line"/>
      <point x="22" y="1152" type="line"/>
      <point x="22" y="1153" type="line"/>
      <point x="22" y="1154" type="line"/>
      <point x="22" y="1155" type="line"/>
      <point x="22" y="1157" type="line"/>
      <point x="22" y="1158" type="line"/>
      <point x="22" y="1159" type="line"/>
      <point x="22" y="1160" type="line"/>
      <point x="22" y="1161" type="line"/>
      <point x="22" y="1162" type="line"/>
      <point x="22" y="1163" type="line"/>
      <point x="22" y="1164" type="line"/>
      <point x="22" y="1165" type="line"/>
      <point x="22" y="1166" type="line"/>
      <point x="22" y="1168" type="line"/>
      <point x="22" y="1169" type="line"/>
      <point x="22" y="1170" type="line"/>
      <point x="22" y="1171" type="line"/>
      <point x="22" y="1172" type="line"/>
      <point x="22" y="1173" type="line"/>
      <point x="22" y="1175" type="line"/>
      <point x="22" y="1176" type="line"/>
      <point x="22" y="1177" type="line"/>
      <point x="22" y="1178" type="line"/>
      <point x="22" y="1179" type="line"/>
      <point x="22" y="1181" type="line"/>
      <point x="22" y="1182" type="line"/>
      <point x="22" y="1183" type="line"/>
      <point x="22" y="1184" type="line"/>
      <point x="22" y="1186" type="line"/>
      <point x="22" y="1187" type="line"/>
      <point x="22" y="1188" type="line"/>
      <point x="22" y="1189" type="line"/>
      <point x="22" y="1191" type="line"/>
      <point x="22" y="1192" type="line"/>
      <point x="22" y="1193" type="line"/>
      <point x="22" y="1194" type="line"/>
      <point x="22" y="1196" type="line"/>
      <point x="22" y="1197" type="line"/>
      <point x="22" y="1198" type="line"/>
      <point x="22" y="1200" type="line"/>
      <point x="22" y="1201" type="line"/>
      <point x="22" y="1202" type="line"/>
      <point x="22" y="1204" type="line"/>
      <point x="22" y="1205" type="line"/>
      <point x="22" y="1206" type="line"/>
      <point x="22" y="1208" type="line"/>
      <point x="22" y="1209" type="line"/>
      <point x="22" y="1210" type="line"/>
      <point x="22" y="1212" type="line"/>
      <point x="22" y="1213" type="line"/>
      <point x="22" y="1215" type="line"/>
      <point x="22" y="1216" type="line"/>
      <point x="22" y="1217" type="line"/>
      <point x="22" y="1219" type="line"/>
      <point x="22" y="1220" type="line"/>
      <point x="22" y="1222" type="line"/>
      <point x="22" y="1223" type="line"/>
      <point x="22" y="1224" type="line"/>
      <point x="22" y="1226" type="line"/>
      <point x="22" y="1227" type="line"/>
      <point x="22" y="1229" type="line"/>
      <point x="22" y="1230" type="line"/>
      <point x="22" y="1232" type="line"/>
      <point x="22" y="1233" type="line"/>
      <point x="22" y="1235" type="line"/>
      <point x="22" y="1236" type="line"/>
      <point x="22" y="1237" type="line"/>
      <point x="22" y="1239" type="line"/>
      <point x="22" y="1240" type="line"/>
      <point x="22" y="1242" type="line"/>
      <point x="22" y="1243" type="line"/>
      <point x="22" y="1245" type="line"/>
      <point x="22" y="1246" type="line"/>
      <point x="22" y="1248" type="line"/>
      <point x="22" y="1249" type="line"/>
      <point x="22" y="1251" type="line"/>
      <point x="22" y="1253" type="line"/>
      <point x="22" y="1254" type="line"/>
      <point x="22" y="1256" type="line"/>
      <point x="22" y="1257" type="line"/>
      <point x="22" y="1259" type="line"/>
      <point x="22" y="1260" type="line"/>
      <point x="22" y="1262" type="line"/>
      <point x="22" y="1263" type="line"/>
      <point x="22" y="1265" type="line"/>
      <point x="22" y="1267" type="line"/>
      <point x="22" y="1268" type="line"/>
      <point x="22" y="1270" type="line"/>
      <point x="22" y="1271" type="line"/>
      <point x="22" y="1273" type="line"/>
      <point x="22" y="1275" type="line"/>
      <point x="22" y="1276" type="line"/>
      <point x="22" y="1278" type="line"/>
      <point x="22" y="1279" type="line"/>
      <point x="22" y="1281" type="line"/>
      <point x="22" y="1283" type="line"/>
      <point x="22" y="1284" type="line"/>
      <point x="22" y="1286" type="line"/>
      <point x="22" y="1288" type="line"/>
      <point x="22" y="1289" type="line"/>
      <point x="22" y="1291" type="line"/>
      <point x="22" y="1292" type="line"/>
      <point x="22" y="1294" type="line"/>
      <point x="22" y="1296" type="line"/>
      <point x="22" y="1297" type="line"/>
      <point x="22" y="1299" type="line"/>
      <point x="22" y="1301" type="line"/>
      <point x="22" y="1303" type="line"/>
      <point x="22" y="1304" type="line"/>
      <point x="22" y="1306" type="line"/>
      <point x="22" y="1308" type="line"/>
      <point x="22" y="1309" type="line"/>
      <point x="22" y="1311" type="line"/>
      <point x="22" y="1313" type="line"/>
      <point x="22" y="1314" type="line"/>
      <point x="22" y="1316" type="line"/>
      <point x="22" y="1318" type="line"/>
      <point x="22" y="1320" type="line"/>
      <point x="22" y="1321" type="line"/>
      <point x="22" y="1323" type="line"/>
      <point x="22" y="1325" type="line"/>
      <point x="22" y="1327" type="line"/>
      <point x="22" y="1328" type="line"/>
      <point x="22" y="1330" type="line"/>
      <point x="22" y="1332" type="line"/>
      <point x="22" y="1334" type="line"/>
      <point x="22" y="1335" type="line"/>
      <point x="22" y="1337" type="line"/>
      <point x="22" y="1339" type="line"/>
      <point x="22" y="1341" type="line"/>
      <point x="22" y="1343" type="line"/>
      <point x="22" y="1344" type="line"/>
      <point x="22" y="1346" type="line"/>
      <point x="22" y="1348" type="line"/>
      <point x="22" y="1350" type="line"/>
      <point x="22" y="1352" type="line"/>
      <point x="22" y="1354" type="line"/>
      <point x="22" y="1355" type="line"/>
      <point x="22" y="1357" type="line"/>
      <point x="22" y="1359" type="line"/>
      <point x="22" y="1361" type="line"/>
      <point x="22" y="1363" type="line"/>
      <point x="22" y="1365" type="line"/>
      <point x="22" y="1366" type="line"/>
      <point x="22" y="1368" type="line"/>
      <point x="22" y="1370" type="line"/>
      <point x="22" y="1379" type="line"/>
      <point x="50" y="1379"/>
      <point x="148" y="1409"/>
      <point x="254" y="1461"/>
      <point x="330" y="1545"/>
    </contour>
  </outline>
</glyph>
<glyph name="two" format="1">
  <advance width="1029"/>
  <unicode hex="0032"/>
  <outline>
    <contour>
      <point x="54" y="0" type="line"/>
      <point x="54" y="82" type="line"/>
      <point x="54" y="156"/>
      <point x="68" y="229" type="qcurve"/>
      <point x="107" y="434"/>
      <point x="279" y="669" type="qcurve"/>
      <point x="338" y="748"/>
      <point x="517" y="963" type="qcurve"/>
      <point x="607" y="1072"/>
      <point x="607" y="1249" type="qcurve"/>
      <point x="607" y="1316"/>
      <point x="566" y="1395"/>
      <point x="512" y="1395" type="qcurve"/>
      <point x="424" y="1395"/>
      <point x="424" y="1243" type="qcurve"/>
      <point x="424" y="1034" type="line"/>
      <point x="54" y="1034" type="line"/>
      <point x="50" y="1139" type="line"/>
      <point x="50" y="1289"/>
      <point x="94" y="1496"/>
      <point x="199" y="1646"/>
      <point x="381" y="1716"/>
      <point x="517" y="1716" type="qcurve"/>
      <point x="732" y="1716"/>
      <point x="979" y="1481"/>
      <point x="979" y="1255" type="qcurve"/>
      <point x="979" y="1130"/>
      <point x="908" y="908"/>
      <point x="790" y="730"/>
      <point x="666" y="579"/>
      <point x="527" y="399"/>
      <point x="487" y="322" type="qcurve"/>
      <point x="967" y="322" type="line"/>
      <point x="967" y="0" type="line"/>
    </contour>
  </outline>
</glyph>
<glyph name="three" format="1">
  <advance width="1034"/>
  <unicode hex="0033"/>
  <outline>
    <contour>
      <point x="971" y="530" type="curve" smooth="yes"/>
      <point x="971" y="178"/>
      <point x="835" y="-20"/>
      <point x="494" y="-20" type="curve" smooth="yes"/>
      <point x="183" y="-20"/>
      <point x="49" y="143"/>
      <point x="49" y="474" type="curve" smooth="yes"/>
      <point x="49" y="658" type="line"/>
      <point x="410" y="658" type="line"/>
      <point x="410" y="473" type="line" smooth="yes"/>
      <point x="410" y="380"/>
      <point x="424" y="306"/>
      <point x="511" y="306" type="curve" smooth="yes"/>
      <point x="606" y="306"/>
      <point x="602" y="418"/>
      <point x="602" y="530" type="curve" smooth="yes"/>
      <point x="602" y="574" type="line" smooth="yes"/>
      <point x="602" y="695"/>
      <point x="570" y="801"/>
      <point x="452" y="801" type="curve" smooth="yes"/>
      <point x="437" y="801"/>
      <point x="426" y="800"/>
      <point x="418" y="799" type="curve"/>
      <point x="418" y="1115" type="line"/>
      <point x="539" y="1115"/>
      <point x="605" y="1164"/>
      <point x="605" y="1291" type="curve" smooth="yes"/>
      <point x="605" y="1391"/>
      <point x="576" y="1440"/>
      <point x="519" y="1440" type="curve" smooth="yes"/>
      <point x="425" y="1440"/>
      <point x="436" y="1369"/>
      <point x="424" y="1286" type="curve"/>
      <point x="424" y="1233" type="line"/>
      <point x="60" y="1233" type="line"/>
      <point x="58" y="1295" type="line"/>
      <point x="60" y="1618"/>
      <point x="206" y="1763"/>
      <point x="517" y="1763" type="curve" smooth="yes"/>
      <point x="817" y="1763"/>
      <point x="967" y="1609"/>
      <point x="967" y="1295" type="curve" smooth="yes"/>
      <point x="967" y="1122"/>
      <point x="928" y="1007"/>
      <point x="802" y="962" type="curve"/>
      <point x="952" y="889"/>
      <point x="971" y="766"/>
    </contour>
  </outline>
</glyph>
<glyph name="four" format="1">
  <advance width="1066"/>
  <unicode hex="0034"/>
  <outline>
    <contour>
      <point x="1009" y="592" type="line"/>
      <point x="1009" y="278" type="line"/>
      <point x="939" y="278" type="line"/>
      <point x="939" y="-1" type="line"/>
      <point x="570" y="-1" type="line"/>
      <point x="570" y="278" type="line"/>
      <point x="28" y="278" type="line"/>
      <point x="28" y="553" type="line"/>
      <point x="381" y="1640" type="line"/>
      <point x="939" y="1640" type="line"/>
      <point x="939" y="592" type="line"/>
    </contour>
    <contour>
      <point x="372" y="592" type="line"/>
      <point x="570" y="592" type="line"/>
      <point x="570" y="1338" type="line"/>
    </contour>
  </outline>
</glyph>
<glyph name="five" format="1">
  <advance width="1039"/>
  <unicode hex="0035"/>
  <outline>
    <contour>
      <point x="987" y="668" type="curve" smooth="yes"/>
      <point x="987" y="245"/>
      <point x="927" y="-25"/>
      <point x="516" y="-25" type="curve" smooth="yes"/>
      <point x="245" y="-25"/>
      <point x="56" y="107"/>
      <point x="56" y="384" type="curve" smooth="yes"/>
      <point x="56" y="646" type="line"/>
      <point x="422" y="646" type="line"/>
      <point x="422" y="495" type="line" smooth="yes"/>
      <point x="422" y="400"/>
      <point x="429" y="304"/>
      <point x="516" y="304" type="curve" smooth="yes"/>
      <point x="592" y="304"/>
      <point x="609" y="361"/>
      <point x="609" y="441" type="curve" smooth="yes"/>
      <point x="609" y="787" type="line" smooth="yes"/>
      <point x="609" y="873"/>
      <point x="601" y="970"/>
      <point x="518" y="970" type="curve" smooth="yes"/>
      <point x="451" y="970"/>
      <point x="418" y="922"/>
      <point x="418" y="825" type="curve"/>
      <point x="95" y="825" type="line"/>
      <point x="95" y="1741" type="line"/>
      <point x="934" y="1741" type="line"/>
      <point x="934" y="1411" type="line"/>
      <point x="429" y="1411" type="line"/>
      <point x="430" y="1213" type="line"/>
      <point x="466" y="1247"/>
      <point x="524" y="1264"/>
      <point x="604" y="1264" type="curve" smooth="yes"/>
      <point x="924" y="1264"/>
      <point x="987" y="999"/>
    </contour>
  </outline>
</glyph>
<glyph name="six" format="1">
  <advance width="1067"/>
  <unicode hex="0036"/>
  <outline>
    <contour>
      <point x="1006" y="533" type="curve" smooth="yes"/>
      <point x="1006" y="181"/>
      <point x="891" y="-22"/>
      <point x="547" y="-22" type="curve" smooth="yes"/>
      <point x="180" y="-22"/>
      <point x="72" y="166"/>
      <point x="72" y="543" type="curve" smooth="yes"/>
      <point x="72" y="904" type="line" smooth="yes"/>
      <point x="72" y="1180"/>
      <point x="80" y="1466"/>
      <point x="248" y="1574" type="curve" smooth="yes"/>
      <point x="321" y="1621"/>
      <point x="432" y="1655"/>
      <point x="557" y="1655" type="curve" smooth="yes"/>
      <point x="779" y="1655"/>
      <point x="1008" y="1539"/>
      <point x="1008" y="1310" type="curve" smooth="yes"/>
      <point x="1008" y="1120" type="line"/>
      <point x="639" y="1120" type="line"/>
      <point x="639" y="1156" type="line" smooth="yes"/>
      <point x="639" y="1244"/>
      <point x="636" y="1346"/>
      <point x="551" y="1346" type="curve" smooth="yes"/>
      <point x="472" y="1346"/>
      <point x="446" y="1301"/>
      <point x="446" y="1220" type="curve" smooth="yes"/>
      <point x="446" y="922" type="line"/>
      <point x="479" y="984"/>
      <point x="547" y="1026"/>
      <point x="643" y="1026" type="curve" smooth="yes"/>
      <point x="934" y="1026"/>
      <point x="1006" y="850"/>
    </contour>
    <contour>
      <point x="534" y="302" type="curve" smooth="yes"/>
      <point x="617" y="302"/>
      <point x="620" y="380"/>
      <point x="620" y="489" type="curve" smooth="yes"/>
      <point x="620" y="571" type="line" smooth="yes"/>
      <point x="620" y="667"/>
      <point x="593" y="715"/>
      <point x="539" y="715" type="curve" smooth="yes"/>
      <point x="477" y="715"/>
      <point x="446" y="673"/>
      <point x="446" y="590" type="curve" smooth="yes"/>
      <point x="446" y="432" type="line" smooth="yes"/>
      <point x="446" y="345"/>
      <point x="475" y="302"/>
    </contour>
  </outline>
</glyph>
<glyph name="seven" format="1">
  <advance width="920"/>
  <unicode hex="0037"/>
  <outline>
    <contour>
      <point x="95" y="1" type="qcurve"/>
      <point x="107" y="178"/>
      <point x="187" y="535"/>
      <point x="294" y="829"/>
      <point x="399" y="1078"/>
      <point x="497" y="1315"/>
      <point x="517" y="1389" type="qcurve"/>
      <point x="20" y="1389" type="line"/>
      <point x="20" y="1706" type="line"/>
      <point x="908" y="1706" type="line"/>
      <point x="908" y="1451" type="line"/>
      <point x="901" y="1388"/>
      <point x="839" y="1215"/>
      <point x="757" y="1041"/>
      <point x="659" y="796"/>
      <point x="574" y="540"/>
      <point x="505" y="188"/>
      <point x="493" y="1" type="qcurve"/>
      <point x="260" y="0" type="line"/>
      <point x="229" y="0"/>
      <point x="116" y="1"/>
    </contour>
  </outline>
</glyph>
<glyph name="eight" format="1">
  <advance width="1056"/>
  <unicode hex="0038"/>
  <outline>
    <contour>
      <point x="623" y="592" type="curve" smooth="yes"/>
      <point x="623" y="686"/>
      <point x="619" y="815"/>
      <point x="528" y="815" type="curve" smooth="yes"/>
      <point x="437" y="815"/>
      <point x="426" y="674"/>
      <point x="433" y="575" type="curve"/>
      <point x="433" y="560" type="line" smooth="yes"/>
      <point x="433" y="550"/>
      <point x="432" y="514"/>
      <point x="432" y="503" type="curve" smooth="yes"/>
      <point x="432" y="387"/>
      <point x="464" y="329"/>
      <point x="528" y="329" type="curve" smooth="yes"/>
      <point x="592" y="329"/>
      <point x="624" y="387"/>
      <point x="624" y="503" type="curve" smooth="yes"/>
      <point x="624" y="525"/>
      <point x="623" y="571"/>
    </contour>
    <contour>
      <point x="68" y="1335" type="line" smooth="yes"/>
      <point x="68" y="1647"/>
      <point x="228" y="1782"/>
      <point x="528" y="1782" type="curve" smooth="yes"/>
      <point x="836" y="1782"/>
      <point x="988" y="1644"/>
      <point x="988" y="1321" type="curve" smooth="yes"/>
      <point x="988" y="1152"/>
      <point x="958" y="1034"/>
      <point x="839" y="984" type="curve"/>
      <point x="976" y="918"/>
      <point x="990" y="776"/>
      <point x="990" y="569" type="curve" smooth="yes"/>
      <point x="990" y="550"/>
      <point x="990" y="535"/>
      <point x="989" y="525" type="curve"/>
      <point x="989" y="178"/>
      <point x="859" y="-19"/>
      <point x="528" y="-19" type="curve" smooth="yes"/>
      <point x="197" y="-19"/>
      <point x="67" y="178"/>
      <point x="67" y="525" type="curve" smooth="yes"/>
      <point x="67" y="642" type="line" smooth="yes"/>
      <point x="67" y="820"/>
      <point x="102" y="927"/>
      <point x="217" y="986" type="curve"/>
      <point x="109" y="1030"/>
      <point x="68" y="1135"/>
      <point x="68" y="1289" type="curve" smooth="yes"/>
    </contour>
    <contour>
      <point x="528" y="1458" type="curve" smooth="yes"/>
      <point x="456" y="1458"/>
      <point x="435" y="1377"/>
      <point x="435" y="1302" type="curve" smooth="yes"/>
      <point x="435" y="1190"/>
      <point x="466" y="1134"/>
      <point x="528" y="1134" type="curve" smooth="yes"/>
      <point x="590" y="1134"/>
      <point x="621" y="1190"/>
      <point x="621" y="1302" type="curve" smooth="yes"/>
      <point x="621" y="1377"/>
      <point x="600" y="1458"/>
    </contour>
  </outline>
</glyph>
<glyph name="nine" format="1">
  <advance width="1065"/>
  <unicode hex="0039"/>
  <outline>
    <contour>
      <point x="520" y="-18" type="qcurve"/>
      <point x="393" y="-18"/>
      <point x="187" y="62"/>
      <point x="58" y="230"/>
      <point x="58" y="346" type="qcurve"/>
      <point x="58" y="496" type="line"/>
      <point x="430" y="496" type="line"/>
      <point x="429" y="417" type="line"/>
      <point x="429" y="415"/>
      <point x="429" y="414" type="qcurve"/>
      <point x="429" y="369"/>
      <point x="458" y="345" type="qcurve"/>
      <point x="488" y="320"/>
      <point x="518" y="320" type="qcurve"/>
      <point x="551" y="320"/>
      <point x="610" y="374"/>
      <point x="610" y="431" type="qcurve"/>
      <point x="610" y="676" type="line"/>
      <point x="575" y="638"/>
      <point x="469" y="598"/>
      <point x="415" y="598" type="qcurve"/>
      <point x="311" y="598"/>
      <point x="172" y="669"/>
      <point x="93" y="818"/>
      <point x="61" y="1019"/>
      <point x="61" y="1164" type="qcurve"/>
      <point x="61" y="1262"/>
      <point x="86" y="1420"/>
      <point x="150" y="1567"/>
      <point x="254" y="1666"/>
      <point x="422" y="1725"/>
      <point x="533" y="1725" type="qcurve"/>
      <point x="665" y="1725"/>
      <point x="847" y="1648"/>
      <point x="951" y="1494"/>
      <point x="996" y="1291"/>
      <point x="996" y="1152" type="qcurve"/>
      <point x="993" y="727" type="line"/>
      <point x="992" y="648"/>
      <point x="992" y="566"/>
      <point x="984" y="417"/>
      <point x="968" y="334"/>
      <point x="935" y="210"/>
      <point x="889" y="140"/>
      <point x="817" y="56"/>
      <point x="724" y="12"/>
      <point x="597" y="-18"/>
    </contour>
    <contour>
      <point x="441" y="1155" type="qcurve"/>
      <point x="441" y="1102"/>
      <point x="442" y="1053"/>
      <point x="447" y="982"/>
      <point x="458" y="953"/>
      <point x="478" y="919"/>
      <point x="509" y="908"/>
      <point x="531" y="908" type="qcurve"/>
      <point x="621" y="908"/>
      <point x="621" y="1079" type="qcurve"/>
      <point x="621" y="1240" type="line"/>
      <point x="621" y="1320"/>
      <point x="584" y="1411"/>
      <point x="533" y="1411" type="qcurve"/>
      <point x="493" y="1411"/>
      <point x="456" y="1370"/>
      <point x="441" y="1266"/>
    </contour>
  </outline>
</glyph>
<glyph name="colon" format="1">
  <advance width="531"/>
  <unicode hex="003A"/>
  <outline>
    <contour>
      <point x="86" y="237" type="line"/>
      <point x="86" y="535" type="line"/>
      <point x="444" y="535" type="line"/>
      <point x="444" y="237" type="line"/>
    </contour>
    <contour>
      <point x="86" y="976" type="line"/>
      <point x="86" y="1274" type="line"/>
      <point x="444" y="1274" type="line"/>
      <point x="444" y="976" type="line"/>
    </contour>
  </outline>
</glyph>
<glyph name="semicolon" format="1">
  <advance width="544"/>
  <unicode hex="003B"/>
  <outline>
    <contour>
      <point x="87" y="236" type="line"/>
      <point x="87" y="534" type="line"/>
      <point x="461" y="534" type="line"/>
      <point x="461" y="245" type="line"/>
      <point x="359" y="0" type="line"/>
      <point x="148" y="0" type="line"/>
      <point x="214" y="236" type="line"/>
    </contour>
    <contour>
      <point x="87" y="976" type="line"/>
      <point x="87" y="1274" type="line"/>
      <point x="445" y="1274" type="line"/>
      <point x="445" y="976" type="line"/>
    </contour>
  </outline>
</glyph>
<glyph name="less" format="1">
  <advance width="710"/>
  <unicode hex="003C"/>
  <outline>
    <contour>
      <point x="53" y="545" type="line"/>
      <point x="53" y="959" type="line"/>
      <point x="623" y="1300" type="line"/>
      <point x="623" y="941" type="line"/>
      <point x="281" y="749" type="line"/>
      <point x="623" y="558" type="line"/>
      <point x="623" y="200" type="line"/>
    </contour>
  </outline>
</glyph>
<glyph name="equal" format="1">
  <advance width="637"/>
  <unicode hex="003D"/>
  <outline>
    <contour>
      <point x="575" y="741" type="line"/>
      <point x="575" y="509" type="line"/>
      <point x="61" y="509" type="line"/>
      <point x="61" y="741" type="line"/>
    </contour>
    <contour>
      <point x="575" y="1116" type="line"/>
      <point x="575" y="892" type="line"/>
      <point x="61" y="892" type="line"/>
      <point x="61" y="1116" type="line"/>
    </contour>
  </outline>
</glyph>
<glyph name="greater" format="1">
  <advance width="711"/>
  <unicode hex="003E"/>
  <outline>
    <contour>
      <point x="658" y="545" type="line"/>
      <point x="88" y="200" type="line"/>
      <point x="88" y="558" type="line"/>
      <point x="430" y="749" type="line"/>
      <point x="88" y="941" type="line"/>
      <point x="88" y="1300" type="line"/>
      <point x="658" y="959" type="line"/>
    </contour>
  </outline>
</glyph>
<glyph name="question" format="1">
  <advance width="1041"/>
  <unicode hex="003F"/>
  <outline>
    <contour>
      <point x="63" y="1293" type="line" smooth="yes"/>
      <point x="63" y="1562.2"/>
      <point x="251.613" y="1690"/>
      <point x="523" y="1690" type="curve" smooth="yes"/>
      <point x="877.522" y="1690"/>
      <point x="993" y="1492.85"/>
      <point x="993" y="1140" type="curve" smooth="yes"/>
      <point x="993" y="793.56"/>
      <point x="825.109" y="579"/>
      <point x="475" y="579" type="curve"/>
      <point x="475" y="409" type="line"/>
      <point x="142" y="409" type="line"/>
      <point x="142" y="825" type="line"/>
      <point x="475.469" y="825"/>
      <point x="616" y="866.482"/>
      <point x="616" y="1208" type="curve" smooth="yes"/>
      <point x="616" y="1294.72"/>
      <point x="603.263" y="1371"/>
      <point x="523" y="1371" type="curve" smooth="yes"/>
      <point x="436.163" y="1371"/>
      <point x="429" y="1276.79"/>
      <point x="429" y="1185" type="curve" smooth="yes"/>
      <point x="429" y="1039" type="line"/>
      <point x="63" y="1039" type="line"/>
    </contour>
    <contour>
      <point x="131" y="1" type="line"/>
      <point x="131" y="299" type="line"/>
      <point x="489" y="299" type="line"/>
      <point x="489" y="1" type="line"/>
    </contour>
  </outline>
</glyph>
<glyph name="at" format="1">
  <advance width="1842"/>
  <unicode hex="0040"/>
  <outline>
    <contour>
      <point x="990" y="972" type="line"/>
      <point x="838.022" y="972"/>
      <point x="834" y="869.423"/>
      <point x="834" y="718" type="curve" smooth="yes"/>
      <point x="834" y="644.209"/>
      <point x="850.758" y="570"/>
      <point x="914" y="570" type="curve" smooth="yes"/>
      <point x="971.766" y="570"/>
      <point x="990" y="629.708"/>
      <point x="990" y="687" type="curve" smooth="yes"/>
    </contour>
    <contour>
      <point x="370" y="723" type="curve" smooth="yes"/>
      <point x="370" y="350.707"/>
      <point x="518.872" y="206"/>
      <point x="887" y="206" type="curve" smooth="yes"/>
      <point x="961" y="206"/>
      <point x="1053" y="212"/>
      <point x="1163" y="224" type="curve"/>
      <point x="1207" y="-37" type="line"/>
      <point x="1082.33" y="-55"/>
      <point x="974" y="-64"/>
      <point x="882" y="-64" type="curve" smooth="yes"/>
      <point x="332.278" y="-64"/>
      <point x="53" y="186.528"/>
      <point x="53" y="726" type="curve" smooth="yes"/>
      <point x="53" y="1377.35"/>
      <point x="373.94" y="1630"/>
      <point x="1024" y="1630" type="curve" smooth="yes"/>
      <point x="1507.7" y="1630"/>
      <point x="1793" y="1342.77"/>
      <point x="1793" y="867" type="curve" smooth="yes"/>
      <point x="1793" y="535.198"/>
      <point x="1681.21" y="268"/>
      <point x="1377" y="268" type="curve" smooth="yes"/>
      <point x="1172.83" y="268"/>
      <point x="1063.9" y="337.001"/>
      <point x="1016" y="494" type="curve"/>
      <point x="976" y="382"/>
      <point x="890.667" y="326"/>
      <point x="760" y="326" type="curve" smooth="yes"/>
      <point x="564.917" y="326"/>
      <point x="499" y="512.042"/>
      <point x="499" y="718" type="curve" smooth="yes"/>
      <point x="499" y="978.314"/>
      <point x="571.287" y="1209"/>
      <point x="798" y="1209" type="curve" smooth="yes"/>
      <point x="868" y="1209"/>
      <point x="939" y="1177.33"/>
      <point x="1011" y="1114" type="curve"/>
      <point x="1051" y="1226" type="line"/>
      <point x="1312" y="1226" type="line"/>
      <point x="1312" y="621" type="line" smooth="yes"/>
      <point x="1312" y="562.969"/>
      <point x="1341.56" y="497"/>
      <point x="1393" y="497" type="curve" smooth="yes"/>
      <point x="1486.7" y="497"/>
      <point x="1507" y="762.968"/>
      <point x="1507" y="888" type="curve" smooth="yes"/>
      <point x="1507" y="1193.05"/>
      <point x="1337.69" y="1365"/>
      <point x="1027" y="1365" type="curve" smooth="yes"/>
      <point x="562.36" y="1365"/>
      <point x="370" y="1191.09"/>
    </contour>
  </outline>
</glyph>
<glyph name="A" format="1">
  <advance width="947"/>
  <unicode hex="0041"/>
  <outline>
    <contour>
      <point x="746" y="1761" type="line"/>
      <point x="926" y="0" type="line"/>
      <point x="610" y="0" type="line"/>
      <point x="585" y="265" type="line"/>
      <point x="373" y="265" type="line"/>
      <point x="351" y="0" type="line"/>
      <point x="19" y="0" type="line"/>
      <point x="195" y="1761" type="line"/>
    </contour>
    <contour>
      <point x="491" y="1501" type="line"/>
      <point x="455" y="1501" type="line"/>
      <point x="398" y="585" type="line"/>
      <point x="558" y="585" type="line"/>
    </contour>
  </outline>
</glyph>
<glyph name="B" format="1">
  <advance width="988"/>
  <unicode hex="0042"/>
  <outline>
    <contour>
      <point x="87" y="0" type="line"/>
      <point x="87" y="1593" type="line"/>
      <point x="564" y="1593" type="line"/>
      <point x="751" y="1593"/>
      <point x="931" y="1428"/>
      <point x="931" y="1229" type="qcurve"/>
      <point x="931" y="1223"/>
      <point x="931" y="1212" type="qcurve"/>
      <point x="931" y="1177"/>
      <point x="931" y="1143"/>
      <point x="924" y="1071"/>
      <point x="911" y="1030"/>
      <point x="885" y="970"/>
      <point x="847" y="932"/>
      <point x="789" y="896"/>
      <point x="751" y="887" type="qcurve"/>
      <point x="806" y="874"/>
      <point x="884" y="810"/>
      <point x="924" y="739"/>
      <point x="947" y="635"/>
      <point x="951" y="565"/>
      <point x="951" y="516" type="qcurve"/>
      <point x="951" y="390"/>
      <point x="916" y="210"/>
      <point x="830" y="69"/>
      <point x="677" y="0"/>
      <point x="564" y="0" type="qcurve"/>
    </contour>
    <contour>
      <point x="431" y="745" type="line"/>
      <point x="431" y="283" type="line"/>
      <point x="455" y="281"/>
      <point x="466" y="281" type="qcurve"/>
      <point x="603" y="281"/>
      <point x="603" y="399" type="qcurve"/>
      <point x="603" y="399"/>
      <point x="603" y="598" type="qcurve"/>
      <point x="603" y="674"/>
      <point x="552" y="745"/>
      <point x="496" y="745" type="qcurve"/>
    </contour>
    <contour>
      <point x="431" y="993" type="line"/>
      <point x="503" y="993" type="line"/>
      <point x="529" y="993"/>
      <point x="562" y="1015"/>
      <point x="576" y="1056"/>
      <point x="580" y="1089"/>
      <point x="580" y="1112" type="qcurve"/>
      <point x="580" y="1270" type="line"/>
      <point x="580" y="1346"/>
      <point x="505" y="1346" type="qcurve"/>
      <point x="431" y="1346" type="line"/>
    </contour>
  </outline>
</glyph>
<glyph name="B" format="1">
  <advance width="988"/>
  <unicode hex="0042"/>
  <outline>
    <contour>
      <point x="951" y="569" type="curve" smooth="yes"/>
      <point x="951" y="226"/>
      <point x="874" y="0"/>
      <point x="564" y="0" type="curve" smooth="yes"/>
      <point x="87" y="0" type="line"/>
      <point x="87" y="1761" type="line"/>
      <point x="564" y="1761" type="line" smooth="yes"/>
      <point x="820" y="1761"/>
      <point x="931" y="1646"/>
      <point x="931" y="1359" type="curve" smooth="yes"/>
      <point x="931" y="1281" type="line" smooth="yes"/>
      <point x="931" y="1116"/>
      <point x="872" y="1011"/>
      <point x="751" y="979" type="curve"/>
      <point x="909" y="939"/>
      <point x="951" y="781"/>
    </contour>
    <contour>
      <point x="603" y="660" type="line" smooth="yes"/>
      <point x="603" y="760"/>
      <point x="579" y="822"/>
      <point x="496" y="822" type="curve" smooth="yes"/>
      <point x="431" y="822" type="line"/>
      <point x="431" y="312" type="line"/>
      <point x="447" y="311"/>
      <point x="459" y="310"/>
      <point x="466" y="310" type="curve" smooth="yes"/>
      <point x="557" y="310"/>
      <point x="603" y="354"/>
      <point x="603" y="440" type="curve" smooth="yes"/>
    </contour>
    <contour>
      <point x="503" y="1097" type="line" smooth="yes"/>
      <point x="568" y="1097"/>
      <point x="580" y="1155"/>
      <point x="580" y="1226" type="curve" smooth="yes"/>
      <point x="580" y="1404" type="line" smooth="yes"/>
      <point x="580" y="1461"/>
      <point x="555" y="1489"/>
      <point x="505" y="1489" type="curve" smooth="yes"/>
      <point x="431" y="1489" type="line"/>
      <point x="431" y="1097" type="line"/>
    </contour>
  </outline>
</glyph>
<glyph name="C" format="1">
  <advance width="993"/>
  <unicode hex="0043"/>
  <outline>
    <contour>
      <point x="937" y="686" type="line"/>
      <point x="937" y="385" type="line"/>
      <point x="937" y="177"/>
      <point x="701" y="-18"/>
      <point x="489" y="-18" type="qcurve"/>
      <point x="301" y="-18"/>
      <point x="65" y="197"/>
      <point x="65" y="395" type="qcurve"/>
      <point x="65" y="1134" type="line"/>
      <point x="65" y="1371"/>
      <point x="274" y="1606"/>
      <point x="497" y="1606" type="qcurve"/>
      <point x="588" y="1606"/>
      <point x="742" y="1561"/>
      <point x="861" y="1473"/>
      <point x="929" y="1330"/>
      <point x="929" y="1237" type="qcurve"/>
      <point x="929" y="956" type="line"/>
      <point x="581" y="956" type="line"/>
      <point x="581" y="1141" type="line"/>
      <point x="581" y="1284"/>
      <point x="497" y="1284" type="qcurve"/>
      <point x="447" y="1284"/>
      <point x="415" y="1221"/>
      <point x="415" y="1165" type="qcurve"/>
      <point x="415" y="412" type="line"/>
      <point x="415" y="363"/>
      <point x="460" y="291"/>
      <point x="497" y="291" type="qcurve"/>
      <point x="531" y="291"/>
      <point x="581" y="344"/>
      <point x="581" y="412" type="qcurve"/>
      <point x="581" y="686" type="line"/>
    </contour>
  </outline>
</glyph>
<glyph name="C" format="1">
  <advance width="993"/>
  <unicode hex="0043"/>
  <outline>
    <contour>
      <point x="497" y="321" type="curve" smooth="yes"/>
      <point x="557" y="321"/>
      <point x="581" y="375"/>
      <point x="581" y="454" type="curve" smooth="yes"/>
      <point x="581" y="758" type="line"/>
      <point x="937" y="758" type="line"/>
      <point x="937" y="425" type="line" smooth="yes"/>
      <point x="937" y="116"/>
      <point x="769" y="-21"/>
      <point x="489" y="-21" type="curve" smooth="yes"/>
      <point x="234" y="-21"/>
      <point x="65" y="151"/>
      <point x="65" y="436" type="curve" smooth="yes"/>
      <point x="65" y="1254" type="line" smooth="yes"/>
      <point x="65" y="1595"/>
      <point x="192" y="1776"/>
      <point x="497" y="1776" type="curve" smooth="yes"/>
      <point x="747" y="1776"/>
      <point x="929" y="1645"/>
      <point x="929" y="1368" type="curve" smooth="yes"/>
      <point x="929" y="1058" type="line"/>
      <point x="581" y="1058" type="line"/>
      <point x="581" y="1261" type="line" smooth="yes"/>
      <point x="581" y="1366"/>
      <point x="553" y="1421"/>
      <point x="497" y="1421" type="curve" smooth="yes"/>
      <point x="427" y="1421"/>
      <point x="415" y="1367"/>
      <point x="415" y="1289" type="curve" smooth="yes"/>
      <point x="415" y="454" type="line" smooth="yes"/>
      <point x="415" y="390"/>
      <point x="443" y="321"/>
    </contour>
  </outline>
</glyph>
<glyph name="D" format="1">
  <advance width="1020"/>
  <unicode hex="0044"/>
  <outline>
    <contour>
      <point x="87" y="0" type="line"/>
      <point x="87" y="1593" type="line"/>
      <point x="572" y="1593" type="line"/>
      <point x="769" y="1593"/>
      <point x="950" y="1392"/>
      <point x="951" y="1217" type="qcurve"/>
      <point x="951" y="1217"/>
      <point x="955" y="473" type="qcurve"/>
      <point x="955" y="234"/>
      <point x="768" y="0"/>
      <point x="560" y="0" type="qcurve"/>
    </contour>
    <contour>
      <point x="441" y="1311" type="qcurve"/>
      <point x="441" y="291" type="line"/>
      <point x="444" y="292"/>
      <point x="453" y="292" type="qcurve"/>
      <point x="459" y="292"/>
      <point x="492" y="290"/>
      <point x="502" y="290" type="qcurve"/>
      <point x="603" y="290"/>
      <point x="603" y="375" type="qcurve"/>
      <point x="603" y="1161" type="line"/>
      <point x="603" y="1248"/>
      <point x="548" y="1313"/>
      <point x="480" y="1313" type="qcurve"/>
      <point x="469" y="1313"/>
    </contour>
  </outline>
</glyph>
<glyph name="D" format="1">
  <advance width="1020"/>
  <unicode hex="0044"/>
  <outline>
    <contour>
      <point x="955" y="522" type="line"/>
      <point x="955" y="189"/>
      <point x="852" y="0"/>
      <point x="560" y="0" type="curve" smooth="yes"/>
      <point x="87" y="0" type="line"/>
      <point x="87" y="1761" type="line"/>
      <point x="572" y="1761" type="line" smooth="yes"/>
      <point x="825" y="1761"/>
      <point x="950" y="1617"/>
      <point x="951" y="1347" type="curve" smooth="yes"/>
    </contour>
    <contour>
      <point x="603" y="1285" type="line" smooth="yes"/>
      <point x="603" y="1402"/>
      <point x="580" y="1452"/>
      <point x="480" y="1452" type="curve" smooth="yes"/>
      <point x="473" y="1452"/>
      <point x="460" y="1450"/>
      <point x="441" y="1449" type="curve"/>
      <point x="441" y="321" type="line"/>
      <point x="443" y="322"/>
      <point x="447" y="322"/>
      <point x="453" y="322" type="curve" smooth="yes"/>
      <point x="462" y="322"/>
      <point x="493" y="320"/>
      <point x="502" y="320" type="curve" smooth="yes"/>
      <point x="569" y="320"/>
      <point x="603" y="351"/>
      <point x="603" y="414" type="curve" smooth="yes"/>
    </contour>
  </outline>
</glyph>
<glyph name="E" format="1">
  <advance width="862"/>
  <unicode hex="0045"/>
  <outline>
    <contour>
      <point x="87" y="0" type="line"/>
      <point x="87" y="1593" type="line"/>
      <point x="791" y="1593" type="line"/>
      <point x="791" y="1284" type="line"/>
      <point x="445" y="1284" type="line"/>
      <point x="445" y="973" type="line"/>
      <point x="777" y="973" type="line"/>
      <point x="777" y="674" type="line"/>
      <point x="445" y="674" type="line"/>
      <point x="445" y="311" type="line"/>
      <point x="814" y="311" type="line"/>
      <point x="814" y="0" type="line"/>
    </contour>
  </outline>
</glyph>
<glyph name="E" format="1">
  <advance width="862"/>
  <unicode hex="0045"/>
  <outline>
    <contour>
      <point x="87" y="0" type="line"/>
      <point x="87" y="1761" type="line"/>
      <point x="791" y="1761" type="line"/>
      <point x="791" y="1421" type="line"/>
      <point x="445" y="1421" type="line"/>
      <point x="445" y="1077" type="line"/>
      <point x="777" y="1077" type="line"/>
      <point x="777" y="746" type="line"/>
      <point x="445" y="746" type="line"/>
      <point x="445" y="343" type="line"/>
      <point x="814" y="343" type="line"/>
      <point x="814" y="0" type="line"/>
    </contour>
  </outline>
</glyph>
<glyph name="F" format="1">
  <advance width="801"/>
  <unicode hex="0046"/>
  <outline>
    <contour>
      <point x="416" y="798" type="line"/>
      <point x="416" y="0" type="line"/>
      <point x="62" y="0" type="line"/>
      <point x="62" y="1761" type="line"/>
      <point x="766" y="1761" type="line"/>
      <point x="766" y="1418" type="line"/>
      <point x="416" y="1418" type="line"/>
      <point x="416" y="1137" type="line"/>
      <point x="748" y="1137" type="line"/>
      <point x="748" y="798" type="line"/>
    </contour>
  </outline>
</glyph>
<glyph name="F" format="1">
  <advance width="824"/>
  <unicode hex="0046"/>
  <outline>
    <contour>
      <point x="87" y="0" type="line"/>
      <point x="87" y="1761" type="line"/>
      <point x="791" y="1761" type="line"/>
      <point x="791" y="1418" type="line"/>
      <point x="441" y="1418" type="line"/>
      <point x="441" y="1137" type="line"/>
      <point x="773" y="1137" type="line"/>
      <point x="773" y="798" type="line"/>
      <point x="441" y="798" type="line"/>
      <point x="441" y="0" type="line"/>
    </contour>
  </outline>
</glyph>
<glyph name="G" format="1">
  <advance width="1003"/>
  <unicode hex="0047"/>
  <outline>
    <contour>
      <point x="796" y="0" type="line"/>
      <point x="736" y="135" type="line"/>
      <point x="642" y="-18"/>
      <point x="446" y="-18" type="qcurve"/>
      <point x="65" y="-18"/>
      <point x="65" y="475" type="qcurve"/>
      <point x="65" y="1165" type="line"/>
      <point x="65" y="1278"/>
      <point x="125" y="1446"/>
      <point x="212" y="1537"/>
      <point x="338" y="1591"/>
      <point x="441" y="1606"/>
      <point x="501" y="1606" type="qcurve"/>
      <point x="575" y="1606"/>
      <point x="695" y="1585"/>
      <point x="782" y="1541"/>
      <point x="848" y="1486"/>
      <point x="891" y="1405"/>
      <point x="918" y="1326"/>
      <point x="932" y="1215"/>
      <point x="937" y="1119"/>
      <point x="937" y="1054" type="qcurve"/>
      <point x="601" y="1054" type="line"/>
      <point x="601" y="1180" type="line"/>
      <point x="601" y="1218"/>
      <point x="585" y="1268"/>
      <point x="556" y="1289"/>
      <point x="532" y="1296"/>
      <point x="517" y="1296" type="qcurve"/>
      <point x="487" y="1296"/>
      <point x="450" y="1280"/>
      <point x="429" y="1256"/>
      <point x="419" y="1193"/>
      <point x="417" y="1137"/>
      <point x="417" y="1077" type="qcurve"/>
      <point x="417" y="461" type="line"/>
      <point x="417" y="426"/>
      <point x="422" y="378"/>
      <point x="440" y="322"/>
      <point x="481" y="293"/>
      <point x="513" y="293" type="qcurve"/>
      <point x="566" y="293"/>
      <point x="601" y="376"/>
      <point x="601" y="469" type="qcurve"/>
      <point x="601" y="653" type="line"/>
      <point x="507" y="653" type="line"/>
      <point x="507" y="928" type="line"/>
      <point x="933" y="928" type="line"/>
      <point x="933" y="0" type="line"/>
    </contour>
  </outline>
</glyph>
<glyph name="G" format="1">
  <advance width="1003"/>
  <unicode hex="0047"/>
  <outline>
    <contour>
      <point x="513" y="323" type="curve" smooth="yes"/>
      <point x="597" y="323"/>
      <point x="601" y="409"/>
      <point x="601" y="517" type="curve" smooth="yes"/>
      <point x="601" y="721" type="line"/>
      <point x="507" y="721" type="line"/>
      <point x="507" y="1025" type="line"/>
      <point x="933" y="1025" type="line"/>
      <point x="933" y="0" type="line"/>
      <point x="796" y="0" type="line"/>
      <point x="736" y="148" type="line"/>
      <point x="673" y="36"/>
      <point x="577" y="-21"/>
      <point x="446" y="-21" type="curve" smooth="yes"/>
      <point x="192" y="-21"/>
      <point x="65" y="161"/>
      <point x="65" y="524" type="curve" smooth="yes"/>
      <point x="65" y="1289" type="line" smooth="yes"/>
      <point x="65" y="1614"/>
      <point x="213" y="1776"/>
      <point x="501" y="1776" type="curve" smooth="yes"/>
      <point x="856" y="1776"/>
      <point x="937" y="1561"/>
      <point x="937" y="1168" type="curve"/>
      <point x="601" y="1168" type="line"/>
      <point x="601" y="1305" type="line" smooth="yes"/>
      <point x="601" y="1381"/>
      <point x="582" y="1433"/>
      <point x="517" y="1433" type="curve" smooth="yes"/>
      <point x="404" y="1433"/>
      <point x="417" y="1319"/>
      <point x="417" y="1191" type="curve" smooth="yes"/>
      <point x="417" y="509" type="line" smooth="yes"/>
      <point x="417" y="414"/>
      <point x="427" y="323"/>
    </contour>
  </outline>
</glyph>
<glyph name="H" format="1">
  <advance width="1040"/>
  <unicode hex="0048"/>
  <outline>
    <contour>
      <point x="437" y="723" type="line"/>
      <point x="437" y="0" type="line"/>
      <point x="87" y="0" type="line"/>
      <point x="87" y="1593" type="line"/>
      <point x="437" y="1593" type="line"/>
      <point x="437" y="1024" type="line"/>
      <point x="603" y="1024" type="line"/>
      <point x="603" y="1593" type="line"/>
      <point x="953" y="1593" type="line"/>
      <point x="953" y="0" type="line"/>
      <point x="603" y="0" type="line"/>
      <point x="603" y="723" type="line"/>
    </contour>
  </outline>
</glyph>
<glyph name="H" format="1">
  <advance width="1040"/>
  <unicode hex="0048"/>
  <outline>
    <contour>
      <point x="437" y="798" type="line"/>
      <point x="437" y="0" type="line"/>
      <point x="87" y="0" type="line"/>
      <point x="87" y="1761" type="line"/>
      <point x="437" y="1761" type="line"/>
      <point x="437" y="1131" type="line"/>
      <point x="603" y="1131" type="line"/>
      <point x="603" y="1761" type="line"/>
      <point x="953" y="1761" type="line"/>
      <point x="953" y="0" type="line"/>
      <point x="603" y="0" type="line"/>
      <point x="603" y="798" type="line"/>
    </contour>
  </outline>
</glyph>
<glyph name="I" format="1">
  <advance width="464"/>
  <unicode hex="0049"/>
  <outline>
    <contour>
      <point x="402" y="1761" type="line"/>
      <point x="402" y="0" type="line"/>
      <point x="62" y="0" type="line"/>
      <point x="62" y="1761" type="line"/>
    </contour>
  </outline>
</glyph>
<glyph name="I" format="1">
  <advance width="514"/>
  <unicode hex="0049"/>
  <outline>
    <contour>
      <point x="87" y="0" type="line"/>
      <point x="87" y="1761" type="line"/>
      <point x="427" y="1761" type="line"/>
      <point x="427" y="0" type="line"/>
    </contour>
  </outline>
</glyph>
<glyph name="J" format="1">
  <advance width="965"/>
  <unicode hex="004A"/>
  <outline>
    <contour>
      <point x="454" y="-18" type="qcurve"/>
      <point x="370" y="-18"/>
      <point x="217" y="30"/>
      <point x="96" y="120"/>
      <point x="24" y="264"/>
      <point x="24" y="352" type="qcurve"/>
      <point x="24" y="752" type="line"/>
      <point x="372" y="752" type="line"/>
      <point x="372" y="403" type="line"/>
      <point x="372" y="360"/>
      <point x="410" y="305"/>
      <point x="450" y="305" type="qcurve"/>
      <point x="530" y="305"/>
      <point x="530" y="444" type="qcurve"/>
      <point x="530" y="455"/>
      <point x="529" y="490"/>
      <point x="529" y="496" type="qcurve"/>
      <point x="529" y="1593" type="line"/>
      <point x="884" y="1593" type="line"/>
      <point x="884" y="399" type="line"/>
      <point x="884" y="207"/>
      <point x="642" y="-18"/>
    </contour>
  </outline>
</glyph>
<glyph name="J" format="1">
  <advance width="965"/>
  <unicode hex="004A"/>
  <outline>
    <contour>
      <point x="884" y="440" type="line" smooth="yes"/>
      <point x="884" y="160"/>
      <point x="705" y="-21"/>
      <point x="454" y="-21" type="curve" smooth="yes"/>
      <point x="215" y="-21"/>
      <point x="24" y="124"/>
      <point x="24" y="389" type="curve" smooth="yes"/>
      <point x="24" y="830" type="line"/>
      <point x="372" y="830" type="line"/>
      <point x="372" y="444" type="line" smooth="yes"/>
      <point x="372" y="382"/>
      <point x="395" y="336"/>
      <point x="450" y="336" type="curve" smooth="yes"/>
      <point x="503" y="336"/>
      <point x="530" y="388"/>
      <point x="530" y="490" type="curve" smooth="yes"/>
      <point x="530" y="500"/>
      <point x="529" y="537"/>
      <point x="529" y="547" type="curve" smooth="yes"/>
      <point x="529" y="1761" type="line"/>
      <point x="884" y="1761" type="line"/>
    </contour>
  </outline>
</glyph>
<glyph name="K" format="1">
  <advance width="982"/>
  <unicode hex="004B"/>
  <outline>
    <contour>
      <point x="599" y="1593" type="line"/>
      <point x="953" y="1593" type="line"/>
      <point x="756" y="864" type="line"/>
      <point x="994" y="0" type="line"/>
      <point x="629" y="0" type="line"/>
      <point x="437" y="772" type="line"/>
      <point x="437" y="0" type="line"/>
      <point x="87" y="0" type="line"/>
      <point x="87" y="1593" type="line"/>
      <point x="435" y="1593" type="line"/>
      <point x="435" y="956" type="line"/>
    </contour>
  </outline>
</glyph>
<glyph name="K" format="1">
  <advance width="991"/>
  <unicode hex="004B"/>
  <outline>
    <contour>
      <point x="410" y="1761" type="line"/>
      <point x="410" y="1055" type="line"/>
      <point x="574" y="1761" type="line"/>
      <point x="928" y="1761" type="line"/>
      <point x="731" y="954" type="line"/>
      <point x="969" y="0" type="line"/>
      <point x="604" y="0" type="line"/>
      <point x="412" y="852" type="line"/>
      <point x="412" y="0" type="line"/>
      <point x="62" y="0" type="line"/>
      <point x="62" y="1761" type="line"/>
    </contour>
  </outline>
</glyph>
<glyph name="L" format="1">
  <advance width="809"/>
  <unicode hex="004C"/>
  <outline>
    <contour>
      <point x="87" y="0" type="line"/>
      <point x="87" y="1593" type="line"/>
      <point x="439" y="1593" type="line"/>
      <point x="439" y="311" type="line"/>
      <point x="801" y="311" type="line"/>
      <point x="801" y="0" type="line"/>
    </contour>
  </outline>
</glyph>
<glyph name="L" format="1">
  <advance width="798"/>
  <unicode hex="004C"/>
  <outline>
    <contour>
      <point x="776" y="300" type="line"/>
      <point x="776" y="0" type="line"/>
      <point x="62" y="0" type="line"/>
      <point x="62" y="1761" type="line"/>
      <point x="414" y="1761" type="line"/>
      <point x="414" y="300" type="line"/>
    </contour>
  </outline>
</glyph>
<glyph name="M" format="1">
  <advance width="1546"/>
  <unicode hex="004D"/>
  <outline>
    <contour>
      <point x="935" y="0" type="line"/>
      <point x="619" y="0" type="line"/>
      <point x="425" y="1149" type="line"/>
      <point x="425" y="0" type="line"/>
      <point x="87" y="0" type="line"/>
      <point x="87" y="1593" type="line"/>
      <point x="623" y="1593" type="line"/>
      <point x="771" y="762" type="line"/>
      <point x="918" y="1593" type="line"/>
      <point x="1459" y="1593" type="line"/>
      <point x="1459" y="0" type="line"/>
      <point x="1117" y="0" type="line"/>
      <point x="1117" y="1149" type="line"/>
    </contour>
  </outline>
</glyph>
<glyph name="M" format="1">
  <advance width="1546"/>
  <unicode hex="004D"/>
  <outline>
    <contour>
      <point x="935" y="0" type="line"/>
      <point x="619" y="0" type="line"/>
      <point x="405" y="1268" type="line"/>
      <point x="405" y="0" type="line"/>
      <point x="87" y="0" type="line"/>
      <point x="87" y="1761" type="line"/>
      <point x="623" y="1761" type="line"/>
      <point x="771" y="687" type="line"/>
      <point x="918" y="1761" type="line"/>
      <point x="1459" y="1761" type="line"/>
      <point x="1459" y="0" type="line"/>
      <point x="1137" y="0" type="line"/>
      <point x="1137" y="1268" type="line"/>
    </contour>
  </outline>
</glyph>
<glyph name="N" format="1">
  <advance width="1038"/>
  <unicode hex="004E"/>
  <outline>
    <contour>
      <point x="951" y="1593" type="line"/>
      <point x="951" y="0" type="line"/>
      <point x="607" y="0" type="line"/>
      <point x="431" y="797" type="line"/>
      <point x="431" y="0" type="line"/>
      <point x="87" y="0" type="line"/>
      <point x="87" y="1593" type="line"/>
      <point x="449" y="1593" type="line"/>
      <point x="611" y="831" type="line"/>
      <point x="611" y="1593" type="line"/>
    </contour>
  </outline>
</glyph>
<glyph name="N" format="1">
  <advance width="1038"/>
  <unicode hex="004E"/>
  <outline>
    <contour>
      <point x="951" y="1761" type="line"/>
      <point x="951" y="0" type="line"/>
      <point x="607" y="0" type="line"/>
      <point x="431" y="880" type="line"/>
      <point x="431" y="0" type="line"/>
      <point x="87" y="0" type="line"/>
      <point x="87" y="1761" type="line"/>
      <point x="449" y="1761" type="line"/>
      <point x="611" y="917" type="line"/>
      <point x="611" y="1761" type="line"/>
    </contour>
  </outline>
</glyph>
<glyph name="O" format="1">
  <advance width="1000"/>
  <unicode hex="004F"/>
  <outline>
    <contour>
      <point x="500" y="-21" type="curve" smooth="yes"/>
      <point x="212" y="-21"/>
      <point x="66" y="162"/>
      <point x="66" y="475" type="curve" smooth="yes"/>
      <point x="66" y="1316" type="line" smooth="yes"/>
      <point x="66" y="1619"/>
      <point x="218" y="1777"/>
      <point x="500" y="1777" type="curve" smooth="yes"/>
      <point x="782" y="1777"/>
      <point x="934" y="1619"/>
      <point x="934" y="1316" type="curve" smooth="yes"/>
      <point x="934" y="475" type="line" smooth="yes"/>
      <point x="934" y="162"/>
      <point x="788" y="-21"/>
    </contour>
    <contour>
      <point x="414" y="526" type="line" smooth="yes"/>
      <point x="414" y="434"/>
      <point x="418" y="327"/>
      <point x="500" y="327" type="curve" smooth="yes"/>
      <point x="577" y="327"/>
      <point x="580" y="428"/>
      <point x="580" y="513" type="curve" smooth="yes"/>
      <point x="580" y="1230" type="line" smooth="yes"/>
      <point x="580" y="1325"/>
      <point x="587" y="1432"/>
      <point x="500" y="1432" type="curve" smooth="yes"/>
      <point x="432" y="1432"/>
      <point x="414" y="1364"/>
      <point x="414" y="1289" type="curve" smooth="yes"/>
    </contour>
  </outline>
</glyph>
<glyph name="P" format="1">
  <advance width="960"/>
  <unicode hex="0050"/>
  <outline>
    <contour>
      <point x="87" y="0" type="line"/>
      <point x="87" y="1593" type="line"/>
      <point x="552" y="1593" type="line"/>
      <point x="644" y="1593"/>
      <point x="782" y="1545"/>
      <point x="888" y="1437"/>
      <point x="943" y="1246"/>
      <point x="943" y="1110" type="qcurve"/>
      <point x="943" y="993"/>
      <point x="910" y="826"/>
      <point x="830" y="696"/>
      <point x="683" y="631"/>
      <point x="576" y="631" type="qcurve"/>
      <point x="433" y="631" type="line"/>
      <point x="433" y="0" type="line"/>
    </contour>
    <contour>
      <point x="433" y="1303" type="line"/>
      <point x="433" y="918" type="line"/>
      <point x="453" y="918" type="line"/>
      <point x="481" y="918"/>
      <point x="510" y="921"/>
      <point x="549" y="932"/>
      <point x="568" y="957"/>
      <point x="588" y="1000"/>
      <point x="595" y="1068"/>
      <point x="595" y="1116" type="qcurve"/>
      <point x="595" y="1221"/>
      <point x="540" y="1303"/>
      <point x="472" y="1303" type="qcurve"/>
    </contour>
  </outline>
</glyph>
<glyph name="P" format="1">
  <advance width="960"/>
  <unicode hex="0050"/>
  <outline>
    <contour>
      <point x="943" y="1224" type="curve" smooth="yes"/>
      <point x="943" y="903"/>
      <point x="868" y="697"/>
      <point x="576" y="697" type="curve" smooth="yes"/>
      <point x="433" y="697" type="line"/>
      <point x="433" y="0" type="line"/>
      <point x="87" y="0" type="line"/>
      <point x="87" y="1761" type="line"/>
      <point x="552" y="1761" type="line" smooth="yes"/>
      <point x="844" y="1761"/>
      <point x="943" y="1556.86"/>
    </contour>
    <contour>
      <point x="595" y="1230" type="curve" smooth="yes"/>
      <point x="595" y="1363.91"/>
      <point x="578" y="1440"/>
      <point x="472" y="1440" type="curve" smooth="yes"/>
      <point x="433" y="1440" type="line"/>
      <point x="433" y="1013" type="line"/>
      <point x="453" y="1013" type="line" smooth="yes"/>
      <point x="583" y="1013"/>
      <point x="595" y="1087"/>
    </contour>
  </outline>
</glyph>
<glyph name="Q" format="1">
  <advance width="1001"/>
  <unicode hex="0051"/>
  <outline>
    <contour>
      <point x="500" y="-18" type="qcurve"/>
      <point x="386" y="-18"/>
      <point x="216" y="46"/>
      <point x="115" y="165"/>
      <point x="66" y="321"/>
      <point x="66" y="418" type="qcurve"/>
      <point x="66" y="1186" type="line"/>
      <point x="66" y="1385"/>
      <point x="282" y="1606"/>
      <point x="718" y="1606"/>
      <point x="934" y="1385"/>
      <point x="934" y="1186" type="qcurve"/>
      <point x="934" y="418" type="line"/>
      <point x="934" y="222"/>
      <point x="836" y="109" type="qcurve"/>
      <point x="987" y="20" type="line"/>
      <point x="868" y="-170" type="line"/>
      <point x="588" y="-8" type="line"/>
      <point x="520" y="-18"/>
    </contour>
    <contour>
      <point x="500" y="299" type="qcurve"/>
      <point x="544" y="299"/>
      <point x="563" y="341" type="qcurve"/>
      <point x="580" y="377"/>
      <point x="580" y="475" type="qcurve"/>
      <point x="580" y="1110" type="line"/>
      <point x="580" y="1113"/>
      <point x="580" y="1154"/>
      <point x="580" y="1167"/>
      <point x="578" y="1206"/>
      <point x="573" y="1223"/>
      <point x="566" y="1253"/>
      <point x="553" y="1268"/>
      <point x="537" y="1285"/>
      <point x="513" y="1292"/>
      <point x="483" y="1292"/>
      <point x="458" y="1285"/>
      <point x="441" y="1268"/>
      <point x="428" y="1252"/>
      <point x="421" y="1223"/>
      <point x="416" y="1205"/>
      <point x="414" y="1169"/>
      <point x="414" y="1154"/>
      <point x="414" y="1117"/>
      <point x="414" y="1114" type="qcurve"/>
      <point x="414" y="479" type="line"/>
      <point x="414" y="457"/>
      <point x="415" y="431"/>
      <point x="419" y="381"/>
      <point x="430" y="350"/>
      <point x="448" y="316"/>
      <point x="479" y="299"/>
    </contour>
  </outline>
</glyph>
<glyph name="Q" format="1">
  <advance width="1001"/>
  <unicode hex="0051"/>
  <outline>
    <contour>
      <point x="500" y="1776" type="curve" smooth="yes"/>
      <point x="781" y="1776"/>
      <point x="934" y="1616"/>
      <point x="934" y="1313" type="curve" smooth="yes"/>
      <point x="934" y="462" type="line" smooth="yes"/>
      <point x="934" y="318"/>
      <point x="901" y="202"/>
      <point x="836" y="119" type="curve"/>
      <point x="987" y="23" type="line"/>
      <point x="868" y="-187" type="line"/>
      <point x="588" y="-8" type="line"/>
      <point x="543" y="-15"/>
      <point x="513" y="-21"/>
      <point x="500" y="-21" type="curve" smooth="yes"/>
      <point x="214" y="-21"/>
      <point x="66" y="150"/>
      <point x="66" y="462" type="curve" smooth="yes"/>
      <point x="66" y="1313" type="line" smooth="yes"/>
      <point x="66" y="1616"/>
      <point x="219" y="1776"/>
    </contour>
    <contour>
      <point x="414" y="528" type="line" smooth="yes"/>
      <point x="414" y="436"/>
      <point x="418" y="330"/>
      <point x="500" y="330" type="curve" smooth="yes"/>
      <point x="575" y="330"/>
      <point x="580" y="417"/>
      <point x="580" y="524" type="curve" smooth="yes"/>
      <point x="580" y="1284" type="line" smooth="yes"/>
      <point x="580" y="1359"/>
      <point x="566" y="1429"/>
      <point x="498" y="1429" type="curve" smooth="yes"/>
      <point x="429" y="1429"/>
      <point x="414" y="1361"/>
      <point x="414" y="1285" type="curve" smooth="yes"/>
    </contour>
  </outline>
</glyph>
<glyph name="R" format="1">
  <advance width="972"/>
  <unicode hex="0052"/>
  <outline>
    <contour>
      <point x="748" y="918" type="curve"/>
      <point x="858" y="895"/>
      <point x="899" y="805"/>
      <point x="899" y="666" type="curve" smooth="yes"/>
      <point x="899" y="375"/>
      <point x="898" y="151"/>
      <point x="895" y="0" type="curve"/>
      <point x="551" y="0" type="line"/>
      <point x="551" y="689" type="line" smooth="yes"/>
      <point x="551" y="792"/>
      <point x="511" y="803"/>
      <point x="418" y="803" type="curve"/>
      <point x="418" y="0" type="line"/>
      <point x="62" y="0" type="line"/>
      <point x="62" y="1761" type="line"/>
      <point x="602" y="1761" type="line" smooth="yes"/>
      <point x="872" y="1761"/>
      <point x="922" y="1565"/>
      <point x="922" y="1268" type="curve" smooth="yes"/>
      <point x="922" y="1076"/>
      <point x="882" y="962"/>
    </contour>
    <contour>
      <point x="578" y="1268" type="curve" smooth="yes"/>
      <point x="578" y="1405"/>
      <point x="558" y="1435"/>
      <point x="439" y="1435" type="curve" smooth="yes"/>
      <point x="420" y="1435" type="line"/>
      <point x="420" y="1108" type="line"/>
      <point x="508" y="1108" type="line" smooth="yes"/>
      <point x="555" y="1108"/>
      <point x="578" y="1161"/>
    </contour>
  </outline>
</glyph>
<glyph name="R" format="1">
  <advance width="997"/>
  <unicode hex="0052"/>
  <outline>
    <contour>
      <point x="773" y="918" type="curve"/>
      <point x="883" y="895"/>
      <point x="924" y="805"/>
      <point x="924" y="666" type="curve" smooth="yes"/>
      <point x="924" y="374.688"/>
      <point x="923" y="150.679"/>
      <point x="920" y="0" type="curve"/>
      <point x="576" y="0" type="line"/>
      <point x="576" y="689" type="line" smooth="yes"/>
      <point x="576" y="792"/>
      <point x="536" y="803"/>
      <point x="443" y="803" type="curve"/>
      <point x="443" y="0" type="line"/>
      <point x="87" y="0" type="line"/>
      <point x="87" y="1761" type="line"/>
      <point x="627" y="1761" type="line" smooth="yes"/>
      <point x="897" y="1761"/>
      <point x="947" y="1565"/>
      <point x="947" y="1268" type="curve" smooth="yes"/>
      <point x="947" y="1076"/>
      <point x="907" y="962"/>
    </contour>
    <contour>
      <point x="603" y="1268" type="curve" smooth="yes"/>
      <point x="603" y="1405"/>
      <point x="583" y="1435"/>
      <point x="464" y="1435" type="curve" smooth="yes"/>
      <point x="445" y="1435" type="line"/>
      <point x="445" y="1108" type="line"/>
      <point x="533" y="1108" type="line" smooth="yes"/>
      <point x="580" y="1108"/>
      <point x="603" y="1161"/>
    </contour>
  </outline>
</glyph>
<glyph name="S" format="1">
  <advance width="951"/>
  <unicode hex="0053"/>
  <outline>
    <contour>
      <point x="502" y="-18" type="qcurve"/>
      <point x="257" y="-18"/>
      <point x="48" y="206"/>
      <point x="48" y="440" type="qcurve"/>
      <point x="48" y="596" type="line"/>
      <point x="396" y="596" type="line"/>
      <point x="396" y="453" type="line"/>
      <point x="396" y="299"/>
      <point x="480" y="299" type="qcurve"/>
      <point x="519" y="299"/>
      <point x="564" y="359"/>
      <point x="564" y="408" type="qcurve"/>
      <point x="564" y="472"/>
      <point x="529" y="560"/>
      <point x="458" y="639"/>
      <point x="377" y="709" type="qcurve"/>
      <point x="228" y="838" type="line"/>
      <point x="48" y="993"/>
      <point x="48" y="1188" type="qcurve"/>
      <point x="48" y="1400"/>
      <point x="265" y="1607"/>
      <point x="455" y="1607" type="qcurve"/>
      <point x="460" y="1607"/>
      <point x="468" y="1607"/>
      <point x="472" y="1607" type="qcurve"/>
      <point x="566" y="1607"/>
      <point x="642" y="1585" type="qcurve"/>
      <point x="720" y="1562"/>
      <point x="840" y="1457"/>
      <point x="900" y="1270"/>
      <point x="900" y="1135" type="qcurve"/>
      <point x="543" y="1135" type="line"/>
      <point x="541" y="1231" type="line"/>
      <point x="540" y="1258"/>
      <point x="496" y="1300"/>
      <point x="469" y="1300" type="qcurve"/>
      <point x="434" y="1300"/>
      <point x="385" y="1257"/>
      <point x="385" y="1223" type="qcurve"/>
      <point x="385" y="1155"/>
      <point x="484" y="1075" type="qcurve"/>
      <point x="697" y="903" type="line"/>
      <point x="749" y="861"/>
      <point x="826" y="774"/>
      <point x="871" y="689"/>
      <point x="899" y="620"/>
      <point x="910" y="539"/>
      <point x="912" y="498"/>
      <point x="912" y="465" type="qcurve"/>
      <point x="912" y="381"/>
      <point x="890" y="244"/>
      <point x="834" y="117"/>
      <point x="743" y="32"/>
      <point x="598" y="-18"/>
    </contour>
  </outline>
</glyph>
<glyph name="S" format="1">
  <advance width="951"/>
  <unicode hex="0053"/>
  <outline>
    <contour>
      <point x="912" y="513" type="curve" smooth="yes"/>
      <point x="912" y="182"/>
      <point x="804" y="-21"/>
      <point x="502" y="-21" type="curve" smooth="yes"/>
      <point x="180" y="-21"/>
      <point x="48" y="136"/>
      <point x="48" y="486" type="curve" smooth="yes"/>
      <point x="48" y="658" type="line"/>
      <point x="396" y="658" type="line"/>
      <point x="396" y="500" type="line" smooth="yes"/>
      <point x="396" y="387"/>
      <point x="424" y="330"/>
      <point x="480" y="330" type="curve" smooth="yes"/>
      <point x="536" y="330"/>
      <point x="564" y="384"/>
      <point x="564" y="450" type="curve" smooth="yes"/>
      <point x="564" y="632"/>
      <point x="478.371" y="684.35"/>
      <point x="377" y="783" type="curve" smooth="yes"/>
      <point x="228" y="928" type="line"/>
      <point x="108" y="1041"/>
      <point x="48" y="1172"/>
      <point x="48" y="1315" type="curve" smooth="yes"/>
      <point x="48" y="1615"/>
      <point x="191" y="1777"/>
      <point x="455" y="1777" type="curve" smooth="yes"/>
      <point x="472" y="1777" type="line" smooth="yes"/>
      <point x="776" y="1777"/>
      <point x="900" y="1597"/>
      <point x="900" y="1255" type="curve"/>
      <point x="543" y="1255" type="line"/>
      <point x="541" y="1361" type="line" smooth="yes"/>
      <point x="540" y="1399"/>
      <point x="505" y="1437"/>
      <point x="469" y="1437" type="curve" smooth="yes"/>
      <point x="423" y="1437"/>
      <point x="385" y="1402"/>
      <point x="385" y="1353" type="curve" smooth="yes"/>
      <point x="385" y="1304"/>
      <point x="418" y="1249"/>
      <point x="484" y="1189" type="curve"/>
      <point x="697" y="1000" type="line" smooth="yes"/>
      <point x="823" y="888.312"/>
      <point x="912" y="757.506"/>
    </contour>
  </outline>
</glyph>
<glyph name="T" format="1">
  <advance width="811"/>
  <unicode hex="0054"/>
  <outline>
    <contour>
      <point x="20" y="1593" type="line"/>
      <point x="790" y="1593" type="line"/>
      <point x="790" y="1286" type="line"/>
      <point x="581" y="1286" type="line"/>
      <point x="581" y="0" type="line"/>
      <point x="229" y="0" type="line"/>
      <point x="229" y="1286" type="line"/>
      <point x="20" y="1286" type="line"/>
    </contour>
  </outline>
</glyph>
<glyph name="T" format="1">
  <advance width="811"/>
  <unicode hex="0054"/>
  <outline>
    <contour>
      <point x="20" y="1761" type="line"/>
      <point x="790" y="1761" type="line"/>
      <point x="790" y="1423" type="line"/>
      <point x="581" y="1423" type="line"/>
      <point x="581" y="0" type="line"/>
      <point x="229" y="0" type="line"/>
      <point x="229" y="1423" type="line"/>
      <point x="20" y="1423" type="line"/>
    </contour>
  </outline>
</glyph>
<glyph name="U" format="1">
  <advance width="1020"/>
  <unicode hex="0055"/>
  <outline>
    <contour>
      <point x="510" y="-21" type="curve" smooth="yes"/>
      <point x="217" y="-21"/>
      <point x="82" y="146"/>
      <point x="82" y="466" type="curve" smooth="yes"/>
      <point x="82" y="1761" type="line"/>
      <point x="424" y="1761" type="line"/>
      <point x="424" y="492" type="line" smooth="yes"/>
      <point x="424" y="404"/>
      <point x="430" y="315"/>
      <point x="510" y="315" type="curve" smooth="yes"/>
      <point x="591" y="315"/>
      <point x="596" y="403"/>
      <point x="596" y="492" type="curve" smooth="yes"/>
      <point x="596" y="1761" type="line"/>
      <point x="938" y="1761" type="line"/>
      <point x="938" y="466" type="line" smooth="yes"/>
      <point x="938" y="146"/>
      <point x="803" y="-21"/>
    </contour>
  </outline>
</glyph>
<glyph name="V" format="1">
  <advance width="932"/>
  <unicode hex="0056"/>
  <outline>
    <contour>
      <point x="706" y="0" type="line"/>
      <point x="226" y="0" type="line"/>
      <point x="9" y="1761" type="line"/>
      <point x="364" y="1761" type="line"/>
      <point x="463" y="593" type="line"/>
      <point x="568" y="1761" type="line"/>
      <point x="923" y="1761" type="line"/>
    </contour>
  </outline>
</glyph>
<glyph name="W" format="1">
  <advance width="1431"/>
  <unicode hex="0057"/>
  <outline>
    <contour>
      <point x="455" y="649" type="line"/>
      <point x="554" y="1761" type="line"/>
      <point x="882" y="1761" type="line"/>
      <point x="976" y="649" type="line"/>
      <point x="1070" y="1761" type="line"/>
      <point x="1418" y="1761" type="line"/>
      <point x="1226" y="0" type="line"/>
      <point x="804" y="0" type="line"/>
      <point x="716" y="847" type="line"/>
      <point x="632" y="0" type="line"/>
      <point x="203" y="0" type="line"/>
      <point x="14" y="1761" type="line"/>
      <point x="358" y="1761" type="line"/>
    </contour>
  </outline>
</glyph>
<glyph name="X" format="1">
  <advance width="952"/>
  <unicode hex="0058"/>
  <outline>
    <contour>
      <point x="477" y="623" type="line"/>
      <point x="363" y="0" type="line"/>
      <point x="6" y="0" type="line"/>
      <point x="195" y="846" type="line"/>
      <point x="45" y="1593" type="line"/>
      <point x="389" y="1593" type="line"/>
      <point x="480" y="1049" type="line"/>
      <point x="561" y="1593" type="line"/>
      <point x="906" y="1593" type="line"/>
      <point x="756" y="846" type="line"/>
      <point x="944" y="0" type="line"/>
      <point x="588" y="0" type="line"/>
    </contour>
  </outline>
</glyph>
<glyph name="X" format="1">
  <advance width="952"/>
  <unicode hex="0058"/>
  <outline>
    <contour>
      <point x="477" y="688" type="line"/>
      <point x="363" y="0" type="line"/>
      <point x="6" y="0" type="line"/>
      <point x="195" y="933" type="line"/>
      <point x="45" y="1761" type="line"/>
      <point x="389" y="1761" type="line"/>
      <point x="480" y="1156" type="line"/>
      <point x="561" y="1761" type="line"/>
      <point x="906" y="1761" type="line"/>
      <point x="756" y="933" type="line"/>
      <point x="944" y="0" type="line"/>
      <point x="588" y="0" type="line"/>
    </contour>
  </outline>
</glyph>
<glyph name="Y" format="1">
  <advance width="859"/>
  <unicode hex="0059"/>
  <outline>
    <contour>
      <point x="596" y="0" type="line"/>
      <point x="264" y="0" type="line"/>
      <point x="264" y="524" type="line"/>
      <point x="-17" y="1593" type="line"/>
      <point x="332" y="1593" type="line"/>
      <point x="430" y="1053" type="line"/>
      <point x="528" y="1593" type="line"/>
      <point x="876" y="1593" type="line"/>
      <point x="596" y="524" type="line"/>
    </contour>
  </outline>
</glyph>
<glyph name="Y" format="1">
  <advance width="859"/>
  <unicode hex="0059"/>
  <outline>
    <contour>
      <point x="596" y="0" type="line"/>
      <point x="264" y="0" type="line"/>
      <point x="264" y="579" type="line"/>
      <point x="-17" y="1761" type="line"/>
      <point x="332" y="1761" type="line"/>
      <point x="430" y="1164" type="line"/>
      <point x="528" y="1761" type="line"/>
      <point x="876" y="1761" type="line"/>
      <point x="596" y="579" type="line"/>
    </contour>
  </outline>
</glyph>
<glyph name="Z" format="1">
  <advance width="879"/>
  <unicode hex="005A"/>
  <outline>
    <contour>
      <point x="828" y="338" type="line"/>
      <point x="828" y="0" type="line"/>
      <point x="32" y="0" type="line"/>
      <point x="32" y="334" type="line"/>
      <point x="454" y="1421" type="line"/>
      <point x="71" y="1421" type="line"/>
      <point x="71" y="1761" type="line"/>
      <point x="845" y="1761" type="line"/>
      <point x="845" y="1433" type="line"/>
      <point x="415" y="338" type="line"/>
    </contour>
  </outline>
</glyph>
<glyph name="Z" format="1">
  <advance width="886"/>
  <unicode hex="005A"/>
  <outline>
    <contour>
      <point x="34" y="0" type="line"/>
      <point x="34" y="334" type="line"/>
      <point x="456" y="1421" type="line"/>
      <point x="73" y="1421" type="line"/>
      <point x="73" y="1761" type="line"/>
      <point x="847" y="1761" type="line"/>
      <point x="847" y="1433" type="line"/>
      <point x="417" y="338" type="line"/>
      <point x="830" y="338" type="line"/>
      <point x="830" y="0" type="line"/>
    </contour>
  </outline>
</glyph>
<glyph name="bracketleft" format="1">
  <advance width="699"/>
  <unicode hex="005B"/>
  <outline>
    <contour>
      <point x="448" y="1312" type="line"/>
      <point x="448" y="281" type="line"/>
      <point x="650" y="281" type="line"/>
      <point x="650" y="0" type="line"/>
      <point x="96" y="0" type="line"/>
      <point x="96" y="1593" type="line"/>
      <point x="650" y="1593" type="line"/>
      <point x="650" y="1312" type="line"/>
    </contour>
  </outline>
</glyph>
<glyph name="backslash" format="1">
  <advance width="851"/>
  <unicode hex="005C"/>
  <outline>
    <contour>
      <point x="440" y="0" type="line"/>
      <point x="29" y="1767" type="line"/>
      <point x="393" y="1767" type="line"/>
      <point x="803" y="0" type="line"/>
    </contour>
  </outline>
</glyph>
<glyph name="bracketright" format="1">
  <advance width="699"/>
  <unicode hex="005D"/>
  <outline>
    <contour>
      <point x="251" y="1312" type="line"/>
      <point x="49" y="1312" type="line"/>
      <point x="49" y="1593" type="line"/>
      <point x="603" y="1593" type="line"/>
      <point x="603" y="0" type="line"/>
      <point x="49" y="0" type="line"/>
      <point x="49" y="281" type="line"/>
      <point x="251" y="281" type="line"/>
    </contour>
  </outline>
</glyph>
<glyph name="underscore" format="1">
  <advance width="671"/>
  <unicode hex="005F"/>
  <outline>
    <contour>
      <point x="10" y="-232" type="line"/>
      <point x="10" y="0" type="line"/>
      <point x="661" y="0" type="line"/>
      <point x="661" y="-232" type="line"/>
    </contour>
  </outline>
</glyph>
<glyph name="grave" format="1">
  <advance width="650"/>
  <unicode hex="0060"/>
  <outline>
    <contour>
      <point x="526" y="1553" type="line"/>
      <point x="51" y="1647" type="line"/>
      <point x="51" y="1994" type="line"/>
      <point x="526" y="1776" type="line"/>
    </contour>
  </outline>
</glyph>
<glyph name="a" format="1">
  <advance width="1004"/>
  <unicode hex="0061"/>
  <outline>
    <contour>
      <point x="345" y="-18" type="curve" smooth="yes"/>
      <point x="95.0181" y="-18"/>
      <point x="41" y="173.802"/>
      <point x="41" y="430" type="curve" smooth="yes"/>
      <point x="41" y="838.645"/>
      <point x="227.472" y="865.134"/>
      <point x="563" y="980" type="curve"/>
      <point x="563" y="983" type="line" smooth="yes"/>
      <point x="563" y="1079.11"/>
      <point x="581.478" y="1239"/>
      <point x="486" y="1239" type="curve" smooth="yes"/>
      <point x="436.667" y="1239"/>
      <point x="412" y="1211.67"/>
      <point x="412" y="1157" type="curve" smooth="yes"/>
      <point x="412" y="1056" type="line"/>
      <point x="64" y="1056" type="line"/>
      <point x="63.3333" y="1067.33"/>
      <point x="63" y="1083.67"/>
      <point x="63" y="1105" type="curve" smooth="yes"/>
      <point x="63" y="1402.54"/>
      <point x="198.184" y="1518"/>
      <point x="504" y="1518" type="curve" smooth="yes"/>
      <point x="743.858" y="1518"/>
      <point x="924" y="1387.24"/>
      <point x="924" y="1143" type="curve" smooth="yes"/>
      <point x="924" y="0" type="line"/>
      <point x="568" y="0" type="line"/>
      <point x="568" y="156" type="line"/>
      <point x="545.582" y="73.7993"/>
      <point x="448.074" y="-18"/>
    </contour>
    <contour>
      <point x="562" y="774" type="line"/>
      <point x="462.882" y="734.137"/>
      <point x="406" y="687.238"/>
      <point x="406" y="570" type="curve" smooth="yes"/>
      <point x="406" y="395" type="line" smooth="yes"/>
      <point x="406" y="306.333"/>
      <point x="432.667" y="262"/>
      <point x="486" y="262" type="curve" smooth="yes"/>
      <point x="543.766" y="262"/>
      <point x="562" y="321.708"/>
      <point x="562" y="379" type="curve" smooth="yes"/>
    </contour>
  </outline>
</glyph>
<glyph name="b" format="1">
  <advance width="1044"/>
  <unicode hex="0062"/>
  <outline>
    <contour>
      <point x="452" y="160" type="qcurve"/>
      <point x="452" y="160"/>
      <point x="452" y="0" type="qcurve"/>
      <point x="84" y="0" type="line"/>
      <point x="84" y="1769" type="line"/>
      <point x="452" y="1769" type="line"/>
      <point x="452" y="1427" type="line"/>
      <point x="542" y="1519"/>
      <point x="652" y="1519" type="qcurve"/>
      <point x="673" y="1519"/>
      <point x="704" y="1518"/>
      <point x="759" y="1510"/>
      <point x="800" y="1495"/>
      <point x="854" y="1467"/>
      <point x="894" y="1427"/>
      <point x="936" y="1365"/>
      <point x="962" y="1287"/>
      <point x="979" y="1178"/>
      <point x="979" y="1114" type="qcurve"/>
      <point x="979" y="391" type="line"/>
      <point x="979" y="312"/>
      <point x="951" y="184"/>
      <point x="908" y="101"/>
      <point x="846" y="38"/>
      <point x="790" y="6"/>
      <point x="724" y="-13"/>
      <point x="683" y="-18"/>
      <point x="663" y="-18" type="qcurve"/>
      <point x="518" y="-18"/>
    </contour>
    <contour>
      <point x="452" y="1085" type="qcurve"/>
      <point x="452" y="457" type="line"/>
      <point x="452" y="344"/>
      <point x="497" y="263"/>
      <point x="542" y="263" type="qcurve"/>
      <point x="586" y="263"/>
      <point x="616" y="339"/>
      <point x="616" y="457" type="qcurve"/>
      <point x="616" y="1081" type="line"/>
      <point x="616" y="1174"/>
      <point x="578" y="1239"/>
      <point x="540" y="1239" type="qcurve"/>
      <point x="501" y="1239"/>
      <point x="452" y="1175"/>
    </contour>
  </outline>
</glyph>
<glyph name="c" format="1">
  <advance width="1004"/>
  <unicode hex="0063"/>
  <outline>
    <contour>
      <point x="59" y="492" type="qcurve"/>
      <point x="59" y="492"/>
      <point x="59" y="954" type="qcurve"/>
      <point x="59" y="1258"/>
      <point x="269" y="1518"/>
      <point x="517" y="1518" type="qcurve"/>
      <point x="710" y="1518"/>
      <point x="952" y="1314"/>
      <point x="952" y="1135" type="qcurve"/>
      <point x="952" y="879" type="line"/>
      <point x="587" y="879" type="line"/>
      <point x="587" y="1116" type="line"/>
      <point x="587" y="1172"/>
      <point x="554" y="1239"/>
      <point x="507" y="1239" type="qcurve"/>
      <point x="419" y="1239"/>
      <point x="419" y="1114" type="qcurve"/>
      <point x="419" y="387" type="line"/>
      <point x="419" y="341"/>
      <point x="459" y="264"/>
      <point x="505" y="264" type="qcurve"/>
      <point x="518" y="264"/>
      <point x="543" y="274"/>
      <point x="572" y="298"/>
      <point x="589" y="351"/>
      <point x="589" y="389" type="qcurve"/>
      <point x="587" y="614" type="line"/>
      <point x="952" y="614" type="line"/>
      <point x="952" y="379" type="line"/>
      <point x="952" y="194"/>
      <point x="713" y="-18"/>
      <point x="522" y="-18" type="qcurve"/>
      <point x="434" y="-18"/>
      <point x="292" y="16"/>
      <point x="197" y="71"/>
      <point x="127" y="155"/>
      <point x="88" y="239"/>
      <point x="65" y="348"/>
      <point x="59" y="437"/>
    </contour>
  </outline>
</glyph>
<glyph name="d" format="1">
  <advance width="1036"/>
  <unicode hex="0064"/>
  <outline>
    <contour>
      <point x="371" y="-18" type="curve" smooth="yes"/>
      <point x="93.8109" y="-18"/>
      <point x="64" y="200.557"/>
      <point x="64" y="477" type="curve"/>
      <point x="68" y="1153" type="line"/>
      <point x="68" y="1357.2"/>
      <point x="171.716" y="1518"/>
      <point x="377" y="1518" type="curve" smooth="yes"/>
      <point x="472.333" y="1518"/>
      <point x="544.667" y="1485"/>
      <point x="594" y="1419" type="curve"/>
      <point x="594" y="1767" type="line"/>
      <point x="952" y="1767" type="line"/>
      <point x="952" y="0" type="line"/>
      <point x="594" y="0" type="line"/>
      <point x="594" y="159" type="line"/>
      <point x="553.538" y="51.4563"/>
      <point x="496.216" y="-18"/>
    </contour>
    <contour>
      <point x="510" y="1239" type="curve" smooth="yes"/>
      <point x="432.906" y="1239"/>
      <point x="422" y="1159.56"/>
      <point x="422" y="1083" type="curve" smooth="yes"/>
      <point x="422" y="452" type="line" smooth="yes"/>
      <point x="422" y="326.667"/>
      <point x="450.667" y="264"/>
      <point x="508" y="264" type="curve" smooth="yes"/>
      <point x="605.554" y="264"/>
      <point x="594" y="422.441"/>
      <point x="594" y="520" type="curve" smooth="yes"/>
      <point x="594" y="1083" type="line" smooth="yes"/>
      <point x="594" y="1152.61"/>
      <point x="580.393" y="1239"/>
    </contour>
  </outline>
</glyph>
<glyph name="e" format="1">
  <advance width="1000"/>
  <unicode hex="0065"/>
  <outline>
    <contour>
      <point x="944" y="494" type="line" smooth="yes"/>
      <point x="944" y="156.699"/>
      <point x="834.194" y="-18"/>
      <point x="494" y="-18" type="curve" smooth="yes"/>
      <point x="173.235" y="-18"/>
      <point x="62" y="170.049"/>
      <point x="62" y="489" type="curve" smooth="yes"/>
      <point x="62" y="1092" type="line" smooth="yes"/>
      <point x="62" y="1370.69"/>
      <point x="231.828" y="1518"/>
      <point x="512" y="1518" type="curve" smooth="yes"/>
      <point x="800" y="1518"/>
      <point x="944" y="1376"/>
      <point x="944" y="1092" type="curve" smooth="yes"/>
      <point x="944" y="983" type="line" smooth="yes"/>
      <point x="944" y="847.667"/>
      <point x="942.667" y="754.667"/>
      <point x="940" y="704" type="curve"/>
      <point x="420" y="704" type="line"/>
      <point x="420" y="494" type="line" smooth="yes"/>
      <point x="420" y="481.923"/>
      <point x="419" y="439.37"/>
      <point x="419" y="427" type="curve" smooth="yes"/>
      <point x="419" y="346.372"/>
      <point x="425.574" y="260"/>
      <point x="506" y="260" type="curve" smooth="yes"/>
      <point x="591.612" y="260"/>
      <point x="590" y="395.268"/>
      <point x="590" y="483" type="curve" smooth="yes"/>
      <point x="590" y="541.667"/>
      <point x="589.333" y="573.667"/>
      <point x="588" y="579" type="curve"/>
      <point x="944" y="579" type="line"/>
    </contour>
    <contour>
      <point x="418" y="1057" type="curve" smooth="yes"/>
      <point x="418" y="1033.44"/>
      <point x="420" y="954.542"/>
      <point x="420" y="931" type="curve"/>
      <point x="588" y="931" type="line"/>
      <point x="588" y="1087" type="line" smooth="yes"/>
      <point x="588" y="1195"/>
      <point x="561.333" y="1249"/>
      <point x="508" y="1249" type="curve" smooth="yes"/>
      <point x="421.139" y="1249"/>
      <point x="418" y="1145.83"/>
    </contour>
  </outline>
</glyph>
<glyph name="f" format="1">
  <advance width="574"/>
  <unicode hex="0066"/>
  <outline>
    <contour>
      <point x="107" y="0" type="line"/>
      <point x="107" y="1161" type="line"/>
      <point x="42" y="1161" type="line"/>
      <point x="42" y="1208"/>
      <point x="46" y="1434" type="qcurve"/>
      <point x="107" y="1434" type="line"/>
      <point x="107" y="1536" type="line"/>
      <point x="107" y="1778"/>
      <point x="349" y="1778" type="qcurve"/>
      <point x="464" y="1778"/>
      <point x="533" y="1749" type="qcurve"/>
      <point x="533" y="1528" type="line"/>
      <point x="511" y="1533"/>
      <point x="500" y="1533" type="qcurve"/>
      <point x="472" y="1533"/>
      <point x="455" y="1495"/>
      <point x="455" y="1453" type="qcurve"/>
      <point x="455" y="1434" type="line"/>
      <point x="533" y="1434" type="line"/>
      <point x="533" y="1157" type="line"/>
      <point x="462" y="1157" type="line"/>
      <point x="462" y="0" type="line"/>
    </contour>
  </outline>
</glyph>
<glyph name="g" format="1">
  <advance width="1040"/>
  <unicode hex="0067"/>
  <outline>
    <contour>
      <point x="470" y="-220" type="qcurve"/>
      <point x="323" y="-220"/>
      <point x="130" y="-171"/>
      <point x="40" y="-96" type="qcurve"/>
      <point x="161" y="111" type="line"/>
      <point x="292" y="33"/>
      <point x="423" y="33" type="qcurve"/>
      <point x="505" y="33"/>
      <point x="593" y="137"/>
      <point x="593" y="231" type="qcurve"/>
      <point x="593" y="314" type="line"/>
      <point x="549" y="160"/>
      <point x="364" y="160" type="qcurve"/>
      <point x="285" y="160"/>
      <point x="166" y="222"/>
      <point x="98" y="330"/>
      <point x="65" y="464"/>
      <point x="65" y="543" type="qcurve"/>
      <point x="65" y="1106" type="line"/>
      <point x="65" y="1223"/>
      <point x="107" y="1386"/>
      <point x="189" y="1478"/>
      <point x="294" y="1518"/>
      <point x="364" y="1518" type="qcurve"/>
      <point x="400" y="1518"/>
      <point x="464" y="1502"/>
      <point x="530" y="1463"/>
      <point x="581" y="1386"/>
      <point x="593" y="1331" type="qcurve"/>
      <point x="593" y="1500" type="line"/>
      <point x="958" y="1500" type="line"/>
      <point x="958" y="254" type="line"/>
      <point x="958" y="117"/>
      <point x="895" y="-69"/>
      <point x="766" y="-175"/>
      <point x="593" y="-220"/>
    </contour>
    <contour>
      <point x="505" y="1243" type="qcurve"/>
      <point x="478" y="1243"/>
      <point x="443" y="1219"/>
      <point x="430" y="1172"/>
      <point x="427" y="1142"/>
      <point x="427" y="1116" type="qcurve"/>
      <point x="427" y="582" type="line"/>
      <point x="427" y="554"/>
      <point x="431" y="515"/>
      <point x="445" y="460"/>
      <point x="481" y="430"/>
      <point x="509" y="430" type="qcurve"/>
      <point x="593" y="430"/>
      <point x="593" y="582" type="qcurve"/>
      <point x="593" y="1116" type="line"/>
      <point x="593" y="1159"/>
      <point x="546" y="1243"/>
    </contour>
  </outline>
</glyph>
<glyph name="h" format="1">
  <advance width="1011"/>
  <unicode hex="0068"/>
  <outline>
    <contour>
      <point x="510" y="1243" type="curve" smooth="yes"/>
      <point x="461" y="1243"/>
      <point x="430" y="1194"/>
      <point x="430" y="1135" type="curve" smooth="yes"/>
      <point x="430" y="0" type="line"/>
      <point x="62" y="0" type="line"/>
      <point x="62" y="1767" type="line"/>
      <point x="430" y="1767" type="line"/>
      <point x="430" y="1351" type="line"/>
      <point x="469" y="1463"/>
      <point x="542" y="1519"/>
      <point x="649" y="1519" type="curve" smooth="yes"/>
      <point x="857" y="1519"/>
      <point x="957" y="1375"/>
      <point x="957" y="1155" type="curve" smooth="yes"/>
      <point x="957" y="0" type="line"/>
      <point x="598" y="0" type="line"/>
      <point x="598" y="1034" type="line" smooth="yes"/>
      <point x="598" y="1043"/>
      <point x="599" y="1076"/>
      <point x="599" y="1085" type="curve" smooth="yes"/>
      <point x="599" y="1190"/>
      <point x="569" y="1243"/>
    </contour>
  </outline>
</glyph>
<glyph name="i" format="1">
  <advance width="526"/>
  <unicode hex="0069"/>
  <outline>
    <contour>
      <point x="84" y="0" type="line"/>
      <point x="84" y="1500" type="line"/>
      <point x="442" y="1500" type="line"/>
      <point x="442" y="0" type="line"/>
    </contour>
    <contour>
      <point x="84" y="1600" type="line"/>
      <point x="84" y="1800" type="line"/>
      <point x="442" y="1800" type="line"/>
      <point x="442" y="1600" type="line"/>
    </contour>
  </outline>
</glyph>
<glyph name="j" format="1">
  <advance width="550"/>
  <unicode hex="006A"/>
  <outline>
    <contour>
      <point x="70" y="85" type="curve" smooth="yes"/>
      <point x="107.607" y="85"/>
      <point x="113" y="114.843"/>
      <point x="113" y="156" type="curve" smooth="yes"/>
      <point x="113" y="1500" type="line"/>
      <point x="471" y="1500" type="line"/>
      <point x="471" y="166" type="line" smooth="yes"/>
      <point x="471" y="-46.9204"/>
      <point x="395.46" y="-176"/>
      <point x="189" y="-176" type="curve" smooth="yes"/>
      <point x="112.333" y="-176"/>
      <point x="61.6667" y="-167.333"/>
      <point x="37" y="-150" type="curve"/>
      <point x="37" y="90" type="line"/>
      <point x="47.6667" y="86.6667"/>
      <point x="58.6667" y="85"/>
    </contour>
    <contour>
      <point x="113" y="1600" type="line"/>
      <point x="113" y="1800" type="line"/>
      <point x="471" y="1800" type="line"/>
      <point x="471" y="1600" type="line"/>
    </contour>
  </outline>
</glyph>
<glyph name="k" format="1">
  <advance width="1017"/>
  <unicode hex="006B"/>
  <outline>
    <contour>
      <point x="84" y="0" type="line"/>
      <point x="84" y="1769" type="line"/>
      <point x="438" y="1769" type="line"/>
      <point x="438" y="983" type="line"/>
      <point x="610" y="1500" type="line"/>
      <point x="981" y="1500" type="line"/>
      <point x="756" y="848" type="line"/>
      <point x="1042" y="0" type="line"/>
      <point x="661" y="0" type="line"/>
      <point x="438" y="707" type="line"/>
      <point x="438" y="0" type="line"/>
    </contour>
  </outline>
</glyph>
<glyph name="l" format="1">
  <advance width="532"/>
  <unicode hex="006C"/>
  <outline>
    <contour>
      <point x="448" y="0" type="line"/>
      <point x="84" y="0" type="line"/>
      <point x="84" y="1767" type="line"/>
      <point x="448" y="1767" type="line"/>
    </contour>
  </outline>
</glyph>
<glyph name="m" format="1">
  <advance width="1575"/>
  <unicode hex="006D"/>
  <outline>
    <contour>
      <point x="84" y="1501" type="line"/>
      <point x="434" y="1501" type="line"/>
      <point x="434" y="1326" type="line"/>
      <point x="447" y="1376"/>
      <point x="491" y="1449"/>
      <point x="540" y="1489"/>
      <point x="603" y="1513"/>
      <point x="655" y="1519"/>
      <point x="686" y="1519" type="qcurve"/>
      <point x="732" y="1519"/>
      <point x="820" y="1493"/>
      <point x="908" y="1420"/>
      <point x="929" y="1365" type="qcurve"/>
      <point x="976" y="1450"/>
      <point x="1095" y="1519"/>
      <point x="1184" y="1519" type="qcurve"/>
      <point x="1251" y="1519"/>
      <point x="1356" y="1485"/>
      <point x="1423" y="1420"/>
      <point x="1468" y="1343"/>
      <point x="1489" y="1241"/>
      <point x="1497" y="1151"/>
      <point x="1497" y="1096" type="qcurve"/>
      <point x="1493" y="0" type="line"/>
      <point x="1132" y="0" type="line"/>
      <point x="1132" y="1102" type="line"/>
      <point x="1132" y="1247"/>
      <point x="1059" y="1247" type="qcurve"/>
      <point x="1031" y="1247"/>
      <point x="990" y="1212"/>
      <point x="970" y="1156"/>
      <point x="962" y="1103"/>
      <point x="962" y="1077" type="qcurve"/>
      <point x="962" y="0" type="line"/>
      <point x="604" y="0" type="line"/>
      <point x="604" y="1059" type="line"/>
      <point x="604" y="1062"/>
      <point x="604" y="1093"/>
      <point x="604" y="1110"/>
      <point x="603" y="1145"/>
      <point x="599" y="1166"/>
      <point x="593" y="1197"/>
      <point x="582" y="1216"/>
      <point x="568" y="1234"/>
      <point x="547" y="1243"/>
      <point x="534" y="1243" type="qcurve"/>
      <point x="505" y="1243"/>
      <point x="464" y="1207"/>
      <point x="443" y="1147"/>
      <point x="434" y="1089"/>
      <point x="434" y="1059" type="qcurve"/>
      <point x="434" y="0" type="line"/>
      <point x="84" y="0" type="line"/>
    </contour>
  </outline>
</glyph>
<glyph name="n" format="1">
  <advance width="1002"/>
  <unicode hex="006E"/>
  <outline>
    <contour>
      <point x="510" y="1239" type="curve" smooth="yes"/>
      <point x="427" y="1239"/>
      <point x="420" y="1138"/>
      <point x="420" y="1055" type="curve" smooth="yes"/>
      <point x="420" y="0" type="line"/>
      <point x="62" y="0" type="line"/>
      <point x="62" y="1501" type="line"/>
      <point x="420" y="1501" type="line"/>
      <point x="420" y="1309" type="line"/>
      <point x="446" y="1423"/>
      <point x="517" y="1518"/>
      <point x="646" y="1518" type="curve" smooth="yes"/>
      <point x="854" y="1518"/>
      <point x="943" y="1379"/>
      <point x="943" y="1157" type="curve" smooth="yes"/>
      <point x="943" y="0" type="line"/>
      <point x="590" y="0" type="line"/>
      <point x="590" y="1120" type="line" smooth="yes"/>
      <point x="590" y="1179"/>
      <point x="568" y="1239"/>
    </contour>
  </outline>
</glyph>
<glyph name="o" format="1">
  <advance width="1018"/>
  <unicode hex="006F"/>
  <outline>
    <contour>
      <point x="958" y="449" type="line" smooth="yes"/>
      <point x="958" y="143.381"/>
      <point x="809.693" y="-18"/>
      <point x="509" y="-18" type="curve" smooth="yes"/>
      <point x="210.333" y="-18"/>
      <point x="61" y="137.667"/>
      <point x="61" y="449" type="curve" smooth="yes"/>
      <point x="61" y="1051" type="line" smooth="yes"/>
      <point x="61" y="1332.99"/>
      <point x="228.924" y="1518"/>
      <point x="509" y="1518" type="curve" smooth="yes"/>
      <point x="789.917" y="1518"/>
      <point x="958" y="1333.5"/>
      <point x="958" y="1051" type="curve" smooth="yes"/>
    </contour>
    <contour>
      <point x="509" y="260" type="curve" smooth="yes"/>
      <point x="568.533" y="260"/>
      <point x="593" y="308.057"/>
      <point x="593" y="375" type="curve" smooth="yes"/>
      <point x="593" y="1108" type="line" smooth="yes"/>
      <point x="593" y="1195.33"/>
      <point x="565" y="1239"/>
      <point x="509" y="1239" type="curve" smooth="yes"/>
      <point x="453" y="1239"/>
      <point x="425" y="1195.33"/>
      <point x="425" y="1108" type="curve" smooth="yes"/>
      <point x="425" y="375" type="line" smooth="yes"/>
      <point x="425" y="308.008"/>
      <point x="449.43" y="260"/>
    </contour>
  </outline>
</glyph>
<glyph name="p" format="1">
  <advance width="1006"/>
  <unicode hex="0070"/>
  <outline>
    <contour>
      <point x="953" y="1075" type="curve" smooth="yes"/>
      <point x="953" y="521" type="line" smooth="yes"/>
      <point x="953" y="225"/>
      <point x="927" y="-18"/>
      <point x="631" y="-18" type="curve" smooth="yes"/>
      <point x="541" y="-18"/>
      <point x="473" y="8"/>
      <point x="426" y="59" type="curve"/>
      <point x="426" y="-300" type="line"/>
      <point x="62" y="-300" type="line"/>
      <point x="62" y="1500" type="line"/>
      <point x="426" y="1500" type="line"/>
      <point x="426" y="1419" type="line"/>
      <point x="480" y="1485"/>
      <point x="552" y="1518"/>
      <point x="641" y="1518" type="curve" smooth="yes"/>
      <point x="889" y="1518"/>
      <point x="953" y="1323"/>
    </contour>
    <contour>
      <point x="590" y="438" type="curve" smooth="yes"/>
      <point x="590" y="1075" type="line" smooth="yes"/>
      <point x="590" y="1152"/>
      <point x="587" y="1235"/>
      <point x="510" y="1235" type="curve" smooth="yes"/>
      <point x="454" y="1235"/>
      <point x="426" y="1183"/>
      <point x="426" y="1079" type="curve" smooth="yes"/>
      <point x="426" y="422" type="line" smooth="yes"/>
      <point x="426" y="336"/>
      <point x="437" y="262"/>
      <point x="512" y="262" type="curve" smooth="yes"/>
      <point x="585" y="262"/>
      <point x="590" y="346"/>
    </contour>
  </outline>
</glyph>
<glyph name="q" format="1">
  <advance width="1039"/>
  <unicode hex="0071"/>
  <outline>
    <contour>
      <point x="591" y="-186" type="line"/>
      <point x="591" y="90" type="line"/>
      <point x="552" y="37"/>
      <point x="443" y="-18"/>
      <point x="386" y="-18" type="qcurve"/>
      <point x="319" y="-18"/>
      <point x="215" y="14"/>
      <point x="148" y="59"/>
      <point x="102" y="146"/>
      <point x="79" y="214"/>
      <point x="67" y="339"/>
      <point x="65" y="412"/>
      <point x="65" y="482" type="qcurve"/>
      <point x="65" y="485"/>
      <point x="65" y="487" type="qcurve"/>
      <point x="65" y="1075" type="line"/>
      <point x="65" y="1152"/>
      <point x="82" y="1278"/>
      <point x="125" y="1394"/>
      <point x="194" y="1472"/>
      <point x="304" y="1518"/>
      <point x="376" y="1518" type="qcurve"/>
      <point x="511" y="1518"/>
      <point x="591" y="1419" type="qcurve"/>
      <point x="591" y="1500" type="line"/>
      <point x="956" y="1500" type="line"/>
      <point x="956" y="-186" type="line"/>
    </contour>
    <contour>
      <point x="591" y="1079" type="line"/>
      <point x="591" y="1235"/>
      <point x="507" y="1235" type="qcurve"/>
      <point x="487" y="1235"/>
      <point x="458" y="1221"/>
      <point x="441" y="1190"/>
      <point x="431" y="1165"/>
      <point x="428" y="1118"/>
      <point x="427" y="1098"/>
      <point x="427" y="1075" type="qcurve"/>
      <point x="427" y="438" type="line"/>
      <point x="427" y="343"/>
      <point x="463" y="262"/>
      <point x="505" y="262" type="qcurve"/>
      <point x="553" y="262"/>
      <point x="591" y="341"/>
      <point x="591" y="422" type="qcurve"/>
    </contour>
  </outline>
</glyph>
<glyph name="r" format="1">
  <advance width="945"/>
  <unicode hex="0072"/>
  <outline>
    <contour>
      <point x="84" y="0" type="line"/>
      <point x="84" y="1500" type="line"/>
      <point x="442" y="1500" type="line"/>
      <point x="442" y="1333" type="line"/>
      <point x="472" y="1436"/>
      <point x="580" y="1518"/>
      <point x="663" y="1518" type="qcurve"/>
      <point x="763" y="1518"/>
      <point x="915" y="1395"/>
      <point x="915" y="1278" type="qcurve"/>
      <point x="915" y="776" type="line"/>
      <point x="565" y="776" type="line"/>
      <point x="565" y="1135" type="line"/>
      <point x="565" y="1162"/>
      <point x="560" y="1199"/>
      <point x="533" y="1233"/>
      <point x="508" y="1233" type="qcurve"/>
      <point x="482" y="1233"/>
      <point x="442" y="1187"/>
      <point x="442" y="1147" type="qcurve"/>
      <point x="442" y="0" type="line"/>
    </contour>
  </outline>
</glyph>
<glyph name="s" format="1">
  <advance width="974"/>
  <unicode hex="0073"/>
  <outline>
    <contour>
      <point x="491" y="1518" type="curve" smooth="yes"/>
      <point x="778.154" y="1518"/>
      <point x="927" y="1372.45"/>
      <point x="927" y="1081" type="curve" smooth="yes"/>
      <point x="927" y="1053" type="line"/>
      <point x="559" y="1053" type="line"/>
      <point x="557" y="1110" type="line"/>
      <point x="557" y="1169.58"/>
      <point x="540.922" y="1239"/>
      <point x="481" y="1239" type="curve" smooth="yes"/>
      <point x="431.217" y="1239"/>
      <point x="405" y="1209.03"/>
      <point x="405" y="1159" type="curve" smooth="yes"/>
      <point x="405" y="1105.67"/>
      <point x="426.333" y="1063.33"/>
      <point x="469" y="1032" type="curve" smooth="yes"/>
      <point x="690" y="870" type="line"/>
      <point x="827.06" y="768.243"/>
      <point x="936" y="645.941"/>
      <point x="936" y="418" type="curve" smooth="yes"/>
      <point x="936" y="135.016"/>
      <point x="765.141" y="-18"/>
      <point x="485" y="-18" type="curve" smooth="yes"/>
      <point x="189" y="-18"/>
      <point x="41" y="132.667"/>
      <point x="41" y="434" type="curve"/>
      <point x="43" y="553" type="line"/>
      <point x="401" y="553" type="line"/>
      <point x="403" y="377" type="line" smooth="yes"/>
      <point x="403" y="308.569"/>
      <point x="426.048" y="268"/>
      <point x="491" y="268" type="curve" smooth="yes"/>
      <point x="539" y="268"/>
      <point x="563" y="307"/>
      <point x="563" y="385" type="curve" smooth="yes"/>
      <point x="563" y="514.586"/>
      <point x="499.607" y="565.871"/>
      <point x="422" y="625" type="curve" smooth="yes"/>
      <point x="231" y="772" type="line" smooth="yes"/>
      <point x="111.274" y="864.691"/>
      <point x="47" y="950.709"/>
      <point x="47" y="1157" type="curve" smooth="yes"/>
      <point x="47" y="1393.65"/>
      <point x="254.3" y="1518"/>
    </contour>
  </outline>
</glyph>
<glyph name="t" format="1">
  <advance width="569"/>
  <unicode hex="0074"/>
  <outline>
    <contour>
      <point x="101" y="231" type="curve" smooth="yes"/>
      <point x="101" y="1169" type="line"/>
      <point x="0" y="1169" type="line"/>
      <point x="0" y="1442" type="line"/>
      <point x="101" y="1442" type="line"/>
      <point x="101" y="1761" type="line"/>
      <point x="449" y="1761" type="line"/>
      <point x="449" y="1442" type="line"/>
      <point x="550" y="1442" type="line"/>
      <point x="550" y="1169" type="line"/>
      <point x="449" y="1169" type="line"/>
      <point x="449" y="325" type="line" smooth="yes"/>
      <point x="449" y="323" type="line" smooth="yes"/>
      <point x="449" y="285"/>
      <point x="449" y="248"/>
      <point x="487" y="248" type="curve" smooth="yes"/>
      <point x="496" y="248"/>
      <point x="541" y="249"/>
      <point x="550" y="252" type="curve"/>
      <point x="550" y="8" type="line"/>
      <point x="534" y="3"/>
      <point x="434" y="-19"/>
      <point x="347" y="-19" type="curve" smooth="yes"/>
      <point x="154.359" y="-19"/>
      <point x="101" y="62.1096"/>
    </contour>
  </outline>
</glyph>
<glyph name="u" format="1">
  <advance width="1046"/>
  <unicode hex="0075"/>
  <outline>
    <contour>
      <point x="520" y="264" type="curve" smooth="yes"/>
      <point x="602.714" y="264"/>
      <point x="604" y="359.958"/>
      <point x="604" y="443" type="curve" smooth="yes"/>
      <point x="604" y="455" type="line"/>
      <point x="606" y="1500" type="line"/>
      <point x="962" y="1500" type="line"/>
      <point x="962" y="0" type="line"/>
      <point x="604" y="0" type="line"/>
      <point x="604" y="160" type="line"/>
      <point x="558.336" y="44.7517"/>
      <point x="509.089" y="-18"/>
      <point x="373" y="-18" type="curve" smooth="yes"/>
      <point x="131.915" y="-18"/>
      <point x="80" y="142.703"/>
      <point x="80" y="383" type="curve" smooth="yes"/>
      <point x="80" y="1500" type="line"/>
      <point x="440" y="1500" type="line"/>
      <point x="440" y="455" type="line" smooth="yes"/>
      <point x="440" y="341.941"/>
      <point x="431.644" y="264"/>
    </contour>
  </outline>
</glyph>
<glyph name="v" format="1">
  <advance width="904"/>
  <unicode hex="0076"/>
  <outline>
    <contour>
      <point x="657" y="0" type="line"/>
      <point x="243" y="0" type="line"/>
      <point x="2" y="1500" type="line"/>
      <point x="361" y="1500" type="line"/>
      <point x="435" y="741" type="line"/>
      <point x="447" y="498" type="line"/>
      <point x="461" y="743" type="line"/>
      <point x="544" y="1500" type="line"/>
      <point x="902" y="1500" type="line"/>
    </contour>
  </outline>
</glyph>
<glyph name="w" format="1">
  <advance width="1444"/>
  <unicode hex="0077"/>
  <outline>
    <contour>
      <point x="902" y="1500" type="line"/>
      <point x="986" y="694" type="line"/>
      <point x="1078" y="1500" type="line"/>
      <point x="1435" y="1500" type="line"/>
      <point x="1224" y="0" type="line"/>
      <point x="808" y="0" type="line"/>
      <point x="720" y="801" type="line"/>
      <point x="636" y="0" type="line"/>
      <point x="220" y="0" type="line"/>
      <point x="9" y="1500" type="line"/>
      <point x="366" y="1500" type="line"/>
      <point x="455" y="694" type="line"/>
      <point x="542" y="1500" type="line"/>
    </contour>
  </outline>
</glyph>
<glyph name="x" format="1">
  <advance width="982"/>
  <unicode hex="0078"/>
  <outline>
    <contour>
      <point x="488" y="684" type="line"/>
      <point x="367" y="0" type="line"/>
      <point x="17" y="0" type="line"/>
      <point x="181" y="843" type="line"/>
      <point x="53" y="1501" type="line"/>
      <point x="401" y="1501" type="line"/>
      <point x="489" y="989" type="line"/>
      <point x="577" y="1501" type="line"/>
      <point x="931" y="1501" type="line"/>
      <point x="804" y="834" type="line"/>
      <point x="954" y="0" type="line"/>
      <point x="603" y="0" type="line"/>
    </contour>
  </outline>
</glyph>
<glyph name="y" format="1">
  <advance width="905"/>
  <unicode hex="0079"/>
  <outline>
    <contour>
      <point x="143" y="-23" type="line" smooth="yes"/>
      <point x="205" y="-23"/>
      <point x="240" y="-15"/>
      <point x="240" y="39" type="curve" smooth="yes"/>
      <point x="240" y="52"/>
      <point x="238" y="69"/>
      <point x="235" y="91" type="curve" smooth="yes"/>
      <point x="4" y="1501" type="line"/>
      <point x="357" y="1501" type="line"/>
      <point x="423" y="757" type="line"/>
      <point x="447" y="425" type="line"/>
      <point x="475" y="757" type="line"/>
      <point x="555" y="1501" type="line"/>
      <point x="910" y="1501" type="line"/>
      <point x="632" y="-78" type="line"/>
      <point x="616" y="-192"/>
      <point x="564" y="-250"/>
      <point x="435" y="-250" type="curve" smooth="yes"/>
      <point x="31" y="-250" type="line"/>
      <point x="31" y="-23" type="line"/>
    </contour>
  </outline>
</glyph>
<glyph name="z" format="1">
  <advance width="878"/>
  <unicode hex="007A"/>
  <outline>
    <contour>
      <point x="32" y="0" type="line"/>
      <point x="32" y="272" type="line"/>
      <point x="445" y="1194" type="line"/>
      <point x="71" y="1194" type="line"/>
      <point x="71" y="1500" type="line"/>
      <point x="841" y="1500" type="line"/>
      <point x="841" y="1194" type="line"/>
      <point x="439" y="301" type="line"/>
      <point x="816" y="301" type="line"/>
      <point x="816" y="0" type="line"/>
    </contour>
  </outline>
</glyph>
<glyph name="braceleft" format="1">
  <advance width="698"/>
  <unicode hex="007B"/>
  <outline>
    <contour>
      <point x="161" y="1225" type="qcurve"/>
      <point x="161" y="1416"/>
      <point x="413" y="1616"/>
      <point x="652" y="1623" type="qcurve"/>
      <point x="652" y="1356" type="line"/>
      <point x="604" y="1353"/>
      <point x="543" y="1336"/>
      <point x="519" y="1309"/>
      <point x="513" y="1289"/>
      <point x="513" y="1272" type="qcurve"/>
      <point x="513" y="1179"/>
      <point x="497" y="1041"/>
      <point x="475" y="956"/>
      <point x="423" y="879"/>
      <point x="385" y="839"/>
      <point x="343" y="802" type="qcurve"/>
      <point x="384" y="766"/>
      <point x="424" y="726"/>
      <point x="475" y="650"/>
      <point x="497" y="566"/>
      <point x="513" y="430"/>
      <point x="513" y="338" type="qcurve"/>
      <point x="512" y="323"/>
      <point x="514" y="309"/>
      <point x="528" y="281"/>
      <point x="555" y="267"/>
      <point x="611" y="252"/>
      <point x="652" y="249" type="qcurve"/>
      <point x="652" y="-18" type="line"/>
      <point x="413" y="-11"/>
      <point x="161" y="183"/>
      <point x="161" y="370" type="qcurve"/>
      <point x="161" y="376"/>
      <point x="161" y="387" type="qcurve"/>
      <point x="161" y="427"/>
      <point x="161" y="462"/>
      <point x="159" y="521"/>
      <point x="156" y="544"/>
      <point x="149" y="586"/>
      <point x="139" y="602"/>
      <point x="123" y="629"/>
      <point x="104" y="639"/>
      <point x="76" y="656"/>
      <point x="43" y="665"/>
      <point x="22" y="669" type="qcurve"/>
      <point x="22" y="936" type="line"/>
      <point x="49" y="941"/>
      <point x="87" y="952"/>
      <point x="118" y="974"/>
      <point x="137" y="989"/>
      <point x="151" y="1028"/>
      <point x="157" y="1054"/>
      <point x="161" y="1118"/>
      <point x="161" y="1161"/>
      <point x="161" y="1208" type="qcurve"/>
      <point x="161" y="1219"/>
    </contour>
  </outline>
</glyph>
<glyph name="bar" format="1">
  <advance width="509"/>
  <unicode hex="007C"/>
  <outline>
    <contour>
      <point x="414" y="-84" type="line"/>
      <point x="95" y="-84" type="line"/>
      <point x="95" y="1683" type="line"/>
      <point x="414" y="1683" type="line"/>
    </contour>
  </outline>
</glyph>
<glyph name="braceright" format="1">
  <advance width="699"/>
  <unicode hex="007D"/>
  <outline>
    <contour>
      <point x="47" y="1623" type="line"/>
      <point x="334.463" y="1614.58"/>
      <point x="538" y="1504.34"/>
      <point x="538" y="1225" type="curve" smooth="yes"/>
      <point x="538" y="1139.5" type="line" smooth="yes"/>
      <point x="538" y="1007.2"/>
      <point x="565.072" y="956.727"/>
      <point x="677" y="936" type="curve"/>
      <point x="677" y="669" type="line"/>
      <point x="558.787" y="646.483"/>
      <point x="538" y="585.148"/>
      <point x="538" y="444.5" type="curve" smooth="yes"/>
      <point x="538" y="370" type="line" smooth="yes"/>
      <point x="538" y="94.6602"/>
      <point x="331.753" y="-9.65994"/>
      <point x="47" y="-18" type="curve"/>
      <point x="47" y="249" type="line"/>
      <point x="120.635" y="254.388"/>
      <point x="186" y="261.88"/>
      <point x="186" y="338" type="curve" smooth="yes"/>
      <point x="186" y="581.607"/>
      <point x="229.744" y="691.141"/>
      <point x="356" y="802" type="curve"/>
      <point x="230.962" y="912.153"/>
      <point x="186" y="1026.11"/>
      <point x="186" y="1272" type="curve" smooth="yes"/>
      <point x="186" y="1342.79"/>
      <point x="119.399" y="1351.48"/>
      <point x="47" y="1356" type="curve"/>
    </contour>
  </outline>
</glyph>
<glyph name="asciitilde" format="1">
  <advance width="959"/>
  <unicode hex="007E"/>
  <outline>
    <contour>
      <point x="332" y="886" type="qcurve"/>
      <point x="288" y="886"/>
      <point x="254" y="807" type="qcurve"/>
      <point x="12" y="923" type="line"/>
      <point x="133" y="1222"/>
      <point x="342" y="1222" type="qcurve"/>
      <point x="387" y="1222"/>
      <point x="490" y="1168"/>
      <point x="587" y="1114"/>
      <point x="625" y="1114" type="qcurve"/>
      <point x="669" y="1114"/>
      <point x="704" y="1193" type="qcurve"/>
      <point x="946" y="1077" type="line"/>
      <point x="823" y="776"/>
      <point x="614" y="776" type="qcurve"/>
      <point x="573" y="776"/>
      <point x="490" y="810"/>
      <point x="432" y="852"/>
      <point x="361" y="886"/>
    </contour>
  </outline>
</glyph>
<glyph name="exclamdown" format="1">
  <advance width="506"/>
  <unicode hex="00A1"/>
  <outline>
    <contour>
      <point x="74" y="1" type="line"/>
      <point x="144" y="1155" type="line"/>
      <point x="362" y="1155" type="line"/>
      <point x="432" y="1" type="line"/>
    </contour>
    <contour>
      <point x="74" y="1593" type="line"/>
      <point x="432" y="1593" type="line"/>
      <point x="432" y="1295" type="line"/>
      <point x="74" y="1295" type="line"/>
    </contour>
  </outline>
</glyph>
<glyph name="cent" format="1">
  <advance width="1014"/>
  <unicode hex="00A2"/>
  <outline>
    <contour>
      <point x="434" y="-113" type="line"/>
      <point x="434" y="-13" type="line"/>
      <point x="363" y="-5"/>
      <point x="249" y="38"/>
      <point x="172" y="96"/>
      <point x="115" y="178"/>
      <point x="84" y="257"/>
      <point x="65" y="359"/>
      <point x="60" y="441"/>
      <point x="60" y="492" type="qcurve"/>
      <point x="60" y="954" type="line"/>
      <point x="60" y="1232"/>
      <point x="233" y="1494"/>
      <point x="434" y="1514" type="qcurve"/>
      <point x="434" y="1607" type="line"/>
      <point x="607" y="1607" type="line"/>
      <point x="607" y="1511" type="line"/>
      <point x="764" y="1489"/>
      <point x="953" y="1292"/>
      <point x="953" y="1135" type="qcurve"/>
      <point x="953" y="879" type="line"/>
      <point x="588" y="879" type="line"/>
      <point x="588" y="1116" type="line"/>
      <point x="588" y="1172"/>
      <point x="555" y="1239"/>
      <point x="508" y="1239" type="qcurve"/>
      <point x="420" y="1239"/>
      <point x="420" y="1114" type="qcurve"/>
      <point x="420" y="387" type="line"/>
      <point x="420" y="341"/>
      <point x="460" y="264"/>
      <point x="506" y="264" type="qcurve"/>
      <point x="519" y="264"/>
      <point x="544" y="274"/>
      <point x="573" y="298"/>
      <point x="590" y="351"/>
      <point x="590" y="389" type="qcurve"/>
      <point x="588" y="614" type="line"/>
      <point x="953" y="614" type="line"/>
      <point x="953" y="379" type="line"/>
      <point x="953" y="216"/>
      <point x="764" y="10"/>
      <point x="607" y="-12" type="qcurve"/>
      <point x="607" y="-113" type="line"/>
    </contour>
  </outline>
</glyph>
<glyph name="sterling" format="1">
  <advance width="1006"/>
  <unicode hex="00A3"/>
  <outline>
    <contour>
      <point x="64" y="673" type="line"/>
      <point x="64" y="905" type="line"/>
      <point x="199" y="905" type="line"/>
      <point x="185" y="964" type="line"/>
      <point x="171" y="1024"/>
      <point x="144" y="1184"/>
      <point x="144" y="1224" type="qcurve"/>
      <point x="144" y="1315"/>
      <point x="193" y="1453"/>
      <point x="272" y="1536"/>
      <point x="384" y="1589"/>
      <point x="496" y="1608"/>
      <point x="561" y="1608" type="qcurve"/>
      <point x="622" y="1608"/>
      <point x="722" y="1589"/>
      <point x="830" y="1527"/>
      <point x="903" y="1425"/>
      <point x="950" y="1246"/>
      <point x="950" y="1125" type="qcurve"/>
      <point x="631" y="1125" type="line"/>
      <point x="631" y="1221"/>
      <point x="606" y="1312"/>
      <point x="567" y="1312" type="qcurve"/>
      <point x="550" y="1312"/>
      <point x="529" y="1301"/>
      <point x="517" y="1287"/>
      <point x="512" y="1248"/>
      <point x="511" y="1219"/>
      <point x="511" y="1186" type="qcurve"/>
      <point x="511" y="1178"/>
      <point x="511" y="1173" type="qcurve"/>
      <point x="511" y="1127"/>
      <point x="567" y="905" type="qcurve"/>
      <point x="851" y="905" type="line"/>
      <point x="851" y="673" type="line"/>
      <point x="602" y="673" type="line"/>
      <point x="613" y="541" type="line"/>
      <point x="610" y="490"/>
      <point x="577" y="400"/>
      <point x="540" y="348"/>
      <point x="494" y="305"/>
      <point x="476" y="294"/>
      <point x="471" y="291" type="qcurve"/>
      <point x="941" y="291" type="line"/>
      <point x="941" y="0" type="line"/>
      <point x="59" y="0" type="line"/>
      <point x="59" y="281" type="line"/>
      <point x="165" y="344"/>
      <point x="235" y="466"/>
      <point x="235" y="568" type="qcurve"/>
      <point x="235" y="634"/>
      <point x="226" y="673" type="qcurve"/>
    </contour>
  </outline>
</glyph>
<glyph name="currency" format="1">
  <advance width="1015"/>
  <unicode hex="00A4"/>
  <outline>
    <contour>
      <point x="507" y="545" type="qcurve"/>
      <point x="383" y="545"/>
      <point x="291" y="598" type="qcurve"/>
      <point x="202" y="509" type="line"/>
      <point x="53" y="659" type="line"/>
      <point x="144" y="750" type="line"/>
      <point x="91" y="848"/>
      <point x="91" y="964" type="qcurve"/>
      <point x="91" y="1081"/>
      <point x="143" y="1178" type="qcurve"/>
      <point x="53" y="1268" type="line"/>
      <point x="202" y="1418" type="line"/>
      <point x="289" y="1330" type="line"/>
      <point x="386" y="1385"/>
      <point x="507" y="1385" type="qcurve"/>
      <point x="627" y="1385"/>
      <point x="725" y="1331" type="qcurve"/>
      <point x="812" y="1418" type="line"/>
      <point x="962" y="1269" type="line"/>
      <point x="872" y="1179" type="line"/>
      <point x="926" y="1082"/>
      <point x="926" y="846"/>
      <point x="872" y="748" type="qcurve"/>
      <point x="962" y="658" type="line"/>
      <point x="812" y="509" type="line"/>
      <point x="723" y="597" type="line"/>
      <point x="630" y="545"/>
    </contour>
    <contour>
      <point x="507" y="1186" type="qcurve"/>
      <point x="409" y="1186"/>
      <point x="299" y="1054"/>
      <point x="299" y="964" type="qcurve"/>
      <point x="299" y="873"/>
      <point x="409" y="741"/>
      <point x="605" y="741"/>
      <point x="716" y="875"/>
      <point x="716" y="966" type="qcurve"/>
      <point x="716" y="1059"/>
      <point x="606" y="1186"/>
    </contour>
  </outline>
</glyph>
<glyph name="yen" format="1">
  <advance width="969"/>
  <unicode hex="00A5"/>
  <outline>
    <contour>
      <point x="181" y="475" type="line"/>
      <point x="181" y="699" type="line"/>
      <point x="273" y="699" type="line"/>
      <point x="38" y="1593" type="line"/>
      <point x="387" y="1593" type="line"/>
      <point x="485" y="1053" type="line"/>
      <point x="583" y="1593" type="line"/>
      <point x="931" y="1593" type="line"/>
      <point x="697" y="699" type="line"/>
      <point x="785" y="699" type="line"/>
      <point x="785" y="475" type="line"/>
      <point x="651" y="475" type="line"/>
      <point x="651" y="408" type="line"/>
      <point x="785" y="408" type="line"/>
      <point x="785" y="176" type="line"/>
      <point x="651" y="176" type="line"/>
      <point x="651" y="0" type="line"/>
      <point x="319" y="0" type="line"/>
      <point x="319" y="176" type="line"/>
      <point x="181" y="176" type="line"/>
      <point x="181" y="408" type="line"/>
      <point x="319" y="408" type="line"/>
      <point x="319" y="475" type="line"/>
    </contour>
  </outline>
</glyph>
<glyph name="brokenbar" format="1">
  <advance width="513"/>
  <unicode hex="00A6"/>
  <outline>
    <contour>
      <point x="416" y="-84" type="line"/>
      <point x="97" y="-84" type="line"/>
      <point x="97" y="676" type="line"/>
      <point x="416" y="676" type="line"/>
    </contour>
    <contour>
      <point x="416" y="923" type="line"/>
      <point x="97" y="923" type="line"/>
      <point x="97" y="1683" type="line"/>
      <point x="416" y="1683" type="line"/>
    </contour>
  </outline>
</glyph>
<glyph name="section" format="1">
  <advance width="954"/>
  <unicode hex="00A7"/>
  <outline>
    <contour>
      <point x="569" y="324" type="qcurve"/>
      <point x="569" y="339"/>
      <point x="542" y="370"/>
      <point x="485" y="403"/>
      <point x="431" y="430"/>
      <point x="339" y="473"/>
      <point x="311" y="488" type="qcurve"/>
      <point x="199" y="545"/>
      <point x="75" y="707"/>
      <point x="75" y="795" type="qcurve"/>
      <point x="75" y="927"/>
      <point x="213" y="1031" type="qcurve"/>
      <point x="75" y="1132"/>
      <point x="75" y="1275" type="qcurve"/>
      <point x="75" y="1414"/>
      <point x="297" y="1607"/>
      <point x="481" y="1607" type="qcurve"/>
      <point x="680" y="1607"/>
      <point x="890" y="1422"/>
      <point x="890" y="1221" type="qcurve"/>
      <point x="585" y="1221" type="line"/>
      <point x="581" y="1346"/>
      <point x="492" y="1346" type="qcurve"/>
      <point x="448" y="1346"/>
      <point x="396" y="1300"/>
      <point x="396" y="1264" type="qcurve"/>
      <point x="396" y="1249"/>
      <point x="423" y="1219"/>
      <point x="480" y="1186"/>
      <point x="533" y="1159"/>
      <point x="624" y="1116"/>
      <point x="652" y="1101" type="qcurve"/>
      <point x="764" y="1043"/>
      <point x="889" y="880"/>
      <point x="889" y="792" type="qcurve"/>
      <point x="889" y="660"/>
      <point x="751" y="557" type="qcurve"/>
      <point x="890" y="454"/>
      <point x="890" y="313" type="qcurve"/>
      <point x="890" y="174"/>
      <point x="668" y="-19"/>
      <point x="484" y="-19" type="qcurve"/>
      <point x="275" y="-19"/>
      <point x="55" y="166"/>
      <point x="55" y="367" type="qcurve"/>
      <point x="390" y="367" type="line"/>
      <point x="394" y="242"/>
      <point x="483" y="242" type="qcurve"/>
      <point x="523" y="242"/>
      <point x="569" y="288"/>
    </contour>
    <contour>
      <point x="573" y="681" type="qcurve"/>
      <point x="614" y="735"/>
      <point x="614" y="780" type="qcurve"/>
      <point x="614" y="849"/>
      <point x="412" y="917" type="qcurve"/>
      <point x="362" y="858"/>
      <point x="362" y="813" type="qcurve"/>
      <point x="362" y="776"/>
      <point x="468" y="715"/>
    </contour>
  </outline>
</glyph>
<glyph name="dieresis" format="1">
  <advance width="976"/>
  <unicode hex="00A8"/>
  <outline>
    <contour>
      <point x="67" y="1591" type="line"/>
      <point x="67" y="1889" type="line"/>
      <point x="425" y="1889" type="line"/>
      <point x="425" y="1591" type="line"/>
    </contour>
    <contour>
      <point x="551" y="1591" type="line"/>
      <point x="551" y="1889" type="line"/>
      <point x="909" y="1889" type="line"/>
      <point x="909" y="1591" type="line"/>
    </contour>
  </outline>
</glyph>
<glyph name="copyright" format="1">
  <advance width="1410"/>
  <unicode hex="00A9"/>
  <outline>
    <contour>
      <point x="705" y="1390" type="curve" smooth="yes"/>
      <point x="416.222" y="1390"/>
      <point x="207" y="1152.94"/>
      <point x="207" y="862" type="curve" smooth="yes"/>
      <point x="207" y="571.014"/>
      <point x="416.027" y="334"/>
      <point x="705" y="334" type="curve" smooth="yes"/>
      <point x="993.972" y="334"/>
      <point x="1203" y="571.026"/>
      <point x="1203" y="862" type="curve" smooth="yes"/>
      <point x="1203" y="1152.99"/>
      <point x="993.973" y="1390"/>
    </contour>
    <contour>
      <point x="705" y="205" type="curve" smooth="yes"/>
      <point x="331.66" y="205"/>
      <point x="48" y="488.666"/>
      <point x="48" y="862" type="curve" smooth="yes"/>
      <point x="48" y="1235.34"/>
      <point x="331.666" y="1519"/>
      <point x="705" y="1519" type="curve" smooth="yes"/>
      <point x="1078.34" y="1519"/>
      <point x="1362" y="1235.33"/>
      <point x="1362" y="862" type="curve" smooth="yes"/>
      <point x="1362" y="488.66"/>
      <point x="1078.33" y="205"/>
    </contour>
    <contour>
      <point x="659" y="657" type="line" smooth="yes"/>
      <point x="659" y="627.125"/>
      <point x="674.748" y="592"/>
      <point x="703" y="592" type="curve" smooth="yes"/>
      <point x="733.667" y="592"/>
      <point x="749" y="613.667"/>
      <point x="749" y="657" type="curve" smooth="yes"/>
      <point x="749" y="806" type="line"/>
      <point x="942" y="806" type="line"/>
      <point x="942" y="643" type="line" smooth="yes"/>
      <point x="942" y="497"/>
      <point x="861" y="424"/>
      <point x="699" y="424" type="curve" smooth="yes"/>
      <point x="560.483" y="424"/>
      <point x="469" y="507.268"/>
      <point x="469" y="648" type="curve" smooth="yes"/>
      <point x="469" y="1049" type="line" smooth="yes"/>
      <point x="469" y="1216.79"/>
      <point x="537.561" y="1305"/>
      <point x="703" y="1305" type="curve" smooth="yes"/>
      <point x="837.308" y="1305"/>
      <point x="938" y="1238.84"/>
      <point x="938" y="1105" type="curve" smooth="yes"/>
      <point x="938" y="952" type="line"/>
      <point x="749" y="952" type="line"/>
      <point x="749" y="1053" type="line" smooth="yes"/>
      <point x="749" y="1104.33"/>
      <point x="733.667" y="1130"/>
      <point x="703" y="1130" type="curve" smooth="yes"/>
      <point x="665.549" y="1130"/>
      <point x="659" y="1104.05"/>
      <point x="659" y="1066" type="curve" smooth="yes"/>
    </contour>
  </outline>
</glyph>
<glyph name="ordfeminine" format="1">
  <advance width="828"/>
  <unicode hex="00AA"/>
  <outline>
    <contour>
      <point x="285" y="389" type="curve" smooth="yes"/>
      <point x="87.0781" y="389"/>
      <point x="43" y="541.302"/>
      <point x="43" y="744" type="curve" smooth="yes"/>
      <point x="43" y="1068.41"/>
      <point x="191.501" y="1090.15"/>
      <point x="458" y="1181" type="curve"/>
      <point x="458" y="1183" type="line" smooth="yes"/>
      <point x="458" y="1258.72"/>
      <point x="472.519" y="1386"/>
      <point x="397" y="1386" type="curve" smooth="yes"/>
      <point x="357.667" y="1386"/>
      <point x="338" y="1364.33"/>
      <point x="338" y="1321" type="curve" smooth="yes"/>
      <point x="338" y="1241" type="line"/>
      <point x="62" y="1241" type="line"/>
      <point x="61.3333" y="1250.33"/>
      <point x="61" y="1263.33"/>
      <point x="61" y="1280" type="curve" smooth="yes"/>
      <point x="61" y="1516.34"/>
      <point x="168.12" y="1607"/>
      <point x="411" y="1607" type="curve" smooth="yes"/>
      <point x="418" y="1607" type="line" smooth="yes"/>
      <point x="605.037" y="1607"/>
      <point x="744" y="1500.74"/>
      <point x="744" y="1310" type="curve" smooth="yes"/>
      <point x="744" y="403" type="line"/>
      <point x="462" y="403" type="line"/>
      <point x="462" y="527" type="line"/>
      <point x="444.517" y="460.813"/>
      <point x="367.422" y="389"/>
    </contour>
    <contour>
      <point x="457" y="1017" type="line"/>
      <point x="378.251" y="985.716"/>
      <point x="333" y="947.996"/>
      <point x="333" y="855" type="curve" smooth="yes"/>
      <point x="333" y="716" type="line" smooth="yes"/>
      <point x="333" y="646"/>
      <point x="354.333" y="611"/>
      <point x="397" y="611" type="curve" smooth="yes"/>
      <point x="442.827" y="611"/>
      <point x="457" y="658.589"/>
      <point x="457" y="704" type="curve" smooth="yes"/>
    </contour>
  </outline>
</glyph>
<glyph name="guillemotleft" format="1">
  <advance width="1218"/>
  <unicode hex="00AB"/>
  <outline>
    <contour>
      <point x="624" y="545" type="line"/>
      <point x="624" y="959" type="line"/>
      <point x="1134" y="1230" type="line"/>
      <point x="1134" y="871" type="line"/>
      <point x="822" y="749" type="line"/>
      <point x="1134" y="618" type="line"/>
      <point x="1134" y="260" type="line"/>
    </contour>
    <contour>
      <point x="46" y="545" type="line"/>
      <point x="46" y="959" type="line"/>
      <point x="556" y="1230" type="line"/>
      <point x="556" y="871" type="line"/>
      <point x="244" y="749" type="line"/>
      <point x="556" y="618" type="line"/>
      <point x="556" y="260" type="line"/>
    </contour>
  </outline>
</glyph>
<glyph name="logicalnot" format="1">
  <advance width="868"/>
  <unicode hex="00AC"/>
  <outline>
    <contour>
      <point x="52" y="979" type="line"/>
      <point x="781" y="979" type="line"/>
      <point x="781" y="439" type="line"/>
      <point x="470" y="439" type="line"/>
      <point x="470" y="801" type="line"/>
      <point x="52" y="801" type="line"/>
    </contour>
  </outline>
</glyph>
<glyph name="registered" format="1">
  <advance width="1410"/>
  <unicode hex="00AE"/>
  <outline>
    <contour>
      <point x="705" y="205" type="curve" smooth="yes"/>
      <point x="331.66" y="205"/>
      <point x="48" y="488.666"/>
      <point x="48" y="862" type="curve" smooth="yes"/>
      <point x="48" y="1235.34"/>
      <point x="331.666" y="1519"/>
      <point x="705" y="1519" type="curve" smooth="yes"/>
      <point x="1078.34" y="1519"/>
      <point x="1362" y="1235.33"/>
      <point x="1362" y="862" type="curve" smooth="yes"/>
      <point x="1362" y="488.66"/>
      <point x="1078.33" y="205"/>
    </contour>
    <contour>
      <point x="705" y="1390" type="curve" smooth="yes"/>
      <point x="416.222" y="1390"/>
      <point x="207" y="1152.94"/>
      <point x="207" y="862" type="curve" smooth="yes"/>
      <point x="207" y="571.014"/>
      <point x="416.027" y="334"/>
      <point x="705" y="334" type="curve" smooth="yes"/>
      <point x="993.972" y="334"/>
      <point x="1203" y="571.026"/>
      <point x="1203" y="862" type="curve" smooth="yes"/>
      <point x="1203" y="1152.99"/>
      <point x="993.973" y="1390"/>
    </contour>
    <contour>
      <point x="943" y="1043" type="curve" smooth="yes"/>
      <point x="943" y="950.847"/>
      <point x="922.3" y="895.594"/>
      <point x="850" y="873" type="curve"/>
      <point x="902.667" y="863"/>
      <point x="929" y="822.333"/>
      <point x="929" y="751" type="curve" smooth="yes"/>
      <point x="929" y="430" type="line"/>
      <point x="745" y="430" type="line"/>
      <point x="745" y="762" type="line" smooth="yes"/>
      <point x="745" y="812.389"/>
      <point x="723.413" y="818"/>
      <point x="673" y="818" type="curve"/>
      <point x="673" y="430" type="line"/>
      <point x="483" y="430" type="line"/>
      <point x="483" y="1282" type="line"/>
      <point x="772" y="1282" type="line" smooth="yes"/>
      <point x="916.549" y="1282"/>
      <point x="943" y="1187.34"/>
    </contour>
    <contour>
      <point x="674" y="1124" type="curve"/>
      <point x="674" y="965" type="line"/>
      <point x="722" y="965" type="line" smooth="yes"/>
      <point x="746.667" y="965"/>
      <point x="759" y="991"/>
      <point x="759" y="1043" type="curve" smooth="yes"/>
      <point x="759" y="1113.85"/>
      <point x="744.328" y="1124"/>
    </contour>
  </outline>
</glyph>
<glyph name="degree" format="1">
  <advance width="782"/>
  <unicode hex="00B0"/>
  <outline>
    <contour>
      <point x="391" y="1426" type="curve" smooth="yes"/>
      <point x="301.858" y="1426"/>
      <point x="249" y="1356.15"/>
      <point x="249" y="1269" type="curve" smooth="yes"/>
      <point x="249" y="1182.43"/>
      <point x="302.041" y="1112"/>
      <point x="391" y="1112" type="curve" smooth="yes"/>
      <point x="479.97" y="1112"/>
      <point x="533" y="1182.42"/>
      <point x="533" y="1269" type="curve" smooth="yes"/>
      <point x="533" y="1355.57"/>
      <point x="479.959" y="1426"/>
    </contour>
    <contour>
      <point x="390" y="931" type="curve" smooth="yes"/>
      <point x="176.096" y="931"/>
      <point x="37" y="1057.07"/>
      <point x="37" y="1269" type="curve" smooth="yes"/>
      <point x="37" y="1480.4"/>
      <point x="176.246" y="1607"/>
      <point x="390" y="1607" type="curve" smooth="yes"/>
      <point x="603.74" y="1607"/>
      <point x="744" y="1480.41"/>
      <point x="744" y="1269" type="curve" smooth="yes"/>
      <point x="744" y="1057.61"/>
      <point x="603.72" y="931"/>
    </contour>
  </outline>
</glyph>
<glyph name="plusminus" format="1">
  <advance width="761"/>
  <unicode hex="00B1"/>
  <outline>
    <contour>
      <point x="60" y="622" type="line"/>
      <point x="60" y="854" type="line"/>
      <point x="268" y="854" type="line"/>
      <point x="268" y="1062" type="line"/>
      <point x="500" y="1062" type="line"/>
      <point x="500" y="854" type="line"/>
      <point x="708" y="854" type="line"/>
      <point x="708" y="622" type="line"/>
      <point x="500" y="622" type="line"/>
      <point x="500" y="414" type="line"/>
      <point x="268" y="414" type="line"/>
      <point x="268" y="622" type="line"/>
    </contour>
    <contour>
      <point x="101" y="-1" type="line"/>
      <point x="101" y="231" type="line"/>
      <point x="617" y="231" type="line"/>
      <point x="617" y="-1" type="line"/>
    </contour>
  </outline>
</glyph>
<glyph name="twosuperior" format="1">
  <advance width="646"/>
  <unicode hex="00B2"/>
  <outline>
    <contour>
      <point x="61" y="631" type="line"/>
      <point x="61" y="678" type="line"/>
      <point x="61" y="823"/>
      <point x="165" y="976" type="qcurve"/>
      <point x="203" y="1032"/>
      <point x="324" y="1178" type="qcurve"/>
      <point x="375" y="1238"/>
      <point x="375" y="1341" type="qcurve"/>
      <point x="375" y="1424"/>
      <point x="322" y="1424" type="qcurve"/>
      <point x="271" y="1424"/>
      <point x="271" y="1337" type="qcurve"/>
      <point x="271" y="1218" type="line"/>
      <point x="61" y="1218" type="line"/>
      <point x="59" y="1278" type="line"/>
      <point x="59" y="1450"/>
      <point x="174" y="1606"/>
      <point x="324" y="1606" type="qcurve"/>
      <point x="446" y="1606"/>
      <point x="587" y="1472"/>
      <point x="587" y="1344" type="qcurve"/>
      <point x="587" y="1273"/>
      <point x="547" y="1147"/>
      <point x="479" y="1046"/>
      <point x="409" y="960"/>
      <point x="330" y="858"/>
      <point x="307" y="814" type="qcurve"/>
      <point x="580" y="814" type="line"/>
      <point x="580" y="631" type="line"/>
    </contour>
  </outline>
</glyph>
<glyph name="uni00B2" format="1">
  <advance width="646"/>
  <unicode hex="00B2"/>
  <outline>
    <contour>
      <point x="587" y="1344" type="curve" smooth="yes"/>
      <point x="587" y="1084.74"/>
      <point x="397.191" y="986.539"/>
      <point x="307" y="814" type="curve"/>
      <point x="580" y="814" type="line"/>
      <point x="580" y="631" type="line"/>
      <point x="61" y="631" type="line"/>
      <point x="61" y="678" type="line" smooth="yes"/>
      <point x="61" y="889.948"/>
      <point x="188.787" y="1014.85"/>
      <point x="324" y="1178" type="curve" smooth="yes"/>
      <point x="358" y="1218"/>
      <point x="375" y="1272.33"/>
      <point x="375" y="1341" type="curve" smooth="yes"/>
      <point x="375" y="1396.33"/>
      <point x="357.333" y="1424"/>
      <point x="322" y="1424" type="curve" smooth="yes"/>
      <point x="288" y="1424"/>
      <point x="271" y="1395"/>
      <point x="271" y="1337" type="curve" smooth="yes"/>
      <point x="271" y="1218" type="line"/>
      <point x="61" y="1218" type="line"/>
      <point x="59" y="1278" type="line"/>
      <point x="59" y="1495.51"/>
      <point x="113.258" y="1606"/>
      <point x="324" y="1606" type="curve" smooth="yes"/>
      <point x="489.301" y="1606"/>
      <point x="587" y="1511.42"/>
    </contour>
  </outline>
</glyph>
<glyph name="threesuperior" format="1">
  <advance width="629"/>
  <unicode hex="00B3"/>
  <outline>
    <contour>
      <point x="302" y="635" type="qcurve"/>
      <point x="178" y="635"/>
      <point x="53" y="763"/>
      <point x="53" y="904" type="qcurve"/>
      <point x="53" y="1004" type="line"/>
      <point x="255" y="1004" type="line"/>
      <point x="255" y="903" type="line"/>
      <point x="255" y="871"/>
      <point x="266" y="831"/>
      <point x="287" y="817"/>
      <point x="301" y="813"/>
      <point x="312" y="813" type="qcurve"/>
      <point x="340" y="813"/>
      <point x="363" y="861"/>
      <point x="363" y="935" type="qcurve"/>
      <point x="363" y="954"/>
      <point x="362" y="972"/>
      <point x="359" y="1015"/>
      <point x="348" y="1039"/>
      <point x="330" y="1068"/>
      <point x="300" y="1082"/>
      <point x="279" y="1082" type="qcurve"/>
      <point x="266" y="1082"/>
      <point x="259" y="1081" type="qcurve"/>
      <point x="259" y="1254" type="line"/>
      <point x="310" y="1254"/>
      <point x="364" y="1296"/>
      <point x="364" y="1349" type="qcurve"/>
      <point x="364" y="1430"/>
      <point x="316" y="1430" type="qcurve"/>
      <point x="292" y="1430"/>
      <point x="268" y="1408"/>
      <point x="265" y="1375"/>
      <point x="264" y="1335"/>
      <point x="263" y="1317" type="qcurve"/>
      <point x="59" y="1317" type="line"/>
      <point x="58" y="1351" type="line"/>
      <point x="59" y="1494"/>
      <point x="193" y="1606"/>
      <point x="315" y="1606" type="qcurve"/>
      <point x="567" y="1606"/>
      <point x="567" y="1351" type="qcurve"/>
      <point x="567" y="1318"/>
      <point x="560" y="1268"/>
      <point x="542" y="1217"/>
      <point x="504" y="1180"/>
      <point x="475" y="1170" type="qcurve"/>
      <point x="513" y="1153"/>
      <point x="548" y="1115"/>
      <point x="570" y="1022"/>
      <point x="570" y="935" type="qcurve"/>
      <point x="570" y="789"/>
      <point x="444" y="635"/>
    </contour>
  </outline>
</glyph>
<glyph name="uni00B3" format="1">
  <advance width="629"/>
  <unicode hex="00B3"/>
  <outline>
    <contour>
      <point x="570" y="935" type="curve" smooth="yes"/>
      <point x="570" y="742.714"/>
      <point x="493.663" y="635"/>
      <point x="302" y="635" type="curve" smooth="yes"/>
      <point x="128.29" y="635"/>
      <point x="53" y="724.579"/>
      <point x="53" y="904" type="curve" smooth="yes"/>
      <point x="53" y="1004" type="line"/>
      <point x="255" y="1004" type="line"/>
      <point x="255" y="903" type="line" smooth="yes"/>
      <point x="255" y="850.887"/>
      <point x="263.763" y="813"/>
      <point x="312" y="813" type="curve" smooth="yes"/>
      <point x="363.21" y="813"/>
      <point x="363" y="865.282"/>
      <point x="363" y="935" type="curve" smooth="yes"/>
      <point x="363" y="1010.67"/>
      <point x="354.739" y="1082"/>
      <point x="279" y="1082" type="curve" smooth="yes"/>
      <point x="270.333" y="1082"/>
      <point x="263.667" y="1081.67"/>
      <point x="259" y="1081" type="curve"/>
      <point x="259" y="1254" type="line"/>
      <point x="328.004" y="1254"/>
      <point x="364" y="1278.99"/>
      <point x="364" y="1349" type="curve" smooth="yes"/>
      <point x="364" y="1403"/>
      <point x="348" y="1430"/>
      <point x="316" y="1430" type="curve" smooth="yes"/>
      <point x="255.091" y="1430"/>
      <point x="266.103" y="1372.85"/>
      <point x="263" y="1317" type="curve"/>
      <point x="59" y="1317" type="line"/>
      <point x="58" y="1351" type="line"/>
      <point x="59.2632" y="1531.64"/>
      <point x="141.187" y="1606"/>
      <point x="315" y="1606" type="curve" smooth="yes"/>
      <point x="483" y="1606"/>
      <point x="567" y="1521"/>
      <point x="567" y="1351" type="curve" smooth="yes"/>
      <point x="567" y="1258"/>
      <point x="545.262" y="1194.23"/>
      <point x="475" y="1170" type="curve"/>
      <point x="559.162" y="1132.35"/>
      <point x="570" y="1065.66"/>
    </contour>
  </outline>
</glyph>
<glyph name="acute" format="1">
  <advance width="650"/>
  <unicode hex="00B4"/>
  <outline>
    <contour>
      <point x="41" y="1553" type="line"/>
      <point x="41" y="1776" type="line"/>
      <point x="516" y="1994" type="line"/>
      <point x="516" y="1647" type="line"/>
    </contour>
  </outline>
</glyph>
<glyph name="mu" format="1">
  <advance width="1070"/>
  <unicode hex="00B5"/>
  <outline>
    <contour>
      <point x="619" y="1500" type="line"/>
      <point x="975" y="1500" type="line"/>
      <point x="975" y="0" type="line"/>
      <point x="617" y="0" type="line"/>
      <point x="617" y="160" type="line"/>
      <point x="585" y="78"/>
      <point x="504" y="-1"/>
      <point x="453" y="-11" type="qcurve"/>
      <point x="453" y="-186" type="line"/>
      <point x="93" y="-186" type="line"/>
      <point x="93" y="1500" type="line"/>
      <point x="453" y="1500" type="line"/>
      <point x="453" y="455" type="line"/>
      <point x="453" y="341"/>
      <point x="480" y="264"/>
      <point x="533" y="264" type="qcurve"/>
      <point x="553" y="264"/>
      <point x="584" y="279"/>
      <point x="601" y="311"/>
      <point x="612" y="341"/>
      <point x="616" y="390"/>
      <point x="617" y="418"/>
      <point x="617" y="443" type="qcurve"/>
      <point x="617" y="451"/>
      <point x="617" y="455" type="qcurve"/>
    </contour>
  </outline>
</glyph>
<glyph name="uni00B5" format="1">
  <advance width="1070"/>
  <unicode hex="00B5"/>
  <outline>
    <contour>
      <point x="533" y="264" type="curve" smooth="yes"/>
      <point x="615.714" y="264"/>
      <point x="617" y="359.958"/>
      <point x="617" y="443" type="curve" smooth="yes"/>
      <point x="617" y="455" type="line"/>
      <point x="619" y="1500" type="line"/>
      <point x="975" y="1500" type="line"/>
      <point x="975" y="0" type="line"/>
      <point x="617" y="0" type="line"/>
      <point x="617" y="160" type="line"/>
      <point x="582.781" y="72.3149"/>
      <point x="540.421" y="6.14133"/>
      <point x="453" y="-11" type="curve"/>
      <point x="453" y="-186" type="line"/>
      <point x="93" y="-186" type="line"/>
      <point x="93" y="1500" type="line"/>
      <point x="453" y="1500" type="line"/>
      <point x="453" y="455" type="line" smooth="yes"/>
      <point x="453" y="341.941"/>
      <point x="444.644" y="264"/>
    </contour>
  </outline>
</glyph>
<glyph name="paragraph" format="1">
  <advance width="1080"/>
  <unicode hex="00B6"/>
  <outline>
    <contour>
      <point x="44" y="1210" type="curve" smooth="yes"/>
      <point x="44" y="1516.08"/>
      <point x="287.21" y="1593"/>
      <point x="595" y="1593" type="curve" smooth="yes"/>
      <point x="970" y="1593" type="line"/>
      <point x="970" y="0" type="line"/>
      <point x="731" y="0" type="line"/>
      <point x="731" y="1287" type="line"/>
      <point x="637" y="1287" type="line"/>
      <point x="637" y="0" type="line"/>
      <point x="391" y="0" type="line"/>
      <point x="391" y="797" type="line"/>
      <point x="151.951" y="823.035"/>
      <point x="44" y="949.029"/>
    </contour>
  </outline>
</glyph>
<glyph name="periodcentered" format="1">
  <advance width="491"/>
  <unicode hex="00B7"/>
  <outline>
    <contour>
      <point x="67" y="723" type="line"/>
      <point x="67" y="1021" type="line"/>
      <point x="425" y="1021" type="line"/>
      <point x="425" y="723" type="line"/>
    </contour>
  </outline>
</glyph>
<glyph name="cedilla" format="1">
  <advance width="1015"/>
  <unicode hex="00B8"/>
  <outline>
    <contour>
      <point x="306" y="-591" type="qcurve"/>
      <point x="306" y="-591"/>
      <point x="306" y="-368" type="qcurve"/>
      <point x="372" y="-391"/>
      <point x="422" y="-391" type="qcurve"/>
      <point x="475" y="-391"/>
      <point x="537" y="-337"/>
      <point x="537" y="-279" type="qcurve"/>
      <point x="537" y="-223"/>
      <point x="452" y="-122"/>
      <point x="377" y="-106" type="qcurve"/>
      <point x="377" y="0" type="line"/>
      <point x="588" y="0" type="line"/>
      <point x="588" y="-76" type="line"/>
      <point x="715" y="-93"/>
      <point x="852" y="-237"/>
      <point x="852" y="-330" type="qcurve"/>
      <point x="852" y="-469"/>
      <point x="651" y="-631"/>
      <point x="504" y="-631" type="qcurve"/>
      <point x="402" y="-631"/>
    </contour>
  </outline>
</glyph>
<glyph name="onesuperior" format="1">
  <advance width="441"/>
  <unicode hex="00B9"/>
  <outline>
    <contour>
      <point x="200" y="1607" type="qcurve"/>
      <point x="359" y="1607" type="line"/>
      <point x="359" y="656" type="line"/>
      <point x="149" y="656" type="line"/>
      <point x="149" y="1364" type="line"/>
      <point x="90" y="1334"/>
      <point x="26" y="1334" type="qcurve"/>
      <point x="28" y="1398"/>
      <point x="28" y="1444" type="qcurve"/>
      <point x="28" y="1481"/>
      <point x="26" y="1487" type="qcurve"/>
      <point x="68" y="1487"/>
      <point x="200" y="1558"/>
    </contour>
  </outline>
</glyph>
<glyph name="uni00B9" format="1">
  <advance width="441"/>
  <unicode hex="00B9"/>
  <outline>
    <contour>
      <point x="26" y="1487" type="curve"/>
      <point x="84.4" y="1487"/>
      <point x="200" y="1545.29"/>
      <point x="200" y="1607" type="curve"/>
      <point x="359" y="1607" type="line"/>
      <point x="359" y="656" type="line"/>
      <point x="149" y="656" type="line"/>
      <point x="149" y="1364" type="line"/>
      <point x="109.667" y="1344"/>
      <point x="68.6667" y="1334"/>
      <point x="26" y="1334" type="curve"/>
      <point x="27.3333" y="1376.67"/>
      <point x="28" y="1413.33"/>
      <point x="28" y="1444" type="curve" smooth="yes"/>
      <point x="28" y="1468.67"/>
      <point x="27.3333" y="1483"/>
    </contour>
  </outline>
</glyph>
<glyph name="ordmasculine" format="1">
  <advance width="844"/>
  <unicode hex="00BA"/>
  <outline>
    <contour>
      <point x="778" y="757" type="line" smooth="yes"/>
      <point x="778" y="514.663"/>
      <point x="660.743" y="387"/>
      <point x="422" y="387" type="curve" smooth="yes"/>
      <point x="184.667" y="387"/>
      <point x="66" y="510.333"/>
      <point x="66" y="757" type="curve" smooth="yes"/>
      <point x="66" y="1235" type="line" smooth="yes"/>
      <point x="66" y="1456.35"/>
      <point x="198.088" y="1605"/>
      <point x="419" y="1605" type="curve" smooth="yes"/>
      <point x="422" y="1605" type="line" smooth="yes"/>
      <point x="645.256" y="1605"/>
      <point x="778" y="1459.61"/>
      <point x="778" y="1235" type="curve" smooth="yes"/>
    </contour>
    <contour>
      <point x="355" y="699" type="line" smooth="yes"/>
      <point x="355" y="585.978"/>
      <point x="488" y="569.47"/>
      <point x="488" y="699" type="curve" smooth="yes"/>
      <point x="488" y="1280" type="line" smooth="yes"/>
      <point x="488" y="1349.33"/>
      <point x="465.833" y="1384"/>
      <point x="421.5" y="1384" type="curve" smooth="yes"/>
      <point x="377.167" y="1384"/>
      <point x="355" y="1349.33"/>
      <point x="355" y="1280" type="curve" smooth="yes"/>
    </contour>
  </outline>
</glyph>
<glyph name="guillemotright" format="1">
  <advance width="1216"/>
  <unicode hex="00BB"/>
  <outline>
    <contour>
      <point x="593" y="545" type="line"/>
      <point x="83" y="260" type="line"/>
      <point x="83" y="618" type="line"/>
      <point x="395" y="749" type="line"/>
      <point x="83" y="871" type="line"/>
      <point x="83" y="1230" type="line"/>
      <point x="593" y="959" type="line"/>
    </contour>
    <contour>
      <point x="1170" y="545" type="line"/>
      <point x="660" y="260" type="line"/>
      <point x="660" y="618" type="line"/>
      <point x="972" y="749" type="line"/>
      <point x="660" y="871" type="line"/>
      <point x="660" y="1230" type="line"/>
      <point x="1170" y="959" type="line"/>
    </contour>
  </outline>
</glyph>
<glyph name="onequarter" format="1">
  <advance width="1435"/>
  <unicode hex="00BC"/>
  <outline>
    <contour>
      <point x="42" y="1487" type="curve"/>
      <point x="100.4" y="1487"/>
      <point x="216" y="1545.29"/>
      <point x="216" y="1607" type="curve"/>
      <point x="375" y="1607" type="line"/>
      <point x="375" y="656" type="line"/>
      <point x="165" y="656" type="line"/>
      <point x="165" y="1364" type="line"/>
      <point x="125.667" y="1344"/>
      <point x="84.6667" y="1334"/>
      <point x="42" y="1334" type="curve"/>
      <point x="43.3333" y="1376.67"/>
      <point x="44" y="1413.33"/>
      <point x="44" y="1444" type="curve" smooth="yes"/>
      <point x="44" y="1468.67"/>
      <point x="43.3333" y="1483"/>
    </contour>
    <contour>
      <point x="616" y="0" type="line"/>
      <point x="333" y="0" type="line"/>
      <point x="823" y="1767" type="line"/>
      <point x="1107" y="1767" type="line"/>
    </contour>
    <contour>
      <point x="1379" y="322" type="line"/>
      <point x="1379" y="151" type="line"/>
      <point x="1340" y="151" type="line"/>
      <point x="1340" y="-1" type="line"/>
      <point x="1133" y="-1" type="line"/>
      <point x="1133" y="151" type="line"/>
      <point x="830" y="151" type="line"/>
      <point x="830" y="300" type="line"/>
      <point x="1017" y="941" type="line"/>
      <point x="1340" y="941" type="line"/>
      <point x="1340" y="322" type="line"/>
    </contour>
    <contour>
      <point x="1023" y="322" type="line"/>
      <point x="1133" y="322" type="line"/>
      <point x="1133" y="727" type="line"/>
    </contour>
  </outline>
</glyph>
<glyph name="onehalf" format="1">
  <advance width="1601"/>
  <unicode hex="00BD"/>
  <outline>
    <contour>
      <point x="41" y="1487" type="curve"/>
      <point x="99.4" y="1487"/>
      <point x="215" y="1545.29"/>
      <point x="215" y="1607" type="curve"/>
      <point x="374" y="1607" type="line"/>
      <point x="374" y="656" type="line"/>
      <point x="164" y="656" type="line"/>
      <point x="164" y="1364" type="line"/>
      <point x="124.667" y="1344"/>
      <point x="83.6667" y="1334"/>
      <point x="41" y="1334" type="curve"/>
      <point x="42.3333" y="1376.67"/>
      <point x="43" y="1413.33"/>
      <point x="43" y="1444" type="curve" smooth="yes"/>
      <point x="43" y="1468.67"/>
      <point x="42.3333" y="1483"/>
    </contour>
    <contour>
      <point x="673" y="0" type="line"/>
      <point x="390" y="0" type="line"/>
      <point x="880" y="1767" type="line"/>
      <point x="1164" y="1767" type="line"/>
    </contour>
    <contour>
      <point x="1545" y="712" type="curve" smooth="yes"/>
      <point x="1545" y="452.739"/>
      <point x="1355.19" y="354.539"/>
      <point x="1265" y="182" type="curve"/>
      <point x="1538" y="182" type="line"/>
      <point x="1538" y="-1" type="line"/>
      <point x="1019" y="-1" type="line"/>
      <point x="1019" y="46" type="line" smooth="yes"/>
      <point x="1019" y="257.948"/>
      <point x="1146.79" y="382.85"/>
      <point x="1282" y="546" type="curve" smooth="yes"/>
      <point x="1316" y="586"/>
      <point x="1333" y="640.333"/>
      <point x="1333" y="709" type="curve" smooth="yes"/>
      <point x="1333" y="764.333"/>
      <point x="1315.33" y="792"/>
      <point x="1280" y="792" type="curve" smooth="yes"/>
      <point x="1246" y="792"/>
      <point x="1229" y="763"/>
      <point x="1229" y="705" type="curve" smooth="yes"/>
      <point x="1229" y="586" type="line"/>
      <point x="1019" y="586" type="line"/>
      <point x="1017" y="646" type="line"/>
      <point x="1017" y="863.507"/>
      <point x="1071.26" y="974"/>
      <point x="1282" y="974" type="curve" smooth="yes"/>
      <point x="1447.3" y="974"/>
      <point x="1545" y="879.425"/>
    </contour>
  </outline>
</glyph>
<glyph name="threequarters" format="1">
  <advance width="1546"/>
  <unicode hex="00BE"/>
  <outline>
    <contour>
      <point x="569" y="935" type="curve" smooth="yes"/>
      <point x="569" y="742.714"/>
      <point x="492.663" y="635"/>
      <point x="301" y="635" type="curve" smooth="yes"/>
      <point x="127.29" y="635"/>
      <point x="52" y="724.579"/>
      <point x="52" y="904" type="curve" smooth="yes"/>
      <point x="52" y="1004" type="line"/>
      <point x="254" y="1004" type="line"/>
      <point x="254" y="903" type="line" smooth="yes"/>
      <point x="254" y="850.887"/>
      <point x="262.763" y="813"/>
      <point x="311" y="813" type="curve" smooth="yes"/>
      <point x="362.21" y="813"/>
      <point x="362" y="865.282"/>
      <point x="362" y="935" type="curve" smooth="yes"/>
      <point x="362" y="1010.67"/>
      <point x="353.739" y="1082"/>
      <point x="278" y="1082" type="curve" smooth="yes"/>
      <point x="269.333" y="1082"/>
      <point x="262.667" y="1081.67"/>
      <point x="258" y="1081" type="curve"/>
      <point x="258" y="1254" type="line"/>
      <point x="327.004" y="1254"/>
      <point x="363" y="1278.99"/>
      <point x="363" y="1349" type="curve" smooth="yes"/>
      <point x="363" y="1403"/>
      <point x="347" y="1430"/>
      <point x="315" y="1430" type="curve" smooth="yes"/>
      <point x="254.091" y="1430"/>
      <point x="265.103" y="1372.85"/>
      <point x="262" y="1317" type="curve"/>
      <point x="58" y="1317" type="line"/>
      <point x="57" y="1351" type="line"/>
      <point x="58.2632" y="1531.64"/>
      <point x="140.187" y="1606"/>
      <point x="314" y="1606" type="curve" smooth="yes"/>
      <point x="482" y="1606"/>
      <point x="566" y="1521"/>
      <point x="566" y="1351" type="curve" smooth="yes"/>
      <point x="566" y="1258"/>
      <point x="544.262" y="1194.23"/>
      <point x="474" y="1170" type="curve"/>
      <point x="558.162" y="1132.35"/>
      <point x="569" y="1065.66"/>
    </contour>
    <contour>
      <point x="762" y="0" type="line"/>
      <point x="479" y="0" type="line"/>
      <point x="969" y="1767" type="line"/>
      <point x="1253" y="1767" type="line"/>
    </contour>
    <contour>
      <point x="1497" y="324" type="line"/>
      <point x="1497" y="153" type="line"/>
      <point x="1458" y="153" type="line"/>
      <point x="1458" y="1" type="line"/>
      <point x="1251" y="1" type="line"/>
      <point x="1251" y="153" type="line"/>
      <point x="948" y="153" type="line"/>
      <point x="948" y="302" type="line"/>
      <point x="1135" y="943" type="line"/>
      <point x="1458" y="943" type="line"/>
      <point x="1458" y="324" type="line"/>
    </contour>
    <contour>
      <point x="1141" y="324" type="line"/>
      <point x="1251" y="324" type="line"/>
      <point x="1251" y="729" type="line"/>
    </contour>
  </outline>
</glyph>
<glyph name="questiondown" format="1">
  <advance width="1041"/>
  <unicode hex="00BF"/>
  <outline>
    <contour>
      <point x="519" y="-17" type="qcurve"/>
      <point x="433" y="-17"/>
      <point x="294" y="15"/>
      <point x="197" y="69"/>
      <point x="125" y="152"/>
      <point x="83" y="242"/>
      <point x="58" y="359"/>
      <point x="49" y="467"/>
      <point x="49" y="533" type="qcurve"/>
      <point x="49" y="654"/>
      <point x="107" y="852"/>
      <point x="227" y="1008"/>
      <point x="430" y="1094"/>
      <point x="567" y="1094" type="qcurve"/>
      <point x="567" y="1264" type="line"/>
      <point x="900" y="1264" type="line"/>
      <point x="900" y="848" type="line"/>
      <point x="817" y="848"/>
      <point x="691" y="840"/>
      <point x="592" y="818"/>
      <point x="524" y="791"/>
      <point x="475" y="741"/>
      <point x="447" y="690"/>
      <point x="431" y="606"/>
      <point x="426" y="526"/>
      <point x="426" y="465" type="qcurve"/>
      <point x="426" y="389"/>
      <point x="465" y="302"/>
      <point x="519" y="302" type="qcurve"/>
      <point x="533" y="302"/>
      <point x="553" y="305"/>
      <point x="582" y="326"/>
      <point x="600" y="363"/>
      <point x="613" y="436"/>
      <point x="613" y="488" type="qcurve"/>
      <point x="613" y="634" type="line"/>
      <point x="979" y="634" type="line"/>
      <point x="979" y="380" type="line"/>
      <point x="979" y="182"/>
      <point x="728" y="-17"/>
    </contour>
    <contour>
      <point x="911" y="1672" type="line"/>
      <point x="911" y="1374" type="line"/>
      <point x="553" y="1374" type="line"/>
      <point x="553" y="1672" type="line"/>
    </contour>
  </outline>
</glyph>
<glyph name="Aacute" format="1">
  <advance width="947"/>
  <unicode hex="00C1"/>
  <outline>
    <contour>
      <point x="750" y="1593" type="line"/>
      <point x="926" y="0" type="line"/>
      <point x="586" y="0" type="line"/>
      <point x="561" y="240" type="line"/>
      <point x="383" y="240" type="line"/>
      <point x="361" y="0" type="line"/>
      <point x="19" y="0" type="line"/>
      <point x="199" y="1593" type="line"/>
    </contour>
    <contour>
      <point x="487" y="1294" type="line"/>
      <point x="455" y="1294" type="line"/>
      <point x="408" y="530" type="line"/>
      <point x="534" y="530" type="line"/>
    </contour>
    <contour>
      <point x="210" y="1645" type="line"/>
      <point x="210" y="1868" type="line"/>
      <point x="685" y="2086" type="line"/>
      <point x="685" y="1739" type="line"/>
    </contour>
  </outline>
</glyph>
<glyph name="Acircumflex" format="1">
  <advance width="947"/>
  <unicode hex="00C2"/>
  <outline>
    <contour>
      <point x="750" y="1593" type="line"/>
      <point x="926" y="0" type="line"/>
      <point x="586" y="0" type="line"/>
      <point x="561" y="240" type="line"/>
      <point x="383" y="240" type="line"/>
      <point x="361" y="0" type="line"/>
      <point x="19" y="0" type="line"/>
      <point x="199" y="1593" type="line"/>
    </contour>
    <contour>
      <point x="487" y="1294" type="line"/>
      <point x="455" y="1294" type="line"/>
      <point x="408" y="530" type="line"/>
      <point x="534" y="530" type="line"/>
    </contour>
    <contour>
      <point x="678" y="2086" type="line"/>
      <point x="919" y="1683" type="line"/>
      <point x="560" y="1683" type="line"/>
      <point x="474" y="1968" type="line"/>
      <point x="388" y="1683" type="line"/>
      <point x="29" y="1683" type="line"/>
      <point x="270" y="2086" type="line"/>
    </contour>
  </outline>
</glyph>
<glyph name="Atilde" format="1">
  <advance width="947"/>
  <unicode hex="00C3"/>
  <outline>
    <contour>
      <point x="750" y="1593" type="line"/>
      <point x="926" y="0" type="line"/>
      <point x="586" y="0" type="line"/>
      <point x="561" y="240" type="line"/>
      <point x="383" y="240" type="line"/>
      <point x="361" y="0" type="line"/>
      <point x="19" y="0" type="line"/>
      <point x="199" y="1593" type="line"/>
    </contour>
    <contour>
      <point x="487" y="1294" type="line"/>
      <point x="455" y="1294" type="line"/>
      <point x="408" y="530" type="line"/>
      <point x="534" y="530" type="line"/>
    </contour>
    <contour>
      <point x="337" y="1804" type="qcurve"/>
      <point x="305" y="1804"/>
      <point x="279" y="1715" type="qcurve"/>
      <point x="57" y="1821" type="line"/>
      <point x="110" y="1951"/>
      <point x="245" y="2080"/>
      <point x="337" y="2080" type="qcurve"/>
      <point x="375" y="2080"/>
      <point x="463" y="2026"/>
      <point x="547" y="1972"/>
      <point x="613" y="1972"/>
      <point x="639" y="2051" type="qcurve"/>
      <point x="871" y="1995" type="line"/>
      <point x="816" y="1845"/>
      <point x="674" y="1694"/>
      <point x="579" y="1694" type="qcurve"/>
      <point x="544" y="1694"/>
      <point x="472" y="1728"/>
      <point x="423" y="1770"/>
      <point x="362" y="1804"/>
    </contour>
  </outline>
</glyph>
<glyph name="Aring" format="1">
  <advance width="947"/>
  <unicode hex="00C5"/>
  <outline>
    <contour>
      <point x="750" y="1593" type="line"/>
      <point x="926" y="0" type="line"/>
      <point x="586" y="0" type="line"/>
      <point x="561" y="240" type="line"/>
      <point x="383" y="240" type="line"/>
      <point x="361" y="0" type="line"/>
      <point x="19" y="0" type="line"/>
      <point x="199" y="1593" type="line"/>
    </contour>
    <contour>
      <point x="487" y="1294" type="line"/>
      <point x="455" y="1294" type="line"/>
      <point x="408" y="530" type="line"/>
      <point x="534" y="530" type="line"/>
    </contour>
    <contour>
      <point x="369" y="1883" type="qcurve"/>
      <point x="333" y="1930"/>
      <point x="333" y="2056"/>
      <point x="406" y="2150"/>
      <point x="544" y="2150"/>
      <point x="617" y="2056"/>
      <point x="617" y="1930"/>
      <point x="544" y="1836"/>
      <point x="406" y="1836"/>
    </contour>
    <contour>
      <point x="215" y="2240" type="qcurve"/>
      <point x="121" y="2149"/>
      <point x="121" y="1837"/>
      <point x="310" y="1655"/>
      <point x="638" y="1655"/>
      <point x="828" y="1837"/>
      <point x="828" y="2149"/>
      <point x="638" y="2331"/>
      <point x="310" y="2331"/>
    </contour>
  </outline>
</glyph>
<glyph name="AE" format="1">
  <advance width="1294"/>
  <unicode hex="00C6"/>
  <outline>
    <contour>
      <point x="579" y="0" type="line"/>
      <point x="578" y="120" type="line"/>
      <point x="578" y="240" type="line"/>
      <point x="370" y="240" type="line"/>
      <point x="331" y="0" type="line"/>
      <point x="-10" y="0" type="line"/>
      <point x="311" y="1593" type="line"/>
      <point x="1223" y="1593" type="line"/>
      <point x="1223" y="1284" type="line"/>
      <point x="937" y="1284" type="line"/>
      <point x="937" y="973" type="line"/>
      <point x="1209" y="973" type="line"/>
      <point x="1209" y="674" type="line"/>
      <point x="937" y="674" type="line"/>
      <point x="937" y="311" type="line"/>
      <point x="1246" y="311" type="line"/>
      <point x="1246" y="0" type="line"/>
    </contour>
    <contour>
      <point x="574" y="1294" type="line"/>
      <point x="546" y="1294" type="line"/>
      <point x="416" y="530" type="line"/>
      <point x="574" y="530" type="line"/>
    </contour>
  </outline>
</glyph>
<glyph name="Ccedilla" format="1">
  <advance width="994"/>
  <unicode hex="00C7"/>
  <outline>
    <contour>
      <point x="938" y="686" type="line"/>
      <point x="582" y="686" type="line"/>
      <point x="582" y="412" type="line"/>
      <point x="582" y="344"/>
      <point x="532" y="291"/>
      <point x="498" y="291" type="qcurve"/>
      <point x="461" y="291"/>
      <point x="416" y="363"/>
      <point x="416" y="412" type="qcurve"/>
      <point x="416" y="1165" type="line"/>
      <point x="416" y="1221"/>
      <point x="448" y="1284"/>
      <point x="498" y="1284" type="qcurve"/>
      <point x="582" y="1284"/>
      <point x="582" y="1141" type="qcurve"/>
      <point x="582" y="956" type="line"/>
      <point x="930" y="956" type="line"/>
      <point x="930" y="1237" type="line"/>
      <point x="930" y="1330"/>
      <point x="862" y="1473"/>
      <point x="743" y="1561"/>
      <point x="589" y="1606"/>
      <point x="498" y="1606" type="qcurve"/>
      <point x="275" y="1606"/>
      <point x="66" y="1371"/>
      <point x="66" y="1134" type="qcurve"/>
      <point x="66" y="395" type="line"/>
      <point x="66" y="197"/>
      <point x="302" y="-18"/>
      <point x="490" y="-18" type="qcurve"/>
      <point x="702" y="-18"/>
      <point x="938" y="177"/>
      <point x="938" y="385" type="qcurve"/>
    </contour>
    <contour>
      <point x="229" y="-591" type="qcurve"/>
      <point x="229" y="-591"/>
      <point x="229" y="-368" type="qcurve"/>
      <point x="295" y="-391"/>
      <point x="345" y="-391" type="qcurve"/>
      <point x="398" y="-391"/>
      <point x="460" y="-337"/>
      <point x="460" y="-279" type="qcurve"/>
      <point x="460" y="-223"/>
      <point x="375" y="-122"/>
      <point x="300" y="-106" type="qcurve"/>
      <point x="300" y="0" type="line"/>
      <point x="511" y="0" type="line"/>
      <point x="511" y="-76" type="line"/>
      <point x="638" y="-93"/>
      <point x="775" y="-237"/>
      <point x="775" y="-330" type="qcurve"/>
      <point x="775" y="-469"/>
      <point x="574" y="-631"/>
      <point x="427" y="-631" type="qcurve"/>
      <point x="325" y="-631"/>
    </contour>
  </outline>
</glyph>
<glyph name="Egrave" format="1">
  <advance width="862"/>
  <unicode hex="00C8"/>
  <outline>
    <contour>
      <point x="87" y="0" type="line"/>
      <point x="87" y="1593" type="line"/>
      <point x="791" y="1593" type="line"/>
      <point x="791" y="1284" type="line"/>
      <point x="445" y="1284" type="line"/>
      <point x="445" y="973" type="line"/>
      <point x="777" y="973" type="line"/>
      <point x="777" y="674" type="line"/>
      <point x="445" y="674" type="line"/>
      <point x="445" y="311" type="line"/>
      <point x="814" y="311" type="line"/>
      <point x="814" y="0" type="line"/>
    </contour>
    <contour>
      <point x="672" y="1645" type="line"/>
      <point x="197" y="1739" type="line"/>
      <point x="197" y="2086" type="line"/>
      <point x="672" y="1868" type="line"/>
    </contour>
  </outline>
</glyph>
<glyph name="Eacute" format="1">
  <advance width="862"/>
  <unicode hex="00C9"/>
  <outline>
    <contour>
      <point x="87" y="0" type="line"/>
      <point x="87" y="1593" type="line"/>
      <point x="791" y="1593" type="line"/>
      <point x="791" y="1284" type="line"/>
      <point x="445" y="1284" type="line"/>
      <point x="445" y="973" type="line"/>
      <point x="777" y="973" type="line"/>
      <point x="777" y="674" type="line"/>
      <point x="445" y="674" type="line"/>
      <point x="445" y="311" type="line"/>
      <point x="814" y="311" type="line"/>
      <point x="814" y="0" type="line"/>
    </contour>
    <contour>
      <point x="187" y="1645" type="line"/>
      <point x="187" y="1868" type="line"/>
      <point x="662" y="2086" type="line"/>
      <point x="662" y="1739" type="line"/>
    </contour>
  </outline>
</glyph>
<glyph name="Ecircumflex" format="1">
  <advance width="861"/>
  <unicode hex="00CA"/>
  <outline>
    <contour>
      <point x="87" y="0" type="line"/>
      <point x="87" y="1593" type="line"/>
      <point x="791" y="1593" type="line"/>
      <point x="791" y="1284" type="line"/>
      <point x="445" y="1284" type="line"/>
      <point x="445" y="973" type="line"/>
      <point x="777" y="973" type="line"/>
      <point x="777" y="674" type="line"/>
      <point x="445" y="674" type="line"/>
      <point x="445" y="311" type="line"/>
      <point x="814" y="311" type="line"/>
      <point x="814" y="0" type="line"/>
    </contour>
    <contour>
      <point x="655" y="2086" type="line"/>
      <point x="896" y="1683" type="line"/>
      <point x="537" y="1683" type="line"/>
      <point x="451" y="1968" type="line"/>
      <point x="365" y="1683" type="line"/>
      <point x="6" y="1683" type="line"/>
      <point x="247" y="2086" type="line"/>
    </contour>
  </outline>
</glyph>
<glyph name="Edieresis" format="1">
  <advance width="862"/>
  <unicode hex="00CB"/>
  <outline>
    <contour>
      <point x="87" y="0" type="line"/>
      <point x="87" y="1593" type="line"/>
      <point x="791" y="1593" type="line"/>
      <point x="791" y="1284" type="line"/>
      <point x="445" y="1284" type="line"/>
      <point x="445" y="973" type="line"/>
      <point x="777" y="973" type="line"/>
      <point x="777" y="674" type="line"/>
      <point x="445" y="674" type="line"/>
      <point x="445" y="311" type="line"/>
      <point x="814" y="311" type="line"/>
      <point x="814" y="0" type="line"/>
    </contour>
    <contour>
      <point x="30" y="1683" type="line"/>
      <point x="30" y="1981" type="line"/>
      <point x="388" y="1981" type="line"/>
      <point x="388" y="1683" type="line"/>
    </contour>
    <contour>
      <point x="514" y="1683" type="line"/>
      <point x="514" y="1981" type="line"/>
      <point x="872" y="1981" type="line"/>
      <point x="872" y="1683" type="line"/>
    </contour>
  </outline>
</glyph>
<glyph name="Iacute" format="1">
  <advance width="514"/>
  <unicode hex="00CD"/>
  <outline>
    <contour>
      <point x="87" y="0" type="line"/>
      <point x="87" y="1593" type="line"/>
      <point x="427" y="1593" type="line"/>
      <point x="427" y="0" type="line"/>
    </contour>
    <contour>
      <point x="-4" y="1645" type="line"/>
      <point x="-4" y="1868" type="line"/>
      <point x="471" y="2086" type="line"/>
      <point x="471" y="1739" type="line"/>
    </contour>
  </outline>
</glyph>
<glyph name="Icircumflex" format="1">
  <advance width="514"/>
  <unicode hex="00CE"/>
  <outline>
    <contour>
      <point x="87" y="0" type="line"/>
      <point x="87" y="1593" type="line"/>
      <point x="427" y="1593" type="line"/>
      <point x="427" y="0" type="line"/>
    </contour>
    <contour>
      <point x="464" y="2086" type="line"/>
      <point x="705" y="1683" type="line"/>
      <point x="346" y="1683" type="line"/>
      <point x="260" y="1968" type="line"/>
      <point x="174" y="1683" type="line"/>
      <point x="-185" y="1683" type="line"/>
      <point x="56" y="2086" type="line"/>
    </contour>
  </outline>
</glyph>
<glyph name="Idieresis" format="1">
  <advance width="514"/>
  <unicode hex="00CF"/>
  <outline>
    <contour>
      <point x="87" y="0" type="line"/>
      <point x="87" y="1593" type="line"/>
      <point x="427" y="1593" type="line"/>
      <point x="427" y="0" type="line"/>
    </contour>
    <contour>
      <point x="-161" y="1683" type="line"/>
      <point x="-161" y="1981" type="line"/>
      <point x="197" y="1981" type="line"/>
      <point x="197" y="1683" type="line"/>
    </contour>
    <contour>
      <point x="323" y="1683" type="line"/>
      <point x="323" y="1981" type="line"/>
      <point x="681" y="1981" type="line"/>
      <point x="681" y="1683" type="line"/>
    </contour>
  </outline>
</glyph>
<glyph name="Ntilde" format="1">
  <advance width="1038"/>
  <unicode hex="00D1"/>
  <outline>
    <contour>
      <point x="951" y="1593" type="line"/>
      <point x="951" y="0" type="line"/>
      <point x="607" y="0" type="line"/>
      <point x="431" y="797" type="line"/>
      <point x="431" y="0" type="line"/>
      <point x="87" y="0" type="line"/>
      <point x="87" y="1593" type="line"/>
      <point x="449" y="1593" type="line"/>
      <point x="611" y="831" type="line"/>
      <point x="611" y="1593" type="line"/>
    </contour>
    <contour>
      <point x="384" y="1804" type="qcurve"/>
      <point x="352" y="1804"/>
      <point x="326" y="1715" type="qcurve"/>
      <point x="104" y="1821" type="line"/>
      <point x="157" y="1951"/>
      <point x="292" y="2080"/>
      <point x="384" y="2080" type="qcurve"/>
      <point x="422" y="2080"/>
      <point x="510" y="2026"/>
      <point x="594" y="1972"/>
      <point x="660" y="1972"/>
      <point x="686" y="2051" type="qcurve"/>
      <point x="918" y="1995" type="line"/>
      <point x="863" y="1845"/>
      <point x="721" y="1694"/>
      <point x="626" y="1694" type="qcurve"/>
      <point x="591" y="1694"/>
      <point x="519" y="1728"/>
      <point x="470" y="1770"/>
      <point x="409" y="1804"/>
    </contour>
  </outline>
</glyph>
<glyph name="Oacute" format="1">
  <advance width="1000"/>
  <unicode hex="00D3"/>
  <outline>
    <contour>
      <point x="66" y="430" type="qcurve"/>
      <point x="66" y="1189" type="line"/>
      <point x="66" y="1388"/>
      <point x="281" y="1607"/>
      <point x="719" y="1607"/>
      <point x="934" y="1388"/>
      <point x="934" y="1189" type="qcurve"/>
      <point x="934" y="430" type="line"/>
      <point x="934" y="333"/>
      <point x="885" y="174"/>
      <point x="785" y="50"/>
      <point x="614" y="-18"/>
      <point x="386" y="-18"/>
      <point x="215" y="50"/>
      <point x="115" y="174"/>
      <point x="66" y="333"/>
    </contour>
    <contour>
      <point x="500" y="297" type="qcurve"/>
      <point x="519" y="297"/>
      <point x="548" y="312"/>
      <point x="565" y="343"/>
      <point x="575" y="371"/>
      <point x="579" y="418"/>
      <point x="580" y="443"/>
      <point x="580" y="465" type="qcurve"/>
      <point x="580" y="470"/>
      <point x="580" y="473" type="qcurve"/>
      <point x="580" y="1113" type="line"/>
      <point x="580" y="1119"/>
      <point x="581" y="1155"/>
      <point x="580" y="1173"/>
      <point x="579" y="1208"/>
      <point x="574" y="1227"/>
      <point x="567" y="1256"/>
      <point x="555" y="1271"/>
      <point x="539" y="1288"/>
      <point x="515" y="1295"/>
      <point x="500" y="1295" type="qcurve"/>
      <point x="479" y="1295"/>
      <point x="448" y="1281"/>
      <point x="430" y="1250"/>
      <point x="418" y="1225"/>
      <point x="414" y="1176"/>
      <point x="414" y="1155"/>
      <point x="414" y="1130" type="qcurve"/>
      <point x="414" y="1126"/>
      <point x="414" y="1120"/>
      <point x="414" y="1117" type="qcurve"/>
      <point x="414" y="477" type="line"/>
      <point x="414" y="455"/>
      <point x="415" y="429"/>
      <point x="419" y="379"/>
      <point x="430" y="348"/>
      <point x="448" y="314"/>
      <point x="479" y="297"/>
    </contour>
    <contour>
      <point x="232" y="1645" type="line"/>
      <point x="232" y="1868" type="line"/>
      <point x="707" y="2086" type="line"/>
      <point x="707" y="1739" type="line"/>
    </contour>
  </outline>
</glyph>
<glyph name="Oacute" format="1">
  <advance width="1000"/>
  <unicode hex="00D3"/>
  <outline>
    <contour>
      <point x="500" y="-18" type="curve" smooth="yes"/>
      <point x="212.425" y="-18"/>
      <point x="66" y="146.152"/>
      <point x="66" y="430" type="curve" smooth="yes"/>
      <point x="66" y="1189" type="line" smooth="yes"/>
      <point x="66" y="1463.99"/>
      <point x="218.298" y="1607"/>
      <point x="500" y="1607" type="curve" smooth="yes"/>
      <point x="781.739" y="1607"/>
      <point x="934" y="1464.02"/>
      <point x="934" y="1189" type="curve" smooth="yes"/>
      <point x="934" y="430" type="line" smooth="yes"/>
      <point x="934" y="146.152"/>
      <point x="787.576" y="-18"/>
    </contour>
    <contour>
      <point x="414" y="477" type="line" smooth="yes"/>
      <point x="414" y="394.614"/>
      <point x="417.983" y="297"/>
      <point x="500" y="297" type="curve" smooth="yes"/>
      <point x="577.025" y="297"/>
      <point x="580" y="387.595"/>
      <point x="580" y="465" type="curve" smooth="yes"/>
      <point x="580" y="1113" type="line" smooth="yes"/>
      <point x="580" y="1197.98"/>
      <point x="586.732" y="1295"/>
      <point x="500" y="1295" type="curve" smooth="yes"/>
      <point x="431.838" y="1295"/>
      <point x="414" y="1233.21"/>
      <point x="414" y="1165.5" type="curve" smooth="yes"/>
    </contour>
    <contour>
      <point x="232" y="1645" type="line"/>
      <point x="232" y="1868" type="line"/>
      <point x="707" y="2086" type="line"/>
      <point x="707" y="1739" type="line"/>
    </contour>
  </outline>
</glyph>
<glyph name="Otilde" format="1">
  <advance width="1000"/>
  <unicode hex="00D5"/>
  <outline>
    <contour>
      <point x="500" y="-18" type="curve" smooth="yes"/>
      <point x="212.425" y="-18"/>
      <point x="66" y="146.152"/>
      <point x="66" y="430" type="curve" smooth="yes"/>
      <point x="66" y="1189" type="line" smooth="yes"/>
      <point x="66" y="1463.99"/>
      <point x="218.298" y="1607"/>
      <point x="500" y="1607" type="curve" smooth="yes"/>
      <point x="781.739" y="1607"/>
      <point x="934" y="1464.02"/>
      <point x="934" y="1189" type="curve" smooth="yes"/>
      <point x="934" y="430" type="line" smooth="yes"/>
      <point x="934" y="146.152"/>
      <point x="787.576" y="-18"/>
    </contour>
    <contour>
      <point x="414" y="477" type="line" smooth="yes"/>
      <point x="414" y="394.614"/>
      <point x="417.983" y="297"/>
      <point x="500" y="297" type="curve" smooth="yes"/>
      <point x="577.025" y="297"/>
      <point x="580" y="387.595"/>
      <point x="580" y="465" type="curve" smooth="yes"/>
      <point x="580" y="1113" type="line" smooth="yes"/>
      <point x="580" y="1197.98"/>
      <point x="586.732" y="1295"/>
      <point x="500" y="1295" type="curve" smooth="yes"/>
      <point x="431.838" y="1295"/>
      <point x="414" y="1233.21"/>
      <point x="414" y="1165.5" type="curve" smooth="yes"/>
    </contour>
    <contour>
      <point x="601" y="1694" type="curve" smooth="yes"/>
      <point x="490.876" y="1694"/>
      <point x="457.757" y="1804"/>
      <point x="359" y="1804" type="curve" smooth="yes"/>
      <point x="337.667" y="1804"/>
      <point x="318.333" y="1774.33"/>
      <point x="301" y="1715" type="curve"/>
      <point x="79" y="1821" type="line"/>
      <point x="132.726" y="1952.78"/>
      <point x="203.273" y="2080"/>
      <point x="359" y="2080" type="curve" smooth="yes"/>
      <point x="452.558" y="2080"/>
      <point x="512.727" y="1972"/>
      <point x="602" y="1972" type="curve" smooth="yes"/>
      <point x="624" y="1972"/>
      <point x="643.667" y="1998.33"/>
      <point x="661" y="2051" type="curve"/>
      <point x="893" y="1995" type="line"/>
      <point x="839.217" y="1848.32"/>
      <point x="765.696" y="1694"/>
    </contour>
  </outline>
</glyph>
<glyph name="Odieresis" format="1">
  <advance width="1000"/>
  <unicode hex="00D6"/>
  <outline>
    <contour>
      <point x="500" y="-18" type="curve" smooth="yes"/>
      <point x="212.425" y="-18"/>
      <point x="66" y="146.152"/>
      <point x="66" y="430" type="curve" smooth="yes"/>
      <point x="66" y="1189" type="line" smooth="yes"/>
      <point x="66" y="1463.99"/>
      <point x="218.298" y="1607"/>
      <point x="500" y="1607" type="curve" smooth="yes"/>
      <point x="781.739" y="1607"/>
      <point x="934" y="1464.02"/>
      <point x="934" y="1189" type="curve" smooth="yes"/>
      <point x="934" y="430" type="line" smooth="yes"/>
      <point x="934" y="146.152"/>
      <point x="787.576" y="-18"/>
    </contour>
    <contour>
      <point x="414" y="477" type="line" smooth="yes"/>
      <point x="414" y="394.614"/>
      <point x="417.983" y="297"/>
      <point x="500" y="297" type="curve" smooth="yes"/>
      <point x="577.025" y="297"/>
      <point x="580" y="387.595"/>
      <point x="580" y="465" type="curve" smooth="yes"/>
      <point x="580" y="1113" type="line" smooth="yes"/>
      <point x="580" y="1197.98"/>
      <point x="586.732" y="1295"/>
      <point x="500" y="1295" type="curve" smooth="yes"/>
      <point x="431.838" y="1295"/>
      <point x="414" y="1233.21"/>
      <point x="414" y="1165.5" type="curve" smooth="yes"/>
    </contour>
    <contour>
      <point x="75" y="1683" type="line"/>
      <point x="75" y="1981" type="line"/>
      <point x="433" y="1981" type="line"/>
      <point x="433" y="1683" type="line"/>
    </contour>
    <contour>
      <point x="559" y="1683" type="line"/>
      <point x="559" y="1981" type="line"/>
      <point x="917" y="1981" type="line"/>
      <point x="917" y="1683" type="line"/>
    </contour>
  </outline>
</glyph>
<glyph name="multiply" format="1">
  <advance width="720"/>
  <unicode hex="00D7"/>
  <outline>
    <contour>
      <point x="213" y="314" type="line"/>
      <point x="49" y="478" type="line"/>
      <point x="196" y="625" type="line"/>
      <point x="49" y="772" type="line"/>
      <point x="213" y="936" type="line"/>
      <point x="360" y="789" type="line"/>
      <point x="507" y="936" type="line"/>
      <point x="671" y="772" type="line"/>
      <point x="524" y="625" type="line"/>
      <point x="671" y="478" type="line"/>
      <point x="507" y="314" type="line"/>
      <point x="360" y="461" type="line"/>
    </contour>
  </outline>
</glyph>
<glyph name="Oslash" format="1">
  <advance width="1000"/>
  <unicode hex="00D8"/>
  <outline>
    <contour>
      <point x="500" y="-18" type="qcurve"/>
      <point x="416" y="-18"/>
      <point x="345" y="1" type="qcurve"/>
      <point x="311" y="-120" type="line"/>
      <point x="211" y="-92" type="line"/>
      <point x="248" y="42" type="line"/>
      <point x="66" y="151"/>
      <point x="66" y="430" type="qcurve"/>
      <point x="66" y="1189" type="line"/>
      <point x="66" y="1388"/>
      <point x="281" y="1607"/>
      <point x="500" y="1607" type="qcurve"/>
      <point x="598" y="1607"/>
      <point x="676" y="1584" type="qcurve"/>
      <point x="708" y="1699" type="line"/>
      <point x="809" y="1671" type="line"/>
      <point x="772" y="1540" type="line"/>
      <point x="934" y="1437"/>
      <point x="934" y="1189" type="qcurve"/>
      <point x="934" y="430" type="line"/>
      <point x="934" y="333"/>
      <point x="885" y="174"/>
      <point x="785" y="50"/>
      <point x="614" y="-18"/>
    </contour>
    <contour>
      <point x="500" y="1295" type="qcurve"/>
      <point x="479" y="1295"/>
      <point x="448" y="1281"/>
      <point x="430" y="1250"/>
      <point x="418" y="1225"/>
      <point x="414" y="1176"/>
      <point x="414" y="1155"/>
      <point x="414" y="1130" type="qcurve"/>
      <point x="414" y="1126"/>
      <point x="414" y="1120"/>
      <point x="414" y="1117" type="qcurve"/>
      <point x="414" y="639" type="line"/>
      <point x="576" y="1222" type="line"/>
      <point x="562" y="1295"/>
    </contour>
    <contour>
      <point x="500" y="297" type="qcurve"/>
      <point x="519" y="297"/>
      <point x="548" y="312"/>
      <point x="565" y="343"/>
      <point x="575" y="371"/>
      <point x="579" y="418"/>
      <point x="580" y="443"/>
      <point x="580" y="465" type="qcurve"/>
      <point x="580" y="470"/>
      <point x="580" y="473" type="qcurve"/>
      <point x="580" y="846" type="line"/>
      <point x="437" y="333" type="line"/>
      <point x="458" y="297"/>
    </contour>
  </outline>
</glyph>
<glyph name="Oslash" format="1">
  <advance width="1000"/>
  <unicode hex="00D8"/>
  <outline>
    <component base="O"/>
    <contour>
      <point x="387.368" y="240.467" type="line"/>
      <point x="273" y="-162" type="line"/>
      <point x="161" y="-122" type="line"/>
      <point x="287.757" y="326.286" type="line"/>
    </contour>
    <contour>
      <point x="636.521" y="1559.72" type="line"/>
      <point x="765" y="2014.1" type="line"/>
      <point x="882" y="1981.1" type="line"/>
      <point x="748.11" y="1509.94" type="line"/>
    </contour>
  </outline>
</glyph>
<glyph name="Udieresis" format="1">
  <advance width="1020"/>
  <unicode hex="00DC"/>
  <outline>
    <contour>
      <point x="82" y="422" type="qcurve"/>
      <point x="82" y="1593" type="line"/>
      <point x="424" y="1593" type="line"/>
      <point x="424" y="453" type="line"/>
      <point x="424" y="451"/>
      <point x="424" y="446" type="qcurve"/>
      <point x="424" y="420"/>
      <point x="425" y="390"/>
      <point x="434" y="338"/>
      <point x="451" y="308"/>
      <point x="485" y="285"/>
      <point x="510" y="285" type="qcurve"/>
      <point x="531" y="285"/>
      <point x="562" y="299"/>
      <point x="580" y="328"/>
      <point x="591" y="355"/>
      <point x="595" y="400"/>
      <point x="596" y="424"/>
      <point x="596" y="446" type="qcurve"/>
      <point x="596" y="451"/>
      <point x="596" y="453" type="qcurve"/>
      <point x="596" y="1593" type="line"/>
      <point x="938" y="1593" type="line"/>
      <point x="938" y="422" type="line"/>
      <point x="938" y="206"/>
      <point x="731" y="-18"/>
      <point x="289" y="-18"/>
      <point x="82" y="206"/>
    </contour>
    <contour>
      <point x="92" y="1683" type="line"/>
      <point x="92" y="1981" type="line"/>
      <point x="450" y="1981" type="line"/>
      <point x="450" y="1683" type="line"/>
    </contour>
    <contour>
      <point x="576" y="1683" type="line"/>
      <point x="576" y="1981" type="line"/>
      <point x="934" y="1981" type="line"/>
      <point x="934" y="1683" type="line"/>
    </contour>
  </outline>
</glyph>
<glyph name="Thorn" format="1">
  <advance width="972"/>
  <unicode hex="00DE"/>
  <outline>
    <contour>
      <point x="87" y="0" type="line"/>
      <point x="87" y="1593" type="line"/>
      <point x="432" y="1593" type="line"/>
      <point x="432" y="1418" type="line"/>
      <point x="552" y="1418" type="line"/>
      <point x="644" y="1418"/>
      <point x="782" y="1365"/>
      <point x="888" y="1244"/>
      <point x="943" y="1028"/>
      <point x="943" y="875" type="qcurve"/>
      <point x="943" y="771"/>
      <point x="923" y="612"/>
      <point x="873" y="474"/>
      <point x="791" y="386"/>
      <point x="662" y="336"/>
      <point x="576" y="336" type="qcurve"/>
      <point x="433" y="336" type="line"/>
      <point x="433" y="0" type="line"/>
    </contour>
    <contour>
      <point x="433" y="1128" type="line"/>
      <point x="433" y="623" type="line"/>
      <point x="453" y="623" type="line"/>
      <point x="487" y="623"/>
      <point x="520" y="628"/>
      <point x="563" y="654"/>
      <point x="581" y="707"/>
      <point x="595" y="806"/>
      <point x="595" y="881" type="qcurve"/>
      <point x="595" y="1021"/>
      <point x="540" y="1128"/>
      <point x="472" y="1128" type="qcurve"/>
    </contour>
  </outline>
</glyph>
